G04 #@! TF.GenerationSoftware,KiCad,Pcbnew,(7.0.0)*
G04 #@! TF.CreationDate,2023-02-16T13:39:53+01:00*
G04 #@! TF.ProjectId,Sumo,53756d6f-2e6b-4696-9361-645f70636258,rev?*
G04 #@! TF.SameCoordinates,Original*
G04 #@! TF.FileFunction,Legend,Top*
G04 #@! TF.FilePolarity,Positive*
%FSLAX46Y46*%
G04 Gerber Fmt 4.6, Leading zero omitted, Abs format (unit mm)*
G04 Created by KiCad (PCBNEW (7.0.0)) date 2023-02-16 13:39:53*
%MOMM*%
%LPD*%
G01*
G04 APERTURE LIST*
G04 Aperture macros list*
%AMRoundRect*
0 Rectangle with rounded corners*
0 $1 Rounding radius*
0 $2 $3 $4 $5 $6 $7 $8 $9 X,Y pos of 4 corners*
0 Add a 4 corners polygon primitive as box body*
4,1,4,$2,$3,$4,$5,$6,$7,$8,$9,$2,$3,0*
0 Add four circle primitives for the rounded corners*
1,1,$1+$1,$2,$3*
1,1,$1+$1,$4,$5*
1,1,$1+$1,$6,$7*
1,1,$1+$1,$8,$9*
0 Add four rect primitives between the rounded corners*
20,1,$1+$1,$2,$3,$4,$5,0*
20,1,$1+$1,$4,$5,$6,$7,0*
20,1,$1+$1,$6,$7,$8,$9,0*
20,1,$1+$1,$8,$9,$2,$3,0*%
G04 Aperture macros list end*
%ADD10C,0.150000*%
%ADD11C,0.120000*%
%ADD12C,1.500000*%
%ADD13RoundRect,0.750000X1.950000X0.750000X-1.950000X0.750000X-1.950000X-0.750000X1.950000X-0.750000X0*%
%ADD14R,1.600000X1.600000*%
%ADD15O,1.600000X1.600000*%
%ADD16R,1.700000X1.700000*%
%ADD17O,1.700000X1.700000*%
%ADD18RoundRect,0.250000X-0.450000X0.325000X-0.450000X-0.325000X0.450000X-0.325000X0.450000X0.325000X0*%
%ADD19RoundRect,0.250000X-0.475000X0.337500X-0.475000X-0.337500X0.475000X-0.337500X0.475000X0.337500X0*%
%ADD20C,1.600000*%
%ADD21RoundRect,0.250000X1.000000X-1.400000X1.000000X1.400000X-1.000000X1.400000X-1.000000X-1.400000X0*%
%ADD22RoundRect,0.150000X-0.150000X0.512500X-0.150000X-0.512500X0.150000X-0.512500X0.150000X0.512500X0*%
%ADD23RoundRect,0.250000X0.337500X0.475000X-0.337500X0.475000X-0.337500X-0.475000X0.337500X-0.475000X0*%
%ADD24C,5.600000*%
%ADD25RoundRect,0.250000X0.350000X0.450000X-0.350000X0.450000X-0.350000X-0.450000X0.350000X-0.450000X0*%
%ADD26RoundRect,0.250000X-0.350000X-0.450000X0.350000X-0.450000X0.350000X0.450000X-0.350000X0.450000X0*%
%ADD27RoundRect,0.250000X-0.625000X0.350000X-0.625000X-0.350000X0.625000X-0.350000X0.625000X0.350000X0*%
%ADD28O,1.750000X1.200000*%
%ADD29RoundRect,0.250000X-0.337500X-0.475000X0.337500X-0.475000X0.337500X0.475000X-0.337500X0.475000X0*%
%ADD30RoundRect,0.250000X1.400000X1.000000X-1.400000X1.000000X-1.400000X-1.000000X1.400000X-1.000000X0*%
G04 APERTURE END LIST*
D10*
X124650000Y-83200000D02*
X124650000Y-79400000D01*
X116800000Y-83300000D02*
X116800000Y-78650000D01*
X116800000Y-78650000D02*
X116800000Y-77050000D01*
X152143571Y-91930952D02*
X152143571Y-91597619D01*
X152667380Y-91454762D02*
X152667380Y-91930952D01*
X152667380Y-91930952D02*
X151667380Y-91930952D01*
X151667380Y-91930952D02*
X151667380Y-91454762D01*
X152667380Y-91026190D02*
X151667380Y-91026190D01*
X151667380Y-91026190D02*
X152667380Y-90454762D01*
X152667380Y-90454762D02*
X151667380Y-90454762D01*
X152619761Y-77449523D02*
X152667380Y-77306666D01*
X152667380Y-77306666D02*
X152667380Y-77068571D01*
X152667380Y-77068571D02*
X152619761Y-76973333D01*
X152619761Y-76973333D02*
X152572142Y-76925714D01*
X152572142Y-76925714D02*
X152476904Y-76878095D01*
X152476904Y-76878095D02*
X152381666Y-76878095D01*
X152381666Y-76878095D02*
X152286428Y-76925714D01*
X152286428Y-76925714D02*
X152238809Y-76973333D01*
X152238809Y-76973333D02*
X152191190Y-77068571D01*
X152191190Y-77068571D02*
X152143571Y-77259047D01*
X152143571Y-77259047D02*
X152095952Y-77354285D01*
X152095952Y-77354285D02*
X152048333Y-77401904D01*
X152048333Y-77401904D02*
X151953095Y-77449523D01*
X151953095Y-77449523D02*
X151857857Y-77449523D01*
X151857857Y-77449523D02*
X151762619Y-77401904D01*
X151762619Y-77401904D02*
X151715000Y-77354285D01*
X151715000Y-77354285D02*
X151667380Y-77259047D01*
X151667380Y-77259047D02*
X151667380Y-77020952D01*
X151667380Y-77020952D02*
X151715000Y-76878095D01*
X151667380Y-76592380D02*
X151667380Y-76020952D01*
X152667380Y-76306666D02*
X151667380Y-76306666D01*
X152381666Y-75735237D02*
X152381666Y-75259047D01*
X152667380Y-75830475D02*
X151667380Y-75497142D01*
X151667380Y-75497142D02*
X152667380Y-75163809D01*
X151667380Y-74973332D02*
X151667380Y-74401904D01*
X152667380Y-74687618D02*
X151667380Y-74687618D01*
X152143571Y-74068570D02*
X152143571Y-73735237D01*
X152667380Y-73592380D02*
X152667380Y-74068570D01*
X152667380Y-74068570D02*
X151667380Y-74068570D01*
X151667380Y-74068570D02*
X151667380Y-73592380D01*
X142923810Y-90719761D02*
X143066667Y-90767380D01*
X143066667Y-90767380D02*
X143304762Y-90767380D01*
X143304762Y-90767380D02*
X143400000Y-90719761D01*
X143400000Y-90719761D02*
X143447619Y-90672142D01*
X143447619Y-90672142D02*
X143495238Y-90576904D01*
X143495238Y-90576904D02*
X143495238Y-90481666D01*
X143495238Y-90481666D02*
X143447619Y-90386428D01*
X143447619Y-90386428D02*
X143400000Y-90338809D01*
X143400000Y-90338809D02*
X143304762Y-90291190D01*
X143304762Y-90291190D02*
X143114286Y-90243571D01*
X143114286Y-90243571D02*
X143019048Y-90195952D01*
X143019048Y-90195952D02*
X142971429Y-90148333D01*
X142971429Y-90148333D02*
X142923810Y-90053095D01*
X142923810Y-90053095D02*
X142923810Y-89957857D01*
X142923810Y-89957857D02*
X142971429Y-89862619D01*
X142971429Y-89862619D02*
X143019048Y-89815000D01*
X143019048Y-89815000D02*
X143114286Y-89767380D01*
X143114286Y-89767380D02*
X143352381Y-89767380D01*
X143352381Y-89767380D02*
X143495238Y-89815000D01*
X144352381Y-90100714D02*
X144352381Y-90767380D01*
X143923810Y-90100714D02*
X143923810Y-90624523D01*
X143923810Y-90624523D02*
X143971429Y-90719761D01*
X143971429Y-90719761D02*
X144066667Y-90767380D01*
X144066667Y-90767380D02*
X144209524Y-90767380D01*
X144209524Y-90767380D02*
X144304762Y-90719761D01*
X144304762Y-90719761D02*
X144352381Y-90672142D01*
X144828572Y-90767380D02*
X144828572Y-90100714D01*
X144828572Y-90195952D02*
X144876191Y-90148333D01*
X144876191Y-90148333D02*
X144971429Y-90100714D01*
X144971429Y-90100714D02*
X145114286Y-90100714D01*
X145114286Y-90100714D02*
X145209524Y-90148333D01*
X145209524Y-90148333D02*
X145257143Y-90243571D01*
X145257143Y-90243571D02*
X145257143Y-90767380D01*
X145257143Y-90243571D02*
X145304762Y-90148333D01*
X145304762Y-90148333D02*
X145400000Y-90100714D01*
X145400000Y-90100714D02*
X145542857Y-90100714D01*
X145542857Y-90100714D02*
X145638096Y-90148333D01*
X145638096Y-90148333D02*
X145685715Y-90243571D01*
X145685715Y-90243571D02*
X145685715Y-90767380D01*
X146304762Y-90767380D02*
X146209524Y-90719761D01*
X146209524Y-90719761D02*
X146161905Y-90672142D01*
X146161905Y-90672142D02*
X146114286Y-90576904D01*
X146114286Y-90576904D02*
X146114286Y-90291190D01*
X146114286Y-90291190D02*
X146161905Y-90195952D01*
X146161905Y-90195952D02*
X146209524Y-90148333D01*
X146209524Y-90148333D02*
X146304762Y-90100714D01*
X146304762Y-90100714D02*
X146447619Y-90100714D01*
X146447619Y-90100714D02*
X146542857Y-90148333D01*
X146542857Y-90148333D02*
X146590476Y-90195952D01*
X146590476Y-90195952D02*
X146638095Y-90291190D01*
X146638095Y-90291190D02*
X146638095Y-90576904D01*
X146638095Y-90576904D02*
X146590476Y-90672142D01*
X146590476Y-90672142D02*
X146542857Y-90719761D01*
X146542857Y-90719761D02*
X146447619Y-90767380D01*
X146447619Y-90767380D02*
X146304762Y-90767380D01*
X147523810Y-89767380D02*
X147857143Y-90767380D01*
X147857143Y-90767380D02*
X148190476Y-89767380D01*
X148476191Y-89862619D02*
X148523810Y-89815000D01*
X148523810Y-89815000D02*
X148619048Y-89767380D01*
X148619048Y-89767380D02*
X148857143Y-89767380D01*
X148857143Y-89767380D02*
X148952381Y-89815000D01*
X148952381Y-89815000D02*
X149000000Y-89862619D01*
X149000000Y-89862619D02*
X149047619Y-89957857D01*
X149047619Y-89957857D02*
X149047619Y-90053095D01*
X149047619Y-90053095D02*
X149000000Y-90195952D01*
X149000000Y-90195952D02*
X148428572Y-90767380D01*
X148428572Y-90767380D02*
X149047619Y-90767380D01*
X149476191Y-90672142D02*
X149523810Y-90719761D01*
X149523810Y-90719761D02*
X149476191Y-90767380D01*
X149476191Y-90767380D02*
X149428572Y-90719761D01*
X149428572Y-90719761D02*
X149476191Y-90672142D01*
X149476191Y-90672142D02*
X149476191Y-90767380D01*
X150476190Y-90767380D02*
X149904762Y-90767380D01*
X150190476Y-90767380D02*
X150190476Y-89767380D01*
X150190476Y-89767380D02*
X150095238Y-89910238D01*
X150095238Y-89910238D02*
X150000000Y-90005476D01*
X150000000Y-90005476D02*
X149904762Y-90053095D01*
X135785714Y-71982619D02*
X135833333Y-71935000D01*
X135833333Y-71935000D02*
X135928571Y-71887380D01*
X135928571Y-71887380D02*
X136166666Y-71887380D01*
X136166666Y-71887380D02*
X136261904Y-71935000D01*
X136261904Y-71935000D02*
X136309523Y-71982619D01*
X136309523Y-71982619D02*
X136357142Y-72077857D01*
X136357142Y-72077857D02*
X136357142Y-72173095D01*
X136357142Y-72173095D02*
X136309523Y-72315952D01*
X136309523Y-72315952D02*
X135738095Y-72887380D01*
X135738095Y-72887380D02*
X136357142Y-72887380D01*
X136738095Y-72601666D02*
X137214285Y-72601666D01*
X136642857Y-72887380D02*
X136976190Y-71887380D01*
X136976190Y-71887380D02*
X137309523Y-72887380D01*
X131405333Y-79615380D02*
X130929143Y-79615380D01*
X130929143Y-79615380D02*
X130929143Y-78615380D01*
X132262476Y-79615380D02*
X131691048Y-79615380D01*
X131976762Y-79615380D02*
X131976762Y-78615380D01*
X131976762Y-78615380D02*
X131881524Y-78758238D01*
X131881524Y-78758238D02*
X131786286Y-78853476D01*
X131786286Y-78853476D02*
X131691048Y-78901095D01*
X145948495Y-71861980D02*
X146567542Y-71861980D01*
X146567542Y-71861980D02*
X146234209Y-72242933D01*
X146234209Y-72242933D02*
X146377066Y-72242933D01*
X146377066Y-72242933D02*
X146472304Y-72290552D01*
X146472304Y-72290552D02*
X146519923Y-72338171D01*
X146519923Y-72338171D02*
X146567542Y-72433409D01*
X146567542Y-72433409D02*
X146567542Y-72671504D01*
X146567542Y-72671504D02*
X146519923Y-72766742D01*
X146519923Y-72766742D02*
X146472304Y-72814361D01*
X146472304Y-72814361D02*
X146377066Y-72861980D01*
X146377066Y-72861980D02*
X146091352Y-72861980D01*
X146091352Y-72861980D02*
X145996114Y-72814361D01*
X145996114Y-72814361D02*
X145948495Y-72766742D01*
X146948495Y-72576266D02*
X147424685Y-72576266D01*
X146853257Y-72861980D02*
X147186590Y-71861980D01*
X147186590Y-71861980D02*
X147519923Y-72861980D01*
X109728095Y-57108380D02*
X109728095Y-57917904D01*
X109728095Y-57917904D02*
X109775714Y-58013142D01*
X109775714Y-58013142D02*
X109823333Y-58060761D01*
X109823333Y-58060761D02*
X109918571Y-58108380D01*
X109918571Y-58108380D02*
X110109047Y-58108380D01*
X110109047Y-58108380D02*
X110204285Y-58060761D01*
X110204285Y-58060761D02*
X110251904Y-58013142D01*
X110251904Y-58013142D02*
X110299523Y-57917904D01*
X110299523Y-57917904D02*
X110299523Y-57108380D01*
X110728095Y-57203619D02*
X110775714Y-57156000D01*
X110775714Y-57156000D02*
X110870952Y-57108380D01*
X110870952Y-57108380D02*
X111109047Y-57108380D01*
X111109047Y-57108380D02*
X111204285Y-57156000D01*
X111204285Y-57156000D02*
X111251904Y-57203619D01*
X111251904Y-57203619D02*
X111299523Y-57298857D01*
X111299523Y-57298857D02*
X111299523Y-57394095D01*
X111299523Y-57394095D02*
X111251904Y-57536952D01*
X111251904Y-57536952D02*
X110680476Y-58108380D01*
X110680476Y-58108380D02*
X111299523Y-58108380D01*
X143961904Y-76052714D02*
X143961904Y-76719380D01*
X143723809Y-75671761D02*
X143485714Y-76386047D01*
X143485714Y-76386047D02*
X144104761Y-76386047D01*
X144438095Y-76433666D02*
X144914285Y-76433666D01*
X144342857Y-76719380D02*
X144676190Y-75719380D01*
X144676190Y-75719380D02*
X145009523Y-76719380D01*
X108952380Y-53514523D02*
X107952380Y-53514523D01*
X107952380Y-53514523D02*
X108666666Y-53181190D01*
X108666666Y-53181190D02*
X107952380Y-52847857D01*
X107952380Y-52847857D02*
X108952380Y-52847857D01*
X108047619Y-52419285D02*
X108000000Y-52371666D01*
X108000000Y-52371666D02*
X107952380Y-52276428D01*
X107952380Y-52276428D02*
X107952380Y-52038333D01*
X107952380Y-52038333D02*
X108000000Y-51943095D01*
X108000000Y-51943095D02*
X108047619Y-51895476D01*
X108047619Y-51895476D02*
X108142857Y-51847857D01*
X108142857Y-51847857D02*
X108238095Y-51847857D01*
X108238095Y-51847857D02*
X108380952Y-51895476D01*
X108380952Y-51895476D02*
X108952380Y-52466904D01*
X108952380Y-52466904D02*
X108952380Y-51847857D01*
X109217571Y-87873333D02*
X109217571Y-88206666D01*
X109741380Y-88206666D02*
X108741380Y-88206666D01*
X108741380Y-88206666D02*
X108741380Y-87730476D01*
X109741380Y-86825714D02*
X109741380Y-87397142D01*
X109741380Y-87111428D02*
X108741380Y-87111428D01*
X108741380Y-87111428D02*
X108884238Y-87206666D01*
X108884238Y-87206666D02*
X108979476Y-87301904D01*
X108979476Y-87301904D02*
X109027095Y-87397142D01*
X102190476Y-63292380D02*
X102190476Y-62292380D01*
X102190476Y-62292380D02*
X102523809Y-63006666D01*
X102523809Y-63006666D02*
X102857142Y-62292380D01*
X102857142Y-62292380D02*
X102857142Y-63292380D01*
X103857142Y-63292380D02*
X103285714Y-63292380D01*
X103571428Y-63292380D02*
X103571428Y-62292380D01*
X103571428Y-62292380D02*
X103476190Y-62435238D01*
X103476190Y-62435238D02*
X103380952Y-62530476D01*
X103380952Y-62530476D02*
X103285714Y-62578095D01*
X117372142Y-59866666D02*
X117419761Y-59914285D01*
X117419761Y-59914285D02*
X117467380Y-60057142D01*
X117467380Y-60057142D02*
X117467380Y-60152380D01*
X117467380Y-60152380D02*
X117419761Y-60295237D01*
X117419761Y-60295237D02*
X117324523Y-60390475D01*
X117324523Y-60390475D02*
X117229285Y-60438094D01*
X117229285Y-60438094D02*
X117038809Y-60485713D01*
X117038809Y-60485713D02*
X116895952Y-60485713D01*
X116895952Y-60485713D02*
X116705476Y-60438094D01*
X116705476Y-60438094D02*
X116610238Y-60390475D01*
X116610238Y-60390475D02*
X116515000Y-60295237D01*
X116515000Y-60295237D02*
X116467380Y-60152380D01*
X116467380Y-60152380D02*
X116467380Y-60057142D01*
X116467380Y-60057142D02*
X116515000Y-59914285D01*
X116515000Y-59914285D02*
X116562619Y-59866666D01*
X116467380Y-59009523D02*
X116467380Y-59199999D01*
X116467380Y-59199999D02*
X116515000Y-59295237D01*
X116515000Y-59295237D02*
X116562619Y-59342856D01*
X116562619Y-59342856D02*
X116705476Y-59438094D01*
X116705476Y-59438094D02*
X116895952Y-59485713D01*
X116895952Y-59485713D02*
X117276904Y-59485713D01*
X117276904Y-59485713D02*
X117372142Y-59438094D01*
X117372142Y-59438094D02*
X117419761Y-59390475D01*
X117419761Y-59390475D02*
X117467380Y-59295237D01*
X117467380Y-59295237D02*
X117467380Y-59104761D01*
X117467380Y-59104761D02*
X117419761Y-59009523D01*
X117419761Y-59009523D02*
X117372142Y-58961904D01*
X117372142Y-58961904D02*
X117276904Y-58914285D01*
X117276904Y-58914285D02*
X117038809Y-58914285D01*
X117038809Y-58914285D02*
X116943571Y-58961904D01*
X116943571Y-58961904D02*
X116895952Y-59009523D01*
X116895952Y-59009523D02*
X116848333Y-59104761D01*
X116848333Y-59104761D02*
X116848333Y-59295237D01*
X116848333Y-59295237D02*
X116895952Y-59390475D01*
X116895952Y-59390475D02*
X116943571Y-59438094D01*
X116943571Y-59438094D02*
X117038809Y-59485713D01*
X110822142Y-83916666D02*
X110869761Y-83964285D01*
X110869761Y-83964285D02*
X110917380Y-84107142D01*
X110917380Y-84107142D02*
X110917380Y-84202380D01*
X110917380Y-84202380D02*
X110869761Y-84345237D01*
X110869761Y-84345237D02*
X110774523Y-84440475D01*
X110774523Y-84440475D02*
X110679285Y-84488094D01*
X110679285Y-84488094D02*
X110488809Y-84535713D01*
X110488809Y-84535713D02*
X110345952Y-84535713D01*
X110345952Y-84535713D02*
X110155476Y-84488094D01*
X110155476Y-84488094D02*
X110060238Y-84440475D01*
X110060238Y-84440475D02*
X109965000Y-84345237D01*
X109965000Y-84345237D02*
X109917380Y-84202380D01*
X109917380Y-84202380D02*
X109917380Y-84107142D01*
X109917380Y-84107142D02*
X109965000Y-83964285D01*
X109965000Y-83964285D02*
X110012619Y-83916666D01*
X109917380Y-83011904D02*
X109917380Y-83488094D01*
X109917380Y-83488094D02*
X110393571Y-83535713D01*
X110393571Y-83535713D02*
X110345952Y-83488094D01*
X110345952Y-83488094D02*
X110298333Y-83392856D01*
X110298333Y-83392856D02*
X110298333Y-83154761D01*
X110298333Y-83154761D02*
X110345952Y-83059523D01*
X110345952Y-83059523D02*
X110393571Y-83011904D01*
X110393571Y-83011904D02*
X110488809Y-82964285D01*
X110488809Y-82964285D02*
X110726904Y-82964285D01*
X110726904Y-82964285D02*
X110822142Y-83011904D01*
X110822142Y-83011904D02*
X110869761Y-83059523D01*
X110869761Y-83059523D02*
X110917380Y-83154761D01*
X110917380Y-83154761D02*
X110917380Y-83392856D01*
X110917380Y-83392856D02*
X110869761Y-83488094D01*
X110869761Y-83488094D02*
X110822142Y-83535713D01*
X118317380Y-73788094D02*
X117317380Y-73788094D01*
X117317380Y-73788094D02*
X117317380Y-73549999D01*
X117317380Y-73549999D02*
X117365000Y-73407142D01*
X117365000Y-73407142D02*
X117460238Y-73311904D01*
X117460238Y-73311904D02*
X117555476Y-73264285D01*
X117555476Y-73264285D02*
X117745952Y-73216666D01*
X117745952Y-73216666D02*
X117888809Y-73216666D01*
X117888809Y-73216666D02*
X118079285Y-73264285D01*
X118079285Y-73264285D02*
X118174523Y-73311904D01*
X118174523Y-73311904D02*
X118269761Y-73407142D01*
X118269761Y-73407142D02*
X118317380Y-73549999D01*
X118317380Y-73549999D02*
X118317380Y-73788094D01*
X118317380Y-72264285D02*
X118317380Y-72835713D01*
X118317380Y-72549999D02*
X117317380Y-72549999D01*
X117317380Y-72549999D02*
X117460238Y-72645237D01*
X117460238Y-72645237D02*
X117555476Y-72740475D01*
X117555476Y-72740475D02*
X117603095Y-72835713D01*
X126738095Y-80717380D02*
X126738095Y-81526904D01*
X126738095Y-81526904D02*
X126785714Y-81622142D01*
X126785714Y-81622142D02*
X126833333Y-81669761D01*
X126833333Y-81669761D02*
X126928571Y-81717380D01*
X126928571Y-81717380D02*
X127119047Y-81717380D01*
X127119047Y-81717380D02*
X127214285Y-81669761D01*
X127214285Y-81669761D02*
X127261904Y-81622142D01*
X127261904Y-81622142D02*
X127309523Y-81526904D01*
X127309523Y-81526904D02*
X127309523Y-80717380D01*
X128309523Y-81717380D02*
X127738095Y-81717380D01*
X128023809Y-81717380D02*
X128023809Y-80717380D01*
X128023809Y-80717380D02*
X127928571Y-80860238D01*
X127928571Y-80860238D02*
X127833333Y-80955476D01*
X127833333Y-80955476D02*
X127738095Y-81003095D01*
X125690333Y-89807142D02*
X125642714Y-89854761D01*
X125642714Y-89854761D02*
X125499857Y-89902380D01*
X125499857Y-89902380D02*
X125404619Y-89902380D01*
X125404619Y-89902380D02*
X125261762Y-89854761D01*
X125261762Y-89854761D02*
X125166524Y-89759523D01*
X125166524Y-89759523D02*
X125118905Y-89664285D01*
X125118905Y-89664285D02*
X125071286Y-89473809D01*
X125071286Y-89473809D02*
X125071286Y-89330952D01*
X125071286Y-89330952D02*
X125118905Y-89140476D01*
X125118905Y-89140476D02*
X125166524Y-89045238D01*
X125166524Y-89045238D02*
X125261762Y-88950000D01*
X125261762Y-88950000D02*
X125404619Y-88902380D01*
X125404619Y-88902380D02*
X125499857Y-88902380D01*
X125499857Y-88902380D02*
X125642714Y-88950000D01*
X125642714Y-88950000D02*
X125690333Y-88997619D01*
X126547476Y-89235714D02*
X126547476Y-89902380D01*
X126309381Y-88854761D02*
X126071286Y-89569047D01*
X126071286Y-89569047D02*
X126690333Y-89569047D01*
X125533333Y-81667380D02*
X125200000Y-81191190D01*
X124961905Y-81667380D02*
X124961905Y-80667380D01*
X124961905Y-80667380D02*
X125342857Y-80667380D01*
X125342857Y-80667380D02*
X125438095Y-80715000D01*
X125438095Y-80715000D02*
X125485714Y-80762619D01*
X125485714Y-80762619D02*
X125533333Y-80857857D01*
X125533333Y-80857857D02*
X125533333Y-81000714D01*
X125533333Y-81000714D02*
X125485714Y-81095952D01*
X125485714Y-81095952D02*
X125438095Y-81143571D01*
X125438095Y-81143571D02*
X125342857Y-81191190D01*
X125342857Y-81191190D02*
X124961905Y-81191190D01*
X125914286Y-80762619D02*
X125961905Y-80715000D01*
X125961905Y-80715000D02*
X126057143Y-80667380D01*
X126057143Y-80667380D02*
X126295238Y-80667380D01*
X126295238Y-80667380D02*
X126390476Y-80715000D01*
X126390476Y-80715000D02*
X126438095Y-80762619D01*
X126438095Y-80762619D02*
X126485714Y-80857857D01*
X126485714Y-80857857D02*
X126485714Y-80953095D01*
X126485714Y-80953095D02*
X126438095Y-81095952D01*
X126438095Y-81095952D02*
X125866667Y-81667380D01*
X125866667Y-81667380D02*
X126485714Y-81667380D01*
X137374524Y-75995571D02*
X137707857Y-75995571D01*
X137850714Y-76519380D02*
X137374524Y-76519380D01*
X137374524Y-76519380D02*
X137374524Y-75519380D01*
X137374524Y-75519380D02*
X137850714Y-75519380D01*
X138279286Y-76519380D02*
X138279286Y-75519380D01*
X138279286Y-75519380D02*
X138850714Y-76519380D01*
X138850714Y-76519380D02*
X138850714Y-75519380D01*
X139231667Y-75519380D02*
X139850714Y-75519380D01*
X139850714Y-75519380D02*
X139517381Y-75900333D01*
X139517381Y-75900333D02*
X139660238Y-75900333D01*
X139660238Y-75900333D02*
X139755476Y-75947952D01*
X139755476Y-75947952D02*
X139803095Y-75995571D01*
X139803095Y-75995571D02*
X139850714Y-76090809D01*
X139850714Y-76090809D02*
X139850714Y-76328904D01*
X139850714Y-76328904D02*
X139803095Y-76424142D01*
X139803095Y-76424142D02*
X139755476Y-76471761D01*
X139755476Y-76471761D02*
X139660238Y-76519380D01*
X139660238Y-76519380D02*
X139374524Y-76519380D01*
X139374524Y-76519380D02*
X139279286Y-76471761D01*
X139279286Y-76471761D02*
X139231667Y-76424142D01*
X140707857Y-75852714D02*
X140707857Y-76519380D01*
X140469762Y-75471761D02*
X140231667Y-76186047D01*
X140231667Y-76186047D02*
X140850714Y-76186047D01*
X118040714Y-70145666D02*
X118516904Y-70145666D01*
X117945476Y-70431380D02*
X118278809Y-69431380D01*
X118278809Y-69431380D02*
X118612142Y-70431380D01*
X119469285Y-70431380D02*
X118897857Y-70431380D01*
X119183571Y-70431380D02*
X119183571Y-69431380D01*
X119183571Y-69431380D02*
X119088333Y-69574238D01*
X119088333Y-69574238D02*
X118993095Y-69669476D01*
X118993095Y-69669476D02*
X118897857Y-69717095D01*
X156212380Y-63735904D02*
X157021904Y-63735904D01*
X157021904Y-63735904D02*
X157117142Y-63688285D01*
X157117142Y-63688285D02*
X157164761Y-63640666D01*
X157164761Y-63640666D02*
X157212380Y-63545428D01*
X157212380Y-63545428D02*
X157212380Y-63354952D01*
X157212380Y-63354952D02*
X157164761Y-63259714D01*
X157164761Y-63259714D02*
X157117142Y-63212095D01*
X157117142Y-63212095D02*
X157021904Y-63164476D01*
X157021904Y-63164476D02*
X156212380Y-63164476D01*
X157164761Y-62735904D02*
X157212380Y-62593047D01*
X157212380Y-62593047D02*
X157212380Y-62354952D01*
X157212380Y-62354952D02*
X157164761Y-62259714D01*
X157164761Y-62259714D02*
X157117142Y-62212095D01*
X157117142Y-62212095D02*
X157021904Y-62164476D01*
X157021904Y-62164476D02*
X156926666Y-62164476D01*
X156926666Y-62164476D02*
X156831428Y-62212095D01*
X156831428Y-62212095D02*
X156783809Y-62259714D01*
X156783809Y-62259714D02*
X156736190Y-62354952D01*
X156736190Y-62354952D02*
X156688571Y-62545428D01*
X156688571Y-62545428D02*
X156640952Y-62640666D01*
X156640952Y-62640666D02*
X156593333Y-62688285D01*
X156593333Y-62688285D02*
X156498095Y-62735904D01*
X156498095Y-62735904D02*
X156402857Y-62735904D01*
X156402857Y-62735904D02*
X156307619Y-62688285D01*
X156307619Y-62688285D02*
X156260000Y-62640666D01*
X156260000Y-62640666D02*
X156212380Y-62545428D01*
X156212380Y-62545428D02*
X156212380Y-62307333D01*
X156212380Y-62307333D02*
X156260000Y-62164476D01*
X156688571Y-61402571D02*
X156736190Y-61259714D01*
X156736190Y-61259714D02*
X156783809Y-61212095D01*
X156783809Y-61212095D02*
X156879047Y-61164476D01*
X156879047Y-61164476D02*
X157021904Y-61164476D01*
X157021904Y-61164476D02*
X157117142Y-61212095D01*
X157117142Y-61212095D02*
X157164761Y-61259714D01*
X157164761Y-61259714D02*
X157212380Y-61354952D01*
X157212380Y-61354952D02*
X157212380Y-61735904D01*
X157212380Y-61735904D02*
X156212380Y-61735904D01*
X156212380Y-61735904D02*
X156212380Y-61402571D01*
X156212380Y-61402571D02*
X156260000Y-61307333D01*
X156260000Y-61307333D02*
X156307619Y-61259714D01*
X156307619Y-61259714D02*
X156402857Y-61212095D01*
X156402857Y-61212095D02*
X156498095Y-61212095D01*
X156498095Y-61212095D02*
X156593333Y-61259714D01*
X156593333Y-61259714D02*
X156640952Y-61307333D01*
X156640952Y-61307333D02*
X156688571Y-61402571D01*
X156688571Y-61402571D02*
X156688571Y-61735904D01*
X117733333Y-77667380D02*
X117400000Y-77191190D01*
X117161905Y-77667380D02*
X117161905Y-76667380D01*
X117161905Y-76667380D02*
X117542857Y-76667380D01*
X117542857Y-76667380D02*
X117638095Y-76715000D01*
X117638095Y-76715000D02*
X117685714Y-76762619D01*
X117685714Y-76762619D02*
X117733333Y-76857857D01*
X117733333Y-76857857D02*
X117733333Y-77000714D01*
X117733333Y-77000714D02*
X117685714Y-77095952D01*
X117685714Y-77095952D02*
X117638095Y-77143571D01*
X117638095Y-77143571D02*
X117542857Y-77191190D01*
X117542857Y-77191190D02*
X117161905Y-77191190D01*
X118685714Y-77667380D02*
X118114286Y-77667380D01*
X118400000Y-77667380D02*
X118400000Y-76667380D01*
X118400000Y-76667380D02*
X118304762Y-76810238D01*
X118304762Y-76810238D02*
X118209524Y-76905476D01*
X118209524Y-76905476D02*
X118114286Y-76953095D01*
X161738095Y-76617380D02*
X162309523Y-76617380D01*
X162023809Y-77617380D02*
X162023809Y-76617380D01*
X162547619Y-76617380D02*
X163214285Y-77617380D01*
X163214285Y-76617380D02*
X162547619Y-77617380D01*
X125533333Y-80322142D02*
X125485714Y-80369761D01*
X125485714Y-80369761D02*
X125342857Y-80417380D01*
X125342857Y-80417380D02*
X125247619Y-80417380D01*
X125247619Y-80417380D02*
X125104762Y-80369761D01*
X125104762Y-80369761D02*
X125009524Y-80274523D01*
X125009524Y-80274523D02*
X124961905Y-80179285D01*
X124961905Y-80179285D02*
X124914286Y-79988809D01*
X124914286Y-79988809D02*
X124914286Y-79845952D01*
X124914286Y-79845952D02*
X124961905Y-79655476D01*
X124961905Y-79655476D02*
X125009524Y-79560238D01*
X125009524Y-79560238D02*
X125104762Y-79465000D01*
X125104762Y-79465000D02*
X125247619Y-79417380D01*
X125247619Y-79417380D02*
X125342857Y-79417380D01*
X125342857Y-79417380D02*
X125485714Y-79465000D01*
X125485714Y-79465000D02*
X125533333Y-79512619D01*
X126485714Y-80417380D02*
X125914286Y-80417380D01*
X126200000Y-80417380D02*
X126200000Y-79417380D01*
X126200000Y-79417380D02*
X126104762Y-79560238D01*
X126104762Y-79560238D02*
X126009524Y-79655476D01*
X126009524Y-79655476D02*
X125914286Y-79703095D01*
X115933333Y-87472142D02*
X115885714Y-87519761D01*
X115885714Y-87519761D02*
X115742857Y-87567380D01*
X115742857Y-87567380D02*
X115647619Y-87567380D01*
X115647619Y-87567380D02*
X115504762Y-87519761D01*
X115504762Y-87519761D02*
X115409524Y-87424523D01*
X115409524Y-87424523D02*
X115361905Y-87329285D01*
X115361905Y-87329285D02*
X115314286Y-87138809D01*
X115314286Y-87138809D02*
X115314286Y-86995952D01*
X115314286Y-86995952D02*
X115361905Y-86805476D01*
X115361905Y-86805476D02*
X115409524Y-86710238D01*
X115409524Y-86710238D02*
X115504762Y-86615000D01*
X115504762Y-86615000D02*
X115647619Y-86567380D01*
X115647619Y-86567380D02*
X115742857Y-86567380D01*
X115742857Y-86567380D02*
X115885714Y-86615000D01*
X115885714Y-86615000D02*
X115933333Y-86662619D01*
X116266667Y-86567380D02*
X116885714Y-86567380D01*
X116885714Y-86567380D02*
X116552381Y-86948333D01*
X116552381Y-86948333D02*
X116695238Y-86948333D01*
X116695238Y-86948333D02*
X116790476Y-86995952D01*
X116790476Y-86995952D02*
X116838095Y-87043571D01*
X116838095Y-87043571D02*
X116885714Y-87138809D01*
X116885714Y-87138809D02*
X116885714Y-87376904D01*
X116885714Y-87376904D02*
X116838095Y-87472142D01*
X116838095Y-87472142D02*
X116790476Y-87519761D01*
X116790476Y-87519761D02*
X116695238Y-87567380D01*
X116695238Y-87567380D02*
X116409524Y-87567380D01*
X116409524Y-87567380D02*
X116314286Y-87519761D01*
X116314286Y-87519761D02*
X116266667Y-87472142D01*
X154690476Y-74393571D02*
X154833333Y-74441190D01*
X154833333Y-74441190D02*
X154880952Y-74488809D01*
X154880952Y-74488809D02*
X154928571Y-74584047D01*
X154928571Y-74584047D02*
X154928571Y-74726904D01*
X154928571Y-74726904D02*
X154880952Y-74822142D01*
X154880952Y-74822142D02*
X154833333Y-74869761D01*
X154833333Y-74869761D02*
X154738095Y-74917380D01*
X154738095Y-74917380D02*
X154357143Y-74917380D01*
X154357143Y-74917380D02*
X154357143Y-73917380D01*
X154357143Y-73917380D02*
X154690476Y-73917380D01*
X154690476Y-73917380D02*
X154785714Y-73965000D01*
X154785714Y-73965000D02*
X154833333Y-74012619D01*
X154833333Y-74012619D02*
X154880952Y-74107857D01*
X154880952Y-74107857D02*
X154880952Y-74203095D01*
X154880952Y-74203095D02*
X154833333Y-74298333D01*
X154833333Y-74298333D02*
X154785714Y-74345952D01*
X154785714Y-74345952D02*
X154690476Y-74393571D01*
X154690476Y-74393571D02*
X154357143Y-74393571D01*
X155214286Y-73917380D02*
X155785714Y-73917380D01*
X155500000Y-74917380D02*
X155500000Y-73917380D01*
X108217380Y-84433333D02*
X108931666Y-84433333D01*
X108931666Y-84433333D02*
X109074523Y-84480952D01*
X109074523Y-84480952D02*
X109169761Y-84576190D01*
X109169761Y-84576190D02*
X109217380Y-84719047D01*
X109217380Y-84719047D02*
X109217380Y-84814285D01*
X108550714Y-83528571D02*
X109217380Y-83528571D01*
X108169761Y-83766666D02*
X108884047Y-84004761D01*
X108884047Y-84004761D02*
X108884047Y-83385714D01*
X117683333Y-78922142D02*
X117635714Y-78969761D01*
X117635714Y-78969761D02*
X117492857Y-79017380D01*
X117492857Y-79017380D02*
X117397619Y-79017380D01*
X117397619Y-79017380D02*
X117254762Y-78969761D01*
X117254762Y-78969761D02*
X117159524Y-78874523D01*
X117159524Y-78874523D02*
X117111905Y-78779285D01*
X117111905Y-78779285D02*
X117064286Y-78588809D01*
X117064286Y-78588809D02*
X117064286Y-78445952D01*
X117064286Y-78445952D02*
X117111905Y-78255476D01*
X117111905Y-78255476D02*
X117159524Y-78160238D01*
X117159524Y-78160238D02*
X117254762Y-78065000D01*
X117254762Y-78065000D02*
X117397619Y-78017380D01*
X117397619Y-78017380D02*
X117492857Y-78017380D01*
X117492857Y-78017380D02*
X117635714Y-78065000D01*
X117635714Y-78065000D02*
X117683333Y-78112619D01*
X118064286Y-78112619D02*
X118111905Y-78065000D01*
X118111905Y-78065000D02*
X118207143Y-78017380D01*
X118207143Y-78017380D02*
X118445238Y-78017380D01*
X118445238Y-78017380D02*
X118540476Y-78065000D01*
X118540476Y-78065000D02*
X118588095Y-78112619D01*
X118588095Y-78112619D02*
X118635714Y-78207857D01*
X118635714Y-78207857D02*
X118635714Y-78303095D01*
X118635714Y-78303095D02*
X118588095Y-78445952D01*
X118588095Y-78445952D02*
X118016667Y-79017380D01*
X118016667Y-79017380D02*
X118635714Y-79017380D01*
X160233333Y-74117380D02*
X159900000Y-73641190D01*
X159661905Y-74117380D02*
X159661905Y-73117380D01*
X159661905Y-73117380D02*
X160042857Y-73117380D01*
X160042857Y-73117380D02*
X160138095Y-73165000D01*
X160138095Y-73165000D02*
X160185714Y-73212619D01*
X160185714Y-73212619D02*
X160233333Y-73307857D01*
X160233333Y-73307857D02*
X160233333Y-73450714D01*
X160233333Y-73450714D02*
X160185714Y-73545952D01*
X160185714Y-73545952D02*
X160138095Y-73593571D01*
X160138095Y-73593571D02*
X160042857Y-73641190D01*
X160042857Y-73641190D02*
X159661905Y-73641190D01*
X160566667Y-73117380D02*
X161233333Y-74117380D01*
X161233333Y-73117380D02*
X160566667Y-74117380D01*
X139939924Y-72388971D02*
X140273257Y-72388971D01*
X140416114Y-72912780D02*
X139939924Y-72912780D01*
X139939924Y-72912780D02*
X139939924Y-71912780D01*
X139939924Y-71912780D02*
X140416114Y-71912780D01*
X140844686Y-72912780D02*
X140844686Y-71912780D01*
X140844686Y-71912780D02*
X141416114Y-72912780D01*
X141416114Y-72912780D02*
X141416114Y-71912780D01*
X142416114Y-72912780D02*
X141844686Y-72912780D01*
X142130400Y-72912780D02*
X142130400Y-71912780D01*
X142130400Y-71912780D02*
X142035162Y-72055638D01*
X142035162Y-72055638D02*
X141939924Y-72150876D01*
X141939924Y-72150876D02*
X141844686Y-72198495D01*
X142797067Y-72008019D02*
X142844686Y-71960400D01*
X142844686Y-71960400D02*
X142939924Y-71912780D01*
X142939924Y-71912780D02*
X143178019Y-71912780D01*
X143178019Y-71912780D02*
X143273257Y-71960400D01*
X143273257Y-71960400D02*
X143320876Y-72008019D01*
X143320876Y-72008019D02*
X143368495Y-72103257D01*
X143368495Y-72103257D02*
X143368495Y-72198495D01*
X143368495Y-72198495D02*
X143320876Y-72341352D01*
X143320876Y-72341352D02*
X142749448Y-72912780D01*
X142749448Y-72912780D02*
X143368495Y-72912780D01*
X124111905Y-93217380D02*
X124111905Y-92217380D01*
X124111905Y-92217380D02*
X124350000Y-92217380D01*
X124350000Y-92217380D02*
X124492857Y-92265000D01*
X124492857Y-92265000D02*
X124588095Y-92360238D01*
X124588095Y-92360238D02*
X124635714Y-92455476D01*
X124635714Y-92455476D02*
X124683333Y-92645952D01*
X124683333Y-92645952D02*
X124683333Y-92788809D01*
X124683333Y-92788809D02*
X124635714Y-92979285D01*
X124635714Y-92979285D02*
X124588095Y-93074523D01*
X124588095Y-93074523D02*
X124492857Y-93169761D01*
X124492857Y-93169761D02*
X124350000Y-93217380D01*
X124350000Y-93217380D02*
X124111905Y-93217380D01*
X125064286Y-92312619D02*
X125111905Y-92265000D01*
X125111905Y-92265000D02*
X125207143Y-92217380D01*
X125207143Y-92217380D02*
X125445238Y-92217380D01*
X125445238Y-92217380D02*
X125540476Y-92265000D01*
X125540476Y-92265000D02*
X125588095Y-92312619D01*
X125588095Y-92312619D02*
X125635714Y-92407857D01*
X125635714Y-92407857D02*
X125635714Y-92503095D01*
X125635714Y-92503095D02*
X125588095Y-92645952D01*
X125588095Y-92645952D02*
X125016667Y-93217380D01*
X125016667Y-93217380D02*
X125635714Y-93217380D01*
X134857142Y-76619380D02*
X134285714Y-76619380D01*
X134571428Y-76619380D02*
X134571428Y-75619380D01*
X134571428Y-75619380D02*
X134476190Y-75762238D01*
X134476190Y-75762238D02*
X134380952Y-75857476D01*
X134380952Y-75857476D02*
X134285714Y-75905095D01*
X135238095Y-76333666D02*
X135714285Y-76333666D01*
X135142857Y-76619380D02*
X135476190Y-75619380D01*
X135476190Y-75619380D02*
X135809523Y-76619380D01*
G36*
X143139299Y-87998101D02*
G01*
X143489181Y-87998101D01*
X143497477Y-88053194D01*
X143590572Y-88074106D01*
X143632704Y-88075000D01*
X143749400Y-88066610D01*
X143785161Y-88023436D01*
X143770394Y-87934188D01*
X143731754Y-87768726D01*
X143704195Y-87639086D01*
X143667004Y-87529626D01*
X143623914Y-87524076D01*
X143580167Y-87619299D01*
X143554852Y-87728439D01*
X143522574Y-87879188D01*
X143491920Y-87990580D01*
X143489181Y-87998101D01*
X143139299Y-87998101D01*
X143177139Y-87877693D01*
X143421227Y-87106355D01*
X143651142Y-87106355D01*
X143881057Y-87106355D01*
X144116417Y-87873199D01*
X144200942Y-88148067D01*
X144275395Y-88389194D01*
X144333543Y-88576466D01*
X144369152Y-88689770D01*
X144376065Y-88710985D01*
X144362624Y-88756838D01*
X144267749Y-88768959D01*
X144195859Y-88764798D01*
X144054493Y-88740040D01*
X143977241Y-88675076D01*
X143928276Y-88559322D01*
X143879961Y-88441428D01*
X143815047Y-88386924D01*
X143695139Y-88371579D01*
X143629845Y-88370974D01*
X143481940Y-88376894D01*
X143405576Y-88411779D01*
X143364719Y-88501321D01*
X143346779Y-88572775D01*
X143305701Y-88705103D01*
X143244082Y-88761987D01*
X143126334Y-88774551D01*
X143116053Y-88774576D01*
X142990980Y-88758237D01*
X142933696Y-88717307D01*
X142933051Y-88711803D01*
X142948600Y-88640675D01*
X142991416Y-88486747D01*
X143055751Y-88269658D01*
X143135859Y-88009047D01*
X143139299Y-87998101D01*
G37*
G36*
X145574611Y-87114454D02*
G01*
X145809571Y-87125719D01*
X145963567Y-87142515D01*
X146063245Y-87172155D01*
X146135255Y-87221949D01*
X146193467Y-87284250D01*
X146304619Y-87486436D01*
X146313553Y-87703138D01*
X146220511Y-87915930D01*
X146184485Y-87962653D01*
X146045664Y-88127633D01*
X146211391Y-88417295D01*
X146298310Y-88574270D01*
X146358318Y-88692311D01*
X146377119Y-88740766D01*
X146329502Y-88762414D01*
X146211293Y-88773977D01*
X146173075Y-88774576D01*
X146056986Y-88768032D01*
X145978768Y-88733106D01*
X145911351Y-88646854D01*
X145827668Y-88486335D01*
X145823872Y-88478601D01*
X145720419Y-88294496D01*
X145631882Y-88201184D01*
X145570500Y-88182627D01*
X145507988Y-88195312D01*
X145475422Y-88250396D01*
X145463465Y-88373421D01*
X145462289Y-88478601D01*
X145462289Y-88774576D01*
X145273941Y-88774576D01*
X145085594Y-88774576D01*
X145085594Y-87935111D01*
X145085594Y-87363445D01*
X145462289Y-87363445D01*
X145462289Y-87611595D01*
X145467420Y-87763242D01*
X145493425Y-87835985D01*
X145556221Y-87858431D01*
X145600360Y-87859745D01*
X145751146Y-87837762D01*
X145842521Y-87804038D01*
X145913599Y-87722468D01*
X145947314Y-87603777D01*
X145934371Y-87497851D01*
X145905841Y-87464205D01*
X145830184Y-87438564D01*
X145695375Y-87407384D01*
X145663680Y-87401227D01*
X145462289Y-87363445D01*
X145085594Y-87363445D01*
X145085594Y-87095647D01*
X145574611Y-87114454D01*
G37*
G36*
X148260594Y-87267796D02*
G01*
X148260594Y-87429237D01*
X147910806Y-87429237D01*
X147561017Y-87429237D01*
X147561017Y-87590677D01*
X147565987Y-87682970D01*
X147598558Y-87731008D01*
X147685220Y-87749241D01*
X147852466Y-87752118D01*
X147856992Y-87752118D01*
X148026196Y-87754829D01*
X148114265Y-87772595D01*
X148147692Y-87819865D01*
X148152966Y-87911090D01*
X148152967Y-87913559D01*
X148147997Y-88005852D01*
X148115426Y-88053890D01*
X148028763Y-88072122D01*
X147861518Y-88074999D01*
X147856992Y-88075000D01*
X147561017Y-88075000D01*
X147561017Y-88263347D01*
X147561017Y-88451694D01*
X147941287Y-88451694D01*
X148321556Y-88451694D01*
X148304528Y-88599682D01*
X148287500Y-88747669D01*
X147735911Y-88763005D01*
X147184322Y-88778341D01*
X147184322Y-87942348D01*
X147184322Y-87106355D01*
X147722458Y-87106355D01*
X148260594Y-87106355D01*
X148260594Y-87267796D01*
G37*
G36*
X150001722Y-87103777D02*
G01*
X150182579Y-87182029D01*
X150262494Y-87268934D01*
X150248150Y-87373958D01*
X150222383Y-87416340D01*
X150162278Y-87487455D01*
X150096222Y-87501503D01*
X149982528Y-87463756D01*
X149950898Y-87450660D01*
X149769705Y-87401747D01*
X149631890Y-87415818D01*
X149558628Y-87488631D01*
X149552119Y-87530588D01*
X149602387Y-87613305D01*
X149755194Y-87705998D01*
X149852487Y-87749182D01*
X150034351Y-87835791D01*
X150187402Y-87928186D01*
X150256089Y-87984486D01*
X150339873Y-88144900D01*
X150353832Y-88341934D01*
X150303914Y-88508489D01*
X150175585Y-88643235D01*
X149977877Y-88731448D01*
X149740753Y-88768007D01*
X149494175Y-88747793D01*
X149296505Y-88680651D01*
X149161525Y-88591806D01*
X149129613Y-88503103D01*
X149197086Y-88400981D01*
X149215784Y-88383457D01*
X149298949Y-88329035D01*
X149386430Y-88343491D01*
X149444492Y-88373210D01*
X149664329Y-88444755D01*
X149879673Y-88425407D01*
X149897506Y-88419030D01*
X149978136Y-88356962D01*
X149956034Y-88274734D01*
X149833552Y-88175452D01*
X149634961Y-88072051D01*
X149407993Y-87955689D01*
X149267750Y-87843248D01*
X149196236Y-87713811D01*
X149175455Y-87546462D01*
X149175424Y-87537956D01*
X149223764Y-87350134D01*
X149353643Y-87200995D01*
X149542352Y-87102472D01*
X149767179Y-87066498D01*
X150001722Y-87103777D01*
G37*
G36*
X146027934Y-80415271D02*
G01*
X146096790Y-80473304D01*
X146182517Y-80586190D01*
X146290236Y-80760749D01*
X146425070Y-81003804D01*
X146592141Y-81322176D01*
X146796568Y-81722686D01*
X147043475Y-82212156D01*
X147065179Y-82255287D01*
X147310961Y-82745742D01*
X147510466Y-83148746D01*
X147667271Y-83472232D01*
X147784956Y-83724133D01*
X147867100Y-83912381D01*
X147917279Y-84044909D01*
X147939075Y-84129651D01*
X147936064Y-84174537D01*
X147933060Y-84179122D01*
X147893205Y-84203726D01*
X147811685Y-84222589D01*
X147676609Y-84236374D01*
X147476086Y-84245747D01*
X147198226Y-84251371D01*
X146831137Y-84253913D01*
X146588960Y-84254237D01*
X146181447Y-84252086D01*
X145836716Y-84245909D01*
X145565177Y-84236119D01*
X145377236Y-84223131D01*
X145283300Y-84207357D01*
X145274932Y-84202026D01*
X145276593Y-84127958D01*
X145314446Y-83998025D01*
X145373878Y-83847225D01*
X145440281Y-83710553D01*
X145499043Y-83623006D01*
X145522729Y-83608474D01*
X145622853Y-83561366D01*
X145714866Y-83444483D01*
X145774695Y-83294487D01*
X145785170Y-83208778D01*
X145736455Y-83026912D01*
X145609915Y-82883258D01*
X145434954Y-82806809D01*
X145371865Y-82801271D01*
X145205543Y-82850427D01*
X145071550Y-82980367D01*
X144991364Y-83164792D01*
X144977967Y-83283531D01*
X144968148Y-83368720D01*
X144935669Y-83485467D01*
X144875994Y-83644201D01*
X144784585Y-83855349D01*
X144656908Y-84129342D01*
X144488426Y-84476607D01*
X144274603Y-84907574D01*
X144251291Y-84954197D01*
X143524616Y-86406779D01*
X143228834Y-86406779D01*
X143066775Y-86401006D01*
X142959340Y-86386114D01*
X142933051Y-86371696D01*
X142956673Y-86317099D01*
X143023732Y-86177994D01*
X143128517Y-85965625D01*
X143265319Y-85691233D01*
X143428425Y-85366063D01*
X143612127Y-85001355D01*
X143810713Y-84608353D01*
X144018473Y-84198301D01*
X144229697Y-83782439D01*
X144438674Y-83372012D01*
X144639693Y-82978262D01*
X144827045Y-82612432D01*
X144995018Y-82285764D01*
X145137902Y-82009502D01*
X145249987Y-81794887D01*
X145325563Y-81653163D01*
X145358917Y-81595572D01*
X145359039Y-81595437D01*
X145431963Y-81585351D01*
X145495729Y-81622344D01*
X145559043Y-81703591D01*
X145651911Y-81858956D01*
X145764487Y-82067881D01*
X145886924Y-82309808D01*
X146009376Y-82564181D01*
X146121998Y-82810440D01*
X146214943Y-83028029D01*
X146278365Y-83196390D01*
X146302417Y-83294964D01*
X146301558Y-83304821D01*
X146306830Y-83477416D01*
X146390818Y-83636708D01*
X146527861Y-83756157D01*
X146692298Y-83809226D01*
X146781698Y-83801385D01*
X146957283Y-83716274D01*
X147083218Y-83577817D01*
X147130509Y-83420282D01*
X147093476Y-83295619D01*
X146997419Y-83142497D01*
X146948712Y-83083947D01*
X146870288Y-82975424D01*
X146755146Y-82787719D01*
X146613317Y-82538595D01*
X146454831Y-82245815D01*
X146289718Y-81927141D01*
X146242293Y-81832948D01*
X145717672Y-80783905D01*
X145818792Y-80595236D01*
X145871379Y-80502073D01*
X145920350Y-80436477D01*
X145970828Y-80405269D01*
X146027934Y-80415271D01*
G37*
G36*
X146637096Y-84805076D02*
G01*
X148341314Y-84819279D01*
X148729158Y-85572669D01*
X148861841Y-85832577D01*
X148975282Y-86058931D01*
X149061000Y-86234475D01*
X149110513Y-86341950D01*
X149119307Y-86366419D01*
X149071772Y-86387906D01*
X148946101Y-86402545D01*
X148806078Y-86406779D01*
X148490546Y-86406779D01*
X148354021Y-86097351D01*
X148265157Y-85848346D01*
X148240184Y-85655599D01*
X148243294Y-85625689D01*
X148225528Y-85433388D01*
X148123446Y-85277177D01*
X147959958Y-85183865D01*
X147853086Y-85169067D01*
X147652273Y-85209860D01*
X147518855Y-85318928D01*
X147458605Y-85476307D01*
X147477297Y-85662032D01*
X147580702Y-85856138D01*
X147635889Y-85920188D01*
X147752662Y-86058868D01*
X147836289Y-86188439D01*
X147854769Y-86231885D01*
X147868373Y-86301676D01*
X147839487Y-86337724D01*
X147745017Y-86351115D01*
X147602559Y-86352966D01*
X147313966Y-86352966D01*
X147047106Y-85855190D01*
X146780246Y-85357415D01*
X146025638Y-85342557D01*
X145271030Y-85327699D01*
X145005564Y-85867239D01*
X144740098Y-86406779D01*
X144428524Y-86406779D01*
X144261609Y-86401655D01*
X144148533Y-86388376D01*
X144116950Y-86374067D01*
X144140794Y-86317762D01*
X144206722Y-86183061D01*
X144306327Y-85986614D01*
X144431198Y-85745075D01*
X144524914Y-85566114D01*
X144932877Y-84790872D01*
X146637096Y-84805076D01*
G37*
G36*
X147751188Y-80243605D02*
G01*
X147779638Y-80453974D01*
X147823164Y-80585689D01*
X147902340Y-80667581D01*
X148037739Y-80728482D01*
X148115779Y-80754563D01*
X148320753Y-80820610D01*
X148604521Y-80508357D01*
X148888290Y-80196105D01*
X149164099Y-80408963D01*
X149306606Y-80526911D01*
X149407053Y-80625228D01*
X149442200Y-80678885D01*
X149424878Y-80755491D01*
X149377396Y-80899362D01*
X149315854Y-81064191D01*
X149187217Y-81392435D01*
X149369082Y-81568706D01*
X149550948Y-81744977D01*
X149914775Y-81673451D01*
X150105543Y-81634693D01*
X150255631Y-81601898D01*
X150332416Y-81582205D01*
X150376247Y-81618320D01*
X150437925Y-81732006D01*
X150499289Y-81885683D01*
X150612349Y-82208880D01*
X150331314Y-82474672D01*
X150050278Y-82740464D01*
X150114426Y-83026482D01*
X150178575Y-83312500D01*
X150538017Y-83387848D01*
X150723530Y-83429338D01*
X150835701Y-83474770D01*
X150888661Y-83548284D01*
X150896540Y-83674016D01*
X150873468Y-83876104D01*
X150864056Y-83944777D01*
X150830653Y-84188474D01*
X150521473Y-84254086D01*
X150346225Y-84295161D01*
X150213770Y-84333313D01*
X150163645Y-84354235D01*
X150121814Y-84421378D01*
X150065459Y-84557853D01*
X150024928Y-84677310D01*
X149934860Y-84965849D01*
X150094659Y-85100311D01*
X150233860Y-85216470D01*
X150359271Y-85319629D01*
X150368854Y-85327405D01*
X150483250Y-85420037D01*
X150257840Y-85751968D01*
X150148309Y-85910661D01*
X150064774Y-86026804D01*
X150022849Y-86078793D01*
X150020983Y-86079696D01*
X149968435Y-86061332D01*
X149841414Y-86017132D01*
X149667118Y-85956560D01*
X149662305Y-85954888D01*
X149315076Y-85834282D01*
X148040726Y-83219029D01*
X146766375Y-80603776D01*
X146851127Y-80249557D01*
X146935880Y-79895339D01*
X147324886Y-79895339D01*
X147713892Y-79895339D01*
X147751188Y-80243605D01*
G37*
D11*
X137450000Y-74168000D02*
G75*
G03*
X137450000Y-74168000I-950000J0D01*
G01*
X141274000Y-92940000D02*
X128474000Y-92940000D01*
X128474000Y-92940000D02*
X128474000Y-80140000D01*
X128474000Y-80140000D02*
X141274000Y-80140000D01*
X141274000Y-80140000D02*
X141274000Y-92940000D01*
X147660400Y-74142600D02*
G75*
G03*
X147660400Y-74142600I-950000J0D01*
G01*
X107840000Y-58741000D02*
X107840000Y-79181000D01*
X107840000Y-79181000D02*
X113140000Y-79181000D01*
X109490000Y-58741000D02*
X107840000Y-58741000D01*
X113140000Y-58741000D02*
X111490000Y-58741000D01*
X113140000Y-79181000D02*
X113140000Y-58741000D01*
X109490000Y-58741000D02*
G75*
G03*
X111490000Y-58741000I1000000J0D01*
G01*
X145150000Y-78000000D02*
G75*
G03*
X145150000Y-78000000I-950000J0D01*
G01*
X109790000Y-54035000D02*
X109790000Y-52705000D01*
X111120000Y-54035000D02*
X109790000Y-54035000D01*
X112390000Y-54035000D02*
X114990000Y-54035000D01*
X112390000Y-54035000D02*
X112390000Y-51375000D01*
X114990000Y-54035000D02*
X114990000Y-51375000D01*
X112390000Y-51375000D02*
X114990000Y-51375000D01*
X110084000Y-90278748D02*
X110084000Y-90801252D01*
X108664000Y-90278748D02*
X108664000Y-90801252D01*
X101670000Y-64130000D02*
X103000000Y-64130000D01*
X101670000Y-65460000D02*
X101670000Y-64130000D01*
X101670000Y-66730000D02*
X101670000Y-69330000D01*
X101670000Y-66730000D02*
X104330000Y-66730000D01*
X101670000Y-69330000D02*
X104330000Y-69330000D01*
X104330000Y-66730000D02*
X104330000Y-69330000D01*
X117835000Y-56238748D02*
X117835000Y-56761252D01*
X116365000Y-56238748D02*
X116365000Y-56761252D01*
X115375000Y-80940113D02*
X115375000Y-81440113D01*
X115625000Y-81190113D02*
X115125000Y-81190113D01*
X116480000Y-83744888D02*
X111320000Y-83744888D01*
X116480000Y-83784888D02*
X111320000Y-83784888D01*
X116479000Y-83824888D02*
X111321000Y-83824888D01*
X116478000Y-83864888D02*
X111322000Y-83864888D01*
X116476000Y-83904888D02*
X111324000Y-83904888D01*
X116473000Y-83944888D02*
X111327000Y-83944888D01*
X116469000Y-83984888D02*
X114940000Y-83984888D01*
X112860000Y-83984888D02*
X111331000Y-83984888D01*
X116465000Y-84024888D02*
X114940000Y-84024888D01*
X112860000Y-84024888D02*
X111335000Y-84024888D01*
X116461000Y-84064888D02*
X114940000Y-84064888D01*
X112860000Y-84064888D02*
X111339000Y-84064888D01*
X116456000Y-84104888D02*
X114940000Y-84104888D01*
X112860000Y-84104888D02*
X111344000Y-84104888D01*
X116450000Y-84144888D02*
X114940000Y-84144888D01*
X112860000Y-84144888D02*
X111350000Y-84144888D01*
X116443000Y-84184888D02*
X114940000Y-84184888D01*
X112860000Y-84184888D02*
X111357000Y-84184888D01*
X116436000Y-84224888D02*
X114940000Y-84224888D01*
X112860000Y-84224888D02*
X111364000Y-84224888D01*
X116428000Y-84264888D02*
X114940000Y-84264888D01*
X112860000Y-84264888D02*
X111372000Y-84264888D01*
X116420000Y-84304888D02*
X114940000Y-84304888D01*
X112860000Y-84304888D02*
X111380000Y-84304888D01*
X116411000Y-84344888D02*
X114940000Y-84344888D01*
X112860000Y-84344888D02*
X111389000Y-84344888D01*
X116401000Y-84384888D02*
X114940000Y-84384888D01*
X112860000Y-84384888D02*
X111399000Y-84384888D01*
X116391000Y-84424888D02*
X114940000Y-84424888D01*
X112860000Y-84424888D02*
X111409000Y-84424888D01*
X116380000Y-84465888D02*
X114940000Y-84465888D01*
X112860000Y-84465888D02*
X111420000Y-84465888D01*
X116368000Y-84505888D02*
X114940000Y-84505888D01*
X112860000Y-84505888D02*
X111432000Y-84505888D01*
X116355000Y-84545888D02*
X114940000Y-84545888D01*
X112860000Y-84545888D02*
X111445000Y-84545888D01*
X116342000Y-84585888D02*
X114940000Y-84585888D01*
X112860000Y-84585888D02*
X111458000Y-84585888D01*
X116328000Y-84625888D02*
X114940000Y-84625888D01*
X112860000Y-84625888D02*
X111472000Y-84625888D01*
X116314000Y-84665888D02*
X114940000Y-84665888D01*
X112860000Y-84665888D02*
X111486000Y-84665888D01*
X116298000Y-84705888D02*
X114940000Y-84705888D01*
X112860000Y-84705888D02*
X111502000Y-84705888D01*
X116282000Y-84745888D02*
X114940000Y-84745888D01*
X112860000Y-84745888D02*
X111518000Y-84745888D01*
X116265000Y-84785888D02*
X114940000Y-84785888D01*
X112860000Y-84785888D02*
X111535000Y-84785888D01*
X116248000Y-84825888D02*
X114940000Y-84825888D01*
X112860000Y-84825888D02*
X111552000Y-84825888D01*
X116229000Y-84865888D02*
X114940000Y-84865888D01*
X112860000Y-84865888D02*
X111571000Y-84865888D01*
X116210000Y-84905888D02*
X114940000Y-84905888D01*
X112860000Y-84905888D02*
X111590000Y-84905888D01*
X116190000Y-84945888D02*
X114940000Y-84945888D01*
X112860000Y-84945888D02*
X111610000Y-84945888D01*
X116168000Y-84985888D02*
X114940000Y-84985888D01*
X112860000Y-84985888D02*
X111632000Y-84985888D01*
X116147000Y-85025888D02*
X114940000Y-85025888D01*
X112860000Y-85025888D02*
X111653000Y-85025888D01*
X116124000Y-85065888D02*
X114940000Y-85065888D01*
X112860000Y-85065888D02*
X111676000Y-85065888D01*
X116100000Y-85105888D02*
X114940000Y-85105888D01*
X112860000Y-85105888D02*
X111700000Y-85105888D01*
X116075000Y-85145888D02*
X114940000Y-85145888D01*
X112860000Y-85145888D02*
X111725000Y-85145888D01*
X116049000Y-85185888D02*
X114940000Y-85185888D01*
X112860000Y-85185888D02*
X111751000Y-85185888D01*
X116022000Y-85225888D02*
X114940000Y-85225888D01*
X112860000Y-85225888D02*
X111778000Y-85225888D01*
X115995000Y-85265888D02*
X114940000Y-85265888D01*
X112860000Y-85265888D02*
X111805000Y-85265888D01*
X115965000Y-85305888D02*
X114940000Y-85305888D01*
X112860000Y-85305888D02*
X111835000Y-85305888D01*
X115935000Y-85345888D02*
X114940000Y-85345888D01*
X112860000Y-85345888D02*
X111865000Y-85345888D01*
X115904000Y-85385888D02*
X114940000Y-85385888D01*
X112860000Y-85385888D02*
X111896000Y-85385888D01*
X115871000Y-85425888D02*
X114940000Y-85425888D01*
X112860000Y-85425888D02*
X111929000Y-85425888D01*
X115837000Y-85465888D02*
X114940000Y-85465888D01*
X112860000Y-85465888D02*
X111963000Y-85465888D01*
X115801000Y-85505888D02*
X114940000Y-85505888D01*
X112860000Y-85505888D02*
X111999000Y-85505888D01*
X115764000Y-85545888D02*
X114940000Y-85545888D01*
X112860000Y-85545888D02*
X112036000Y-85545888D01*
X115726000Y-85585888D02*
X114940000Y-85585888D01*
X112860000Y-85585888D02*
X112074000Y-85585888D01*
X115685000Y-85625888D02*
X114940000Y-85625888D01*
X112860000Y-85625888D02*
X112115000Y-85625888D01*
X115643000Y-85665888D02*
X114940000Y-85665888D01*
X112860000Y-85665888D02*
X112157000Y-85665888D01*
X115599000Y-85705888D02*
X114940000Y-85705888D01*
X112860000Y-85705888D02*
X112201000Y-85705888D01*
X115553000Y-85745888D02*
X114940000Y-85745888D01*
X112860000Y-85745888D02*
X112247000Y-85745888D01*
X115505000Y-85785888D02*
X114940000Y-85785888D01*
X112860000Y-85785888D02*
X112295000Y-85785888D01*
X115454000Y-85825888D02*
X114940000Y-85825888D01*
X112860000Y-85825888D02*
X112346000Y-85825888D01*
X115400000Y-85865888D02*
X114940000Y-85865888D01*
X112860000Y-85865888D02*
X112400000Y-85865888D01*
X115343000Y-85905888D02*
X114940000Y-85905888D01*
X112860000Y-85905888D02*
X112457000Y-85905888D01*
X115283000Y-85945888D02*
X114940000Y-85945888D01*
X112860000Y-85945888D02*
X112517000Y-85945888D01*
X115219000Y-85985888D02*
X114940000Y-85985888D01*
X112860000Y-85985888D02*
X112581000Y-85985888D01*
X115151000Y-86025888D02*
X114940000Y-86025888D01*
X112860000Y-86025888D02*
X112649000Y-86025888D01*
X115078000Y-86065888D02*
X112722000Y-86065888D01*
X114998000Y-86105888D02*
X112802000Y-86105888D01*
X114911000Y-86145888D02*
X112889000Y-86145888D01*
X114815000Y-86185888D02*
X112985000Y-86185888D01*
X114705000Y-86225888D02*
X113095000Y-86225888D01*
X114577000Y-86265888D02*
X113223000Y-86265888D01*
X114418000Y-86305888D02*
X113382000Y-86305888D01*
X114184000Y-86345888D02*
X113616000Y-86345888D01*
X116520000Y-83744888D02*
G75*
G03*
X116520000Y-83744888I-2620000J0D01*
G01*
X118788000Y-72250000D02*
X127298000Y-72250000D01*
X118788000Y-78750000D02*
X118788000Y-72250000D01*
X118788000Y-78750000D02*
X127298000Y-78750000D01*
X127925000Y-84040000D02*
X127925000Y-82240000D01*
X127925000Y-84040000D02*
X127925000Y-84840000D01*
X124805000Y-84040000D02*
X124805000Y-83240000D01*
X124805000Y-84040000D02*
X124805000Y-84840000D01*
X126135252Y-88275000D02*
X125612748Y-88275000D01*
X126135252Y-86805000D02*
X125612748Y-86805000D01*
X122977064Y-83135000D02*
X122522936Y-83135000D01*
X122977064Y-81665000D02*
X122522936Y-81665000D01*
X140015000Y-77800000D02*
G75*
G03*
X140015000Y-77800000I-950000J0D01*
G01*
X117345000Y-71494000D02*
X120015000Y-71494000D01*
X122555000Y-71494000D02*
X160785000Y-71494000D01*
X160785000Y-71494000D02*
X160785000Y-66414000D01*
X120015000Y-68824000D02*
X120015000Y-71494000D01*
X122555000Y-68824000D02*
X122555000Y-71494000D01*
X122555000Y-68824000D02*
X120015000Y-68824000D01*
X122555000Y-68824000D02*
X158115000Y-68824000D01*
X158115000Y-68824000D02*
X158115000Y-71494000D01*
X152905000Y-66414000D02*
X152905000Y-58534000D01*
X163325000Y-66414000D02*
X152905000Y-66414000D01*
X152905000Y-58534000D02*
X163325000Y-58534000D01*
X163325000Y-58534000D02*
X163325000Y-66414000D01*
X120015000Y-56124000D02*
X158115000Y-56124000D01*
X120015000Y-56124000D02*
X120015000Y-53454000D01*
X158115000Y-56124000D02*
X158115000Y-53454000D01*
X117345000Y-53454000D02*
X117345000Y-71494000D01*
X160785000Y-53454000D02*
X160785000Y-58534000D01*
X160785000Y-53454000D02*
X117345000Y-53454000D01*
X118644936Y-79529000D02*
X119099064Y-79529000D01*
X118644936Y-80999000D02*
X119099064Y-80999000D01*
X160950000Y-77230000D02*
G75*
G03*
X160950000Y-77230000I-950000J0D01*
G01*
X123023752Y-81035000D02*
X122501248Y-81035000D01*
X123023752Y-79565000D02*
X122501248Y-79565000D01*
X112399000Y-92799888D02*
X112399000Y-92299888D01*
X112149000Y-92549888D02*
X112649000Y-92549888D01*
X111294000Y-89995113D02*
X116454000Y-89995113D01*
X111294000Y-89955113D02*
X116454000Y-89955113D01*
X111295000Y-89915113D02*
X116453000Y-89915113D01*
X111296000Y-89875113D02*
X116452000Y-89875113D01*
X111298000Y-89835113D02*
X116450000Y-89835113D01*
X111301000Y-89795113D02*
X116447000Y-89795113D01*
X111305000Y-89755113D02*
X112834000Y-89755113D01*
X114914000Y-89755113D02*
X116443000Y-89755113D01*
X111309000Y-89715113D02*
X112834000Y-89715113D01*
X114914000Y-89715113D02*
X116439000Y-89715113D01*
X111313000Y-89675113D02*
X112834000Y-89675113D01*
X114914000Y-89675113D02*
X116435000Y-89675113D01*
X111318000Y-89635113D02*
X112834000Y-89635113D01*
X114914000Y-89635113D02*
X116430000Y-89635113D01*
X111324000Y-89595113D02*
X112834000Y-89595113D01*
X114914000Y-89595113D02*
X116424000Y-89595113D01*
X111331000Y-89555113D02*
X112834000Y-89555113D01*
X114914000Y-89555113D02*
X116417000Y-89555113D01*
X111338000Y-89515113D02*
X112834000Y-89515113D01*
X114914000Y-89515113D02*
X116410000Y-89515113D01*
X111346000Y-89475113D02*
X112834000Y-89475113D01*
X114914000Y-89475113D02*
X116402000Y-89475113D01*
X111354000Y-89435113D02*
X112834000Y-89435113D01*
X114914000Y-89435113D02*
X116394000Y-89435113D01*
X111363000Y-89395113D02*
X112834000Y-89395113D01*
X114914000Y-89395113D02*
X116385000Y-89395113D01*
X111373000Y-89355113D02*
X112834000Y-89355113D01*
X114914000Y-89355113D02*
X116375000Y-89355113D01*
X111383000Y-89315113D02*
X112834000Y-89315113D01*
X114914000Y-89315113D02*
X116365000Y-89315113D01*
X111394000Y-89274113D02*
X112834000Y-89274113D01*
X114914000Y-89274113D02*
X116354000Y-89274113D01*
X111406000Y-89234113D02*
X112834000Y-89234113D01*
X114914000Y-89234113D02*
X116342000Y-89234113D01*
X111419000Y-89194113D02*
X112834000Y-89194113D01*
X114914000Y-89194113D02*
X116329000Y-89194113D01*
X111432000Y-89154113D02*
X112834000Y-89154113D01*
X114914000Y-89154113D02*
X116316000Y-89154113D01*
X111446000Y-89114113D02*
X112834000Y-89114113D01*
X114914000Y-89114113D02*
X116302000Y-89114113D01*
X111460000Y-89074113D02*
X112834000Y-89074113D01*
X114914000Y-89074113D02*
X116288000Y-89074113D01*
X111476000Y-89034113D02*
X112834000Y-89034113D01*
X114914000Y-89034113D02*
X116272000Y-89034113D01*
X111492000Y-88994113D02*
X112834000Y-88994113D01*
X114914000Y-88994113D02*
X116256000Y-88994113D01*
X111509000Y-88954113D02*
X112834000Y-88954113D01*
X114914000Y-88954113D02*
X116239000Y-88954113D01*
X111526000Y-88914113D02*
X112834000Y-88914113D01*
X114914000Y-88914113D02*
X116222000Y-88914113D01*
X111545000Y-88874113D02*
X112834000Y-88874113D01*
X114914000Y-88874113D02*
X116203000Y-88874113D01*
X111564000Y-88834113D02*
X112834000Y-88834113D01*
X114914000Y-88834113D02*
X116184000Y-88834113D01*
X111584000Y-88794113D02*
X112834000Y-88794113D01*
X114914000Y-88794113D02*
X116164000Y-88794113D01*
X111606000Y-88754113D02*
X112834000Y-88754113D01*
X114914000Y-88754113D02*
X116142000Y-88754113D01*
X111627000Y-88714113D02*
X112834000Y-88714113D01*
X114914000Y-88714113D02*
X116121000Y-88714113D01*
X111650000Y-88674113D02*
X112834000Y-88674113D01*
X114914000Y-88674113D02*
X116098000Y-88674113D01*
X111674000Y-88634113D02*
X112834000Y-88634113D01*
X114914000Y-88634113D02*
X116074000Y-88634113D01*
X111699000Y-88594113D02*
X112834000Y-88594113D01*
X114914000Y-88594113D02*
X116049000Y-88594113D01*
X111725000Y-88554113D02*
X112834000Y-88554113D01*
X114914000Y-88554113D02*
X116023000Y-88554113D01*
X111752000Y-88514113D02*
X112834000Y-88514113D01*
X114914000Y-88514113D02*
X115996000Y-88514113D01*
X111779000Y-88474113D02*
X112834000Y-88474113D01*
X114914000Y-88474113D02*
X115969000Y-88474113D01*
X111809000Y-88434113D02*
X112834000Y-88434113D01*
X114914000Y-88434113D02*
X115939000Y-88434113D01*
X111839000Y-88394113D02*
X112834000Y-88394113D01*
X114914000Y-88394113D02*
X115909000Y-88394113D01*
X111870000Y-88354113D02*
X112834000Y-88354113D01*
X114914000Y-88354113D02*
X115878000Y-88354113D01*
X111903000Y-88314113D02*
X112834000Y-88314113D01*
X114914000Y-88314113D02*
X115845000Y-88314113D01*
X111937000Y-88274113D02*
X112834000Y-88274113D01*
X114914000Y-88274113D02*
X115811000Y-88274113D01*
X111973000Y-88234113D02*
X112834000Y-88234113D01*
X114914000Y-88234113D02*
X115775000Y-88234113D01*
X112010000Y-88194113D02*
X112834000Y-88194113D01*
X114914000Y-88194113D02*
X115738000Y-88194113D01*
X112048000Y-88154113D02*
X112834000Y-88154113D01*
X114914000Y-88154113D02*
X115700000Y-88154113D01*
X112089000Y-88114113D02*
X112834000Y-88114113D01*
X114914000Y-88114113D02*
X115659000Y-88114113D01*
X112131000Y-88074113D02*
X112834000Y-88074113D01*
X114914000Y-88074113D02*
X115617000Y-88074113D01*
X112175000Y-88034113D02*
X112834000Y-88034113D01*
X114914000Y-88034113D02*
X115573000Y-88034113D01*
X112221000Y-87994113D02*
X112834000Y-87994113D01*
X114914000Y-87994113D02*
X115527000Y-87994113D01*
X112269000Y-87954113D02*
X112834000Y-87954113D01*
X114914000Y-87954113D02*
X115479000Y-87954113D01*
X112320000Y-87914113D02*
X112834000Y-87914113D01*
X114914000Y-87914113D02*
X115428000Y-87914113D01*
X112374000Y-87874113D02*
X112834000Y-87874113D01*
X114914000Y-87874113D02*
X115374000Y-87874113D01*
X112431000Y-87834113D02*
X112834000Y-87834113D01*
X114914000Y-87834113D02*
X115317000Y-87834113D01*
X112491000Y-87794113D02*
X112834000Y-87794113D01*
X114914000Y-87794113D02*
X115257000Y-87794113D01*
X112555000Y-87754113D02*
X112834000Y-87754113D01*
X114914000Y-87754113D02*
X115193000Y-87754113D01*
X112623000Y-87714113D02*
X112834000Y-87714113D01*
X114914000Y-87714113D02*
X115125000Y-87714113D01*
X112696000Y-87674113D02*
X115052000Y-87674113D01*
X112776000Y-87634113D02*
X114972000Y-87634113D01*
X112863000Y-87594113D02*
X114885000Y-87594113D01*
X112959000Y-87554113D02*
X114789000Y-87554113D01*
X113069000Y-87514113D02*
X114679000Y-87514113D01*
X113197000Y-87474113D02*
X114551000Y-87474113D01*
X113356000Y-87434113D02*
X114392000Y-87434113D01*
X113590000Y-87394113D02*
X114158000Y-87394113D01*
X116494000Y-89995113D02*
G75*
G03*
X116494000Y-89995113I-2620000J0D01*
G01*
X153670000Y-75550000D02*
X155000000Y-75550000D01*
X153670000Y-76880000D02*
X153670000Y-75550000D01*
X153670000Y-78150000D02*
X153670000Y-90910000D01*
X153670000Y-78150000D02*
X156330000Y-78150000D01*
X153670000Y-90910000D02*
X156330000Y-90910000D01*
X156330000Y-78150000D02*
X156330000Y-90910000D01*
X108304000Y-80940000D02*
X100484000Y-80940000D01*
X106704000Y-80940000D02*
X106704000Y-81860000D01*
X100484000Y-80940000D02*
X100484000Y-87060000D01*
X104344000Y-81700000D02*
X102744000Y-81700000D01*
X102744000Y-81700000D02*
X102744000Y-82700000D01*
X108304000Y-81860000D02*
X108304000Y-80940000D01*
X106704000Y-81860000D02*
X108304000Y-81860000D01*
X106704000Y-82140000D02*
X106704000Y-81860000D01*
X106704000Y-82140000D02*
X107919000Y-82140000D01*
X102744000Y-82200000D02*
X100484000Y-82200000D01*
X104344000Y-82700000D02*
X104344000Y-81700000D01*
X102744000Y-82700000D02*
X104344000Y-82700000D01*
X102744000Y-82700000D02*
X100484000Y-82700000D01*
X104844000Y-83500000D02*
X104844000Y-84500000D01*
X100484000Y-83500000D02*
X104844000Y-83500000D01*
X104844000Y-84500000D02*
X100484000Y-84500000D01*
X104344000Y-85300000D02*
X104344000Y-86300000D01*
X102744000Y-85300000D02*
X104344000Y-85300000D01*
X108304000Y-86140000D02*
X106704000Y-86140000D01*
X106704000Y-86140000D02*
X106704000Y-85860000D01*
X104344000Y-86300000D02*
X102744000Y-86300000D01*
X102744000Y-86300000D02*
X102744000Y-85300000D01*
X108304000Y-87060000D02*
X108304000Y-86140000D01*
X106704000Y-87060000D02*
X106704000Y-86140000D01*
X100484000Y-87060000D02*
X108304000Y-87060000D01*
X118610748Y-81688000D02*
X119133252Y-81688000D01*
X118610748Y-83158000D02*
X119133252Y-83158000D01*
X158950000Y-73730000D02*
G75*
G03*
X158950000Y-73730000I-950000J0D01*
G01*
X142580400Y-74193400D02*
G75*
G03*
X142580400Y-74193400I-950000J0D01*
G01*
X117150000Y-93410000D02*
X117150000Y-84900000D01*
X123650000Y-93410000D02*
X117150000Y-93410000D01*
X123650000Y-93410000D02*
X123650000Y-84900000D01*
X135950000Y-77900000D02*
G75*
G03*
X135950000Y-77900000I-950000J0D01*
G01*
%LPC*%
D12*
X136500000Y-74168000D03*
D13*
X134874000Y-91440000D03*
X134874000Y-81640000D03*
D12*
X146710400Y-74142600D03*
D14*
X106679999Y-60070999D03*
D15*
X106679999Y-62610999D03*
X106679999Y-65150999D03*
X106679999Y-67690999D03*
X106679999Y-70230999D03*
X106679999Y-72770999D03*
X106679999Y-75310999D03*
X106679999Y-77850999D03*
X114299999Y-77850999D03*
X114299999Y-75310999D03*
X114299999Y-72770999D03*
X114299999Y-70230999D03*
X114299999Y-67690999D03*
X114299999Y-65150999D03*
X114299999Y-62610999D03*
X114299999Y-60070999D03*
D12*
X144200000Y-78000000D03*
D16*
X111119999Y-52704999D03*
D17*
X113659999Y-52704999D03*
D18*
X109374000Y-89515000D03*
X109374000Y-91565000D03*
D16*
X102999999Y-65459999D03*
D17*
X102999999Y-67999999D03*
D19*
X117100000Y-55462500D03*
X117100000Y-57537500D03*
D14*
X113899999Y-82494887D03*
D20*
X113900000Y-84994888D03*
D21*
X120298000Y-75500000D03*
X127098000Y-75500000D03*
D22*
X127315000Y-82902500D03*
X126365000Y-82902500D03*
X125415000Y-82902500D03*
X125415000Y-85177500D03*
X126365000Y-85177500D03*
X127315000Y-85177500D03*
D23*
X126911500Y-87540000D03*
X124836500Y-87540000D03*
D24*
X103000000Y-91000000D03*
D25*
X123750000Y-82400000D03*
X121750000Y-82400000D03*
D12*
X139065000Y-77800000D03*
D24*
X162000000Y-91000000D03*
D14*
X121284999Y-70093999D03*
D15*
X123824999Y-70093999D03*
X126364999Y-70093999D03*
X128904999Y-70093999D03*
X131444999Y-70093999D03*
X133984999Y-70093999D03*
X136524999Y-70093999D03*
X139064999Y-70093999D03*
X141604999Y-70093999D03*
X144144999Y-70093999D03*
X146684999Y-70093999D03*
X149224999Y-70093999D03*
X151764999Y-70093999D03*
X154304999Y-70093999D03*
X156844999Y-70093999D03*
X156844999Y-54853999D03*
X154304999Y-54853999D03*
X151764999Y-54853999D03*
X149224999Y-54853999D03*
X146684999Y-54853999D03*
X144144999Y-54853999D03*
X141604999Y-54853999D03*
X139064999Y-54853999D03*
X136524999Y-54853999D03*
X133984999Y-54853999D03*
X131444999Y-54853999D03*
X128904999Y-54853999D03*
X126364999Y-54853999D03*
X123824999Y-54853999D03*
X121284999Y-54853999D03*
D26*
X117872000Y-80264000D03*
X119872000Y-80264000D03*
D12*
X160000000Y-77230000D03*
D23*
X123800000Y-80300000D03*
X121725000Y-80300000D03*
D24*
X103000000Y-53000000D03*
X162000000Y-53000000D03*
D14*
X113873999Y-91245112D03*
D20*
X113874000Y-88745113D03*
D16*
X154999999Y-76879999D03*
D17*
X154999999Y-79419999D03*
X154999999Y-81959999D03*
X154999999Y-84499999D03*
X154999999Y-87039999D03*
X154999999Y-89579999D03*
D27*
X106844000Y-83000000D03*
D28*
X106843999Y-84999999D03*
D29*
X117834500Y-82423000D03*
X119909500Y-82423000D03*
D12*
X158000000Y-73730000D03*
X141630400Y-74193400D03*
D30*
X120400000Y-91900000D03*
X120400000Y-85100000D03*
D12*
X135000000Y-77900000D03*
M02*
