G04 #@! TF.GenerationSoftware,KiCad,Pcbnew,(7.0.0)*
G04 #@! TF.CreationDate,2023-02-16T13:39:53+01:00*
G04 #@! TF.ProjectId,Sumo,53756d6f-2e6b-4696-9361-645f70636258,rev?*
G04 #@! TF.SameCoordinates,Original*
G04 #@! TF.FileFunction,Copper,L2,Bot*
G04 #@! TF.FilePolarity,Positive*
%FSLAX46Y46*%
G04 Gerber Fmt 4.6, Leading zero omitted, Abs format (unit mm)*
G04 Created by KiCad (PCBNEW (7.0.0)) date 2023-02-16 13:39:53*
%MOMM*%
%LPD*%
G01*
G04 APERTURE LIST*
G04 Aperture macros list*
%AMRoundRect*
0 Rectangle with rounded corners*
0 $1 Rounding radius*
0 $2 $3 $4 $5 $6 $7 $8 $9 X,Y pos of 4 corners*
0 Add a 4 corners polygon primitive as box body*
4,1,4,$2,$3,$4,$5,$6,$7,$8,$9,$2,$3,0*
0 Add four circle primitives for the rounded corners*
1,1,$1+$1,$2,$3*
1,1,$1+$1,$4,$5*
1,1,$1+$1,$6,$7*
1,1,$1+$1,$8,$9*
0 Add four rect primitives between the rounded corners*
20,1,$1+$1,$2,$3,$4,$5,0*
20,1,$1+$1,$4,$5,$6,$7,0*
20,1,$1+$1,$6,$7,$8,$9,0*
20,1,$1+$1,$8,$9,$2,$3,0*%
G04 Aperture macros list end*
G04 #@! TA.AperFunction,ComponentPad*
%ADD10R,1.600000X1.600000*%
G04 #@! TD*
G04 #@! TA.AperFunction,ComponentPad*
%ADD11O,1.600000X1.600000*%
G04 #@! TD*
G04 #@! TA.AperFunction,ComponentPad*
%ADD12R,1.700000X1.700000*%
G04 #@! TD*
G04 #@! TA.AperFunction,ComponentPad*
%ADD13O,1.700000X1.700000*%
G04 #@! TD*
G04 #@! TA.AperFunction,ComponentPad*
%ADD14C,1.600000*%
G04 #@! TD*
G04 #@! TA.AperFunction,ComponentPad*
%ADD15C,5.600000*%
G04 #@! TD*
G04 #@! TA.AperFunction,ComponentPad*
%ADD16RoundRect,0.250000X-0.625000X0.350000X-0.625000X-0.350000X0.625000X-0.350000X0.625000X0.350000X0*%
G04 #@! TD*
G04 #@! TA.AperFunction,ComponentPad*
%ADD17O,1.750000X1.200000*%
G04 #@! TD*
G04 #@! TA.AperFunction,ViaPad*
%ADD18C,0.800000*%
G04 #@! TD*
G04 #@! TA.AperFunction,Conductor*
%ADD19C,0.500000*%
G04 #@! TD*
G04 #@! TA.AperFunction,Conductor*
%ADD20C,0.250000*%
G04 #@! TD*
G04 APERTURE END LIST*
D10*
X106679999Y-60070999D03*
D11*
X106679999Y-62610999D03*
X106679999Y-65150999D03*
X106679999Y-67690999D03*
X106679999Y-70230999D03*
X106679999Y-72770999D03*
X106679999Y-75310999D03*
X106679999Y-77850999D03*
X114299999Y-77850999D03*
X114299999Y-75310999D03*
X114299999Y-72770999D03*
X114299999Y-70230999D03*
X114299999Y-67690999D03*
X114299999Y-65150999D03*
X114299999Y-62610999D03*
X114299999Y-60070999D03*
D12*
X111119999Y-52704999D03*
D13*
X113659999Y-52704999D03*
D12*
X102999999Y-65459999D03*
D13*
X102999999Y-67999999D03*
D10*
X113899999Y-82494887D03*
D14*
X113900000Y-84994888D03*
D15*
X103000000Y-91000000D03*
X162000000Y-91000000D03*
D10*
X121284999Y-70093999D03*
D11*
X123824999Y-70093999D03*
X126364999Y-70093999D03*
X128904999Y-70093999D03*
X131444999Y-70093999D03*
X133984999Y-70093999D03*
X136524999Y-70093999D03*
X139064999Y-70093999D03*
X141604999Y-70093999D03*
X144144999Y-70093999D03*
X146684999Y-70093999D03*
X149224999Y-70093999D03*
X151764999Y-70093999D03*
X154304999Y-70093999D03*
X156844999Y-70093999D03*
X156844999Y-54853999D03*
X154304999Y-54853999D03*
X151764999Y-54853999D03*
X149224999Y-54853999D03*
X146684999Y-54853999D03*
X144144999Y-54853999D03*
X141604999Y-54853999D03*
X139064999Y-54853999D03*
X136524999Y-54853999D03*
X133984999Y-54853999D03*
X131444999Y-54853999D03*
X128904999Y-54853999D03*
X126364999Y-54853999D03*
X123824999Y-54853999D03*
X121284999Y-54853999D03*
D15*
X103000000Y-53000000D03*
X162000000Y-53000000D03*
D10*
X113873999Y-91245112D03*
D14*
X113874000Y-88745113D03*
D12*
X154999999Y-76879999D03*
D13*
X154999999Y-79419999D03*
X154999999Y-81959999D03*
X154999999Y-84499999D03*
X154999999Y-87039999D03*
X154999999Y-89579999D03*
D16*
X106844000Y-83000000D03*
D17*
X106843999Y-84999999D03*
D18*
X115835715Y-53850000D03*
X135835715Y-57850000D03*
X155835715Y-57850000D03*
X155835715Y-73850000D03*
X163835715Y-57850000D03*
X159835715Y-65850000D03*
X143835715Y-89850000D03*
X147835715Y-89850000D03*
X126111000Y-81153000D03*
X111835715Y-77850000D03*
X163835715Y-85850000D03*
X139835715Y-89850000D03*
X143835715Y-81850000D03*
X107835715Y-53850000D03*
X115835715Y-85850000D03*
X143835715Y-57850000D03*
X151835715Y-85850000D03*
X163835715Y-81850000D03*
X159835715Y-57850000D03*
X147835715Y-65850000D03*
X103835715Y-61850000D03*
X159835715Y-61850000D03*
X151835715Y-73850000D03*
X139835715Y-81850000D03*
X147835715Y-57850000D03*
X155835715Y-61850000D03*
X103835715Y-73850000D03*
X147835715Y-61850000D03*
X131835715Y-77850000D03*
X111835715Y-85850000D03*
X139835715Y-57850000D03*
X155835715Y-65850000D03*
X103835715Y-77850000D03*
X151835715Y-81850000D03*
X126111000Y-79883000D03*
X147835715Y-77850000D03*
X103835715Y-85850000D03*
X147835715Y-85850000D03*
X103835715Y-81850000D03*
X103835715Y-57850000D03*
X151835715Y-57850000D03*
X151835715Y-61850000D03*
X151835715Y-77850000D03*
X151835715Y-65850000D03*
X159835715Y-69850000D03*
X143835715Y-85850000D03*
X147835715Y-81850000D03*
X151835715Y-89850000D03*
X111835715Y-69850000D03*
X128651000Y-63881000D03*
X133985000Y-58928000D03*
X136525000Y-66548000D03*
X142417800Y-62636400D03*
D19*
X127117000Y-51562000D02*
X160562000Y-51562000D01*
X155000000Y-84500000D02*
X159049000Y-84500000D01*
X159049000Y-84500000D02*
X162000000Y-87451000D01*
X123825000Y-54854000D02*
X127117000Y-51562000D01*
X162000000Y-87451000D02*
X162000000Y-91000000D01*
D20*
X112542000Y-63881000D02*
X112532000Y-63891000D01*
X106680000Y-62611000D02*
X111252000Y-62611000D01*
X128651000Y-63881000D02*
X112542000Y-63881000D01*
X111252000Y-62611000D02*
X112532000Y-63891000D01*
X132588000Y-57531000D02*
X133985000Y-58928000D01*
X106680000Y-59690000D02*
X108839000Y-57531000D01*
X108839000Y-57531000D02*
X132588000Y-57531000D01*
X110236000Y-73533000D02*
X110236000Y-68072000D01*
X110236000Y-68072000D02*
X111887000Y-66421000D01*
X136398000Y-66421000D02*
X136525000Y-66548000D01*
X108458000Y-75311000D02*
X110236000Y-73533000D01*
X111887000Y-66421000D02*
X136398000Y-66421000D01*
X106680000Y-75311000D02*
X108458000Y-75311000D01*
X138049000Y-72263000D02*
X139065000Y-71247000D01*
X139065000Y-71247000D02*
X139065000Y-70094000D01*
X117126000Y-73628000D02*
X118491000Y-72263000D01*
X114300000Y-77851000D02*
X116396000Y-77851000D01*
X116396000Y-77851000D02*
X117126000Y-77121000D01*
X117126000Y-77121000D02*
X117126000Y-73628000D01*
X118491000Y-72263000D02*
X138049000Y-72263000D01*
X116332000Y-74676000D02*
X116332000Y-70104000D01*
X114300000Y-75311000D02*
X115697000Y-75311000D01*
X115697000Y-75311000D02*
X116332000Y-74676000D01*
X118237000Y-68199000D02*
X145923000Y-68199000D01*
X116332000Y-70104000D02*
X118237000Y-68199000D01*
X145923000Y-68199000D02*
X146685000Y-68961000D01*
X146685000Y-68961000D02*
X146685000Y-70094000D01*
X114300000Y-62611000D02*
X142392400Y-62611000D01*
X142392400Y-62611000D02*
X142417800Y-62636400D01*
G04 #@! TA.AperFunction,Conductor*
G36*
X162496496Y-50000110D02*
G01*
X162563611Y-50002935D01*
X162574127Y-50003823D01*
X162640745Y-50012276D01*
X162645946Y-50013047D01*
X162660517Y-50015523D01*
X162663912Y-50016150D01*
X162699106Y-50023150D01*
X162707096Y-50025013D01*
X162845611Y-50062128D01*
X162847805Y-50062738D01*
X162985177Y-50102314D01*
X162988562Y-50103341D01*
X163009001Y-50109856D01*
X163015872Y-50112267D01*
X163154713Y-50165563D01*
X163157606Y-50166717D01*
X163298190Y-50224948D01*
X163301354Y-50226312D01*
X163306841Y-50228767D01*
X163312540Y-50231491D01*
X163450064Y-50301564D01*
X163453770Y-50303532D01*
X163491271Y-50324258D01*
X163589470Y-50378531D01*
X163597145Y-50383136D01*
X163728725Y-50468585D01*
X163732988Y-50471480D01*
X163859090Y-50560955D01*
X163865471Y-50565794D01*
X163987542Y-50664645D01*
X163992182Y-50668593D01*
X164107393Y-50771552D01*
X164112528Y-50776408D01*
X164223590Y-50887470D01*
X164228446Y-50892605D01*
X164331395Y-51007804D01*
X164335365Y-51012470D01*
X164434204Y-51134527D01*
X164439043Y-51140908D01*
X164528509Y-51266997D01*
X164531422Y-51271286D01*
X164616862Y-51402853D01*
X164621467Y-51410528D01*
X164696456Y-51546209D01*
X164698445Y-51549955D01*
X164768496Y-51687437D01*
X164771241Y-51693178D01*
X164773676Y-51698620D01*
X164775073Y-51701864D01*
X164833251Y-51842319D01*
X164834473Y-51845383D01*
X164889212Y-51987985D01*
X164894788Y-52006757D01*
X164899912Y-52030687D01*
X164902380Y-52048027D01*
X164904390Y-52075963D01*
X164904715Y-52084720D01*
X164992950Y-91084096D01*
X164992939Y-91086055D01*
X164992565Y-91114211D01*
X164992452Y-91118133D01*
X164991198Y-91146339D01*
X164991095Y-91148295D01*
X164982222Y-91296060D01*
X164981941Y-91299816D01*
X164977222Y-91352185D01*
X164975984Y-91361783D01*
X164953224Y-91497056D01*
X164952946Y-91498644D01*
X164925559Y-91649586D01*
X164924830Y-91653285D01*
X164917145Y-91689446D01*
X164915073Y-91697788D01*
X164874650Y-91839623D01*
X164873885Y-91842201D01*
X164827175Y-91993750D01*
X164826012Y-91997332D01*
X164819376Y-92016777D01*
X164816735Y-92023822D01*
X164758144Y-92166931D01*
X164756666Y-92170392D01*
X164688454Y-92323769D01*
X164686875Y-92327182D01*
X164685712Y-92329600D01*
X164682766Y-92335344D01*
X164605208Y-92477466D01*
X164602809Y-92481668D01*
X164516636Y-92626096D01*
X164511671Y-92633770D01*
X164417863Y-92767844D01*
X164414360Y-92772608D01*
X164311998Y-92905199D01*
X164306869Y-92911421D01*
X164198595Y-93034510D01*
X164193835Y-93039627D01*
X164076514Y-93158953D01*
X164071478Y-93163799D01*
X163950256Y-93274129D01*
X163944122Y-93279363D01*
X163813252Y-93383983D01*
X163808547Y-93387567D01*
X163676103Y-93483616D01*
X163668515Y-93488709D01*
X163525559Y-93577323D01*
X163521398Y-93579793D01*
X163380634Y-93659734D01*
X163374946Y-93662774D01*
X163372532Y-93663986D01*
X163369142Y-93665626D01*
X163216935Y-93736431D01*
X163213498Y-93737967D01*
X163071415Y-93798968D01*
X163064420Y-93801727D01*
X163045082Y-93808695D01*
X163041516Y-93809920D01*
X162890777Y-93859192D01*
X162888213Y-93860000D01*
X162747096Y-93902817D01*
X162738786Y-93905032D01*
X162702748Y-93913330D01*
X162699068Y-93914120D01*
X162548575Y-93944069D01*
X162546991Y-93944373D01*
X162412151Y-93969417D01*
X162402575Y-93970818D01*
X162350338Y-93976419D01*
X162346592Y-93976764D01*
X162170809Y-93990318D01*
X162170272Y-93990358D01*
X162066962Y-93997880D01*
X162065088Y-93998003D01*
X162053246Y-93998688D01*
X162048400Y-93998875D01*
X162039941Y-93999038D01*
X162039532Y-93999046D01*
X162037105Y-93999069D01*
X103003293Y-93999498D01*
X102996697Y-93999325D01*
X102866760Y-93992515D01*
X102866291Y-93992490D01*
X102721940Y-93984384D01*
X102718413Y-93984136D01*
X102669087Y-93979975D01*
X102659968Y-93978870D01*
X102525063Y-93957504D01*
X102523667Y-93957275D01*
X102389540Y-93934486D01*
X102386064Y-93933845D01*
X102350899Y-93926850D01*
X102342870Y-93924978D01*
X102299399Y-93913330D01*
X102204457Y-93887890D01*
X102202187Y-93887259D01*
X102064841Y-93847691D01*
X102061455Y-93846663D01*
X102040998Y-93840142D01*
X102034112Y-93837725D01*
X101895393Y-93784477D01*
X101892328Y-93783255D01*
X101751864Y-93725073D01*
X101748620Y-93723676D01*
X101743178Y-93721241D01*
X101737437Y-93718496D01*
X101599955Y-93648445D01*
X101596209Y-93646456D01*
X101460528Y-93571467D01*
X101452853Y-93566862D01*
X101321286Y-93481422D01*
X101316997Y-93478509D01*
X101190908Y-93389043D01*
X101184527Y-93384204D01*
X101062470Y-93285365D01*
X101057804Y-93281395D01*
X101055530Y-93279363D01*
X100942605Y-93178446D01*
X100937470Y-93173590D01*
X100826408Y-93062528D01*
X100821552Y-93057393D01*
X100718603Y-92942194D01*
X100714645Y-92937542D01*
X100615794Y-92815471D01*
X100610955Y-92809090D01*
X100521489Y-92683001D01*
X100518576Y-92678712D01*
X100433136Y-92547145D01*
X100428531Y-92539470D01*
X100353544Y-92403792D01*
X100351555Y-92400046D01*
X100337857Y-92373163D01*
X100286794Y-92272946D01*
X100278638Y-92252813D01*
X100277155Y-92247992D01*
X100272348Y-92224791D01*
X100270531Y-92208350D01*
X100269785Y-92196536D01*
X100267804Y-92071688D01*
X112673500Y-92071688D01*
X112673501Y-92076631D01*
X112674274Y-92081512D01*
X112674275Y-92081524D01*
X112686802Y-92160619D01*
X112688354Y-92170417D01*
X112715715Y-92224117D01*
X112727880Y-92247992D01*
X112745950Y-92283455D01*
X112835658Y-92373163D01*
X112844490Y-92377663D01*
X112895770Y-92403792D01*
X112948696Y-92430759D01*
X113042481Y-92445613D01*
X114705518Y-92445612D01*
X114799304Y-92430759D01*
X114912342Y-92373163D01*
X115002050Y-92283455D01*
X115059646Y-92170417D01*
X115074500Y-92076632D01*
X115074499Y-90413595D01*
X115059646Y-90319809D01*
X115002050Y-90206771D01*
X114912342Y-90117063D01*
X114903510Y-90112563D01*
X114903509Y-90112562D01*
X114808137Y-90063967D01*
X114808133Y-90063965D01*
X114799304Y-90059467D01*
X114789512Y-90057916D01*
X114710409Y-90045387D01*
X114710402Y-90045386D01*
X114705519Y-90044613D01*
X114700565Y-90044613D01*
X113047436Y-90044613D01*
X113047423Y-90044613D01*
X113042482Y-90044614D01*
X113037601Y-90045386D01*
X113037588Y-90045388D01*
X112958493Y-90057915D01*
X112958490Y-90057915D01*
X112948696Y-90059467D01*
X112939859Y-90063969D01*
X112939858Y-90063970D01*
X112844490Y-90112562D01*
X112844486Y-90112564D01*
X112835658Y-90117063D01*
X112828649Y-90124071D01*
X112828646Y-90124074D01*
X112752961Y-90199759D01*
X112752958Y-90199762D01*
X112745950Y-90206771D01*
X112741451Y-90215599D01*
X112741449Y-90215603D01*
X112692854Y-90310975D01*
X112692851Y-90310981D01*
X112688354Y-90319809D01*
X112686803Y-90329598D01*
X112686803Y-90329600D01*
X112674274Y-90408703D01*
X112674273Y-90408711D01*
X112673500Y-90413594D01*
X112673500Y-90418546D01*
X112673500Y-90418547D01*
X112673500Y-92071676D01*
X112673500Y-92071688D01*
X100267804Y-92071688D01*
X100267493Y-92052101D01*
X100228253Y-89580000D01*
X153744723Y-89580000D01*
X153745202Y-89585475D01*
X153763313Y-89792497D01*
X153763314Y-89792503D01*
X153763793Y-89797977D01*
X153765214Y-89803283D01*
X153765216Y-89803290D01*
X153812727Y-89980603D01*
X153820425Y-90009330D01*
X153822747Y-90014310D01*
X153822748Y-90014312D01*
X153843081Y-90057916D01*
X153912898Y-90207639D01*
X153916051Y-90212142D01*
X153916054Y-90212147D01*
X153918474Y-90215603D01*
X154038402Y-90386877D01*
X154193123Y-90541598D01*
X154372361Y-90667102D01*
X154570670Y-90759575D01*
X154782023Y-90816207D01*
X155000000Y-90835277D01*
X155217977Y-90816207D01*
X155429330Y-90759575D01*
X155627639Y-90667102D01*
X155806877Y-90541598D01*
X155961598Y-90386877D01*
X156087102Y-90207639D01*
X156179575Y-90009330D01*
X156236207Y-89797977D01*
X156255277Y-89580000D01*
X156236207Y-89362023D01*
X156179575Y-89150670D01*
X156087102Y-88952362D01*
X155961598Y-88773123D01*
X155806877Y-88618402D01*
X155736471Y-88569103D01*
X155632147Y-88496054D01*
X155632142Y-88496051D01*
X155627639Y-88492898D01*
X155480302Y-88424194D01*
X155427287Y-88377700D01*
X155407554Y-88310000D01*
X155427287Y-88242300D01*
X155480302Y-88195805D01*
X155627639Y-88127102D01*
X155806877Y-88001598D01*
X155961598Y-87846877D01*
X156087102Y-87667639D01*
X156179575Y-87469330D01*
X156236207Y-87257977D01*
X156255277Y-87040000D01*
X156236207Y-86822023D01*
X156179575Y-86610670D01*
X156087102Y-86412362D01*
X155961598Y-86233123D01*
X155806877Y-86078402D01*
X155629516Y-85954212D01*
X155588540Y-85906235D01*
X155575961Y-85844406D01*
X155594934Y-85784230D01*
X155640702Y-85740798D01*
X155701788Y-85725000D01*
X156320410Y-85725000D01*
X156337000Y-85725000D01*
X156337000Y-83312000D01*
X155627913Y-83312000D01*
X155563018Y-83294003D01*
X155516662Y-83245153D01*
X155502086Y-83179406D01*
X155523454Y-83115542D01*
X155574663Y-83071805D01*
X155627639Y-83047102D01*
X155806877Y-82921598D01*
X155961598Y-82766877D01*
X156087102Y-82587639D01*
X156179575Y-82389330D01*
X156236207Y-82177977D01*
X156255277Y-81960000D01*
X156236207Y-81742023D01*
X156179575Y-81530670D01*
X156087102Y-81332362D01*
X156061055Y-81295163D01*
X155964757Y-81157634D01*
X155964754Y-81157631D01*
X155961598Y-81153123D01*
X155806877Y-80998402D01*
X155736471Y-80949103D01*
X155632147Y-80876054D01*
X155632142Y-80876051D01*
X155627639Y-80872898D01*
X155480302Y-80804194D01*
X155427287Y-80757700D01*
X155407554Y-80690000D01*
X155427287Y-80622300D01*
X155480302Y-80575805D01*
X155627639Y-80507102D01*
X155806877Y-80381598D01*
X155961598Y-80226877D01*
X156087102Y-80047639D01*
X156179575Y-79849330D01*
X156236207Y-79637977D01*
X156255277Y-79420000D01*
X156236207Y-79202023D01*
X156179575Y-78990670D01*
X156087102Y-78792362D01*
X155999436Y-78667161D01*
X155964757Y-78617634D01*
X155964754Y-78617631D01*
X155961598Y-78613123D01*
X155806877Y-78458402D01*
X155665932Y-78359711D01*
X155624956Y-78311734D01*
X155612377Y-78249905D01*
X155631350Y-78189729D01*
X155677118Y-78146297D01*
X155738203Y-78130499D01*
X155881518Y-78130499D01*
X155975304Y-78115646D01*
X156088342Y-78058050D01*
X156178050Y-77968342D01*
X156235646Y-77855304D01*
X156250500Y-77761519D01*
X156250499Y-75998482D01*
X156235646Y-75904696D01*
X156178050Y-75791658D01*
X156088342Y-75701950D01*
X156079510Y-75697450D01*
X156079509Y-75697449D01*
X155984137Y-75648854D01*
X155984133Y-75648852D01*
X155975304Y-75644354D01*
X155965512Y-75642803D01*
X155886409Y-75630274D01*
X155886402Y-75630273D01*
X155881519Y-75629500D01*
X155876565Y-75629500D01*
X154123436Y-75629500D01*
X154123423Y-75629500D01*
X154118482Y-75629501D01*
X154113601Y-75630273D01*
X154113588Y-75630275D01*
X154034493Y-75642802D01*
X154034490Y-75642802D01*
X154024696Y-75644354D01*
X154015859Y-75648856D01*
X154015858Y-75648857D01*
X153920490Y-75697449D01*
X153920486Y-75697451D01*
X153911658Y-75701950D01*
X153904649Y-75708958D01*
X153904646Y-75708961D01*
X153828961Y-75784646D01*
X153828958Y-75784649D01*
X153821950Y-75791658D01*
X153817451Y-75800486D01*
X153817449Y-75800490D01*
X153768854Y-75895862D01*
X153768851Y-75895868D01*
X153764354Y-75904696D01*
X153762803Y-75914485D01*
X153762803Y-75914487D01*
X153750274Y-75993590D01*
X153750273Y-75993598D01*
X153749500Y-75998481D01*
X153749500Y-76003433D01*
X153749500Y-76003434D01*
X153749500Y-77756563D01*
X153749500Y-77756575D01*
X153749501Y-77761518D01*
X153750274Y-77766399D01*
X153750275Y-77766411D01*
X153762802Y-77845506D01*
X153764354Y-77855304D01*
X153821950Y-77968342D01*
X153911658Y-78058050D01*
X154024696Y-78115646D01*
X154118481Y-78130500D01*
X154261798Y-78130499D01*
X154322881Y-78146297D01*
X154368650Y-78189729D01*
X154387623Y-78249904D01*
X154375044Y-78311733D01*
X154334067Y-78359712D01*
X154197629Y-78455246D01*
X154197622Y-78455251D01*
X154193123Y-78458402D01*
X154189233Y-78462291D01*
X154189227Y-78462297D01*
X154042297Y-78609227D01*
X154042291Y-78609233D01*
X154038402Y-78613123D01*
X154035250Y-78617624D01*
X154035242Y-78617634D01*
X153916052Y-78787856D01*
X153916046Y-78787865D01*
X153912898Y-78792362D01*
X153910576Y-78797340D01*
X153910575Y-78797343D01*
X153822748Y-78985687D01*
X153822745Y-78985693D01*
X153820425Y-78990670D01*
X153819002Y-78995978D01*
X153819002Y-78995980D01*
X153765216Y-79196709D01*
X153765214Y-79196718D01*
X153763793Y-79202023D01*
X153763314Y-79207494D01*
X153763313Y-79207502D01*
X153745538Y-79410680D01*
X153744723Y-79420000D01*
X153745202Y-79425475D01*
X153763313Y-79632497D01*
X153763314Y-79632503D01*
X153763793Y-79637977D01*
X153765214Y-79643283D01*
X153765216Y-79643290D01*
X153812727Y-79820603D01*
X153820425Y-79849330D01*
X153912898Y-80047639D01*
X153916051Y-80052142D01*
X153916054Y-80052147D01*
X153989103Y-80156471D01*
X154038402Y-80226877D01*
X154193123Y-80381598D01*
X154372361Y-80507102D01*
X154510864Y-80571687D01*
X154519695Y-80575805D01*
X154572712Y-80622300D01*
X154592445Y-80690000D01*
X154572712Y-80757700D01*
X154519695Y-80804195D01*
X154377343Y-80870575D01*
X154377340Y-80870576D01*
X154372362Y-80872898D01*
X154367865Y-80876046D01*
X154367856Y-80876052D01*
X154197634Y-80995242D01*
X154197624Y-80995250D01*
X154193123Y-80998402D01*
X154189233Y-81002291D01*
X154189227Y-81002297D01*
X154042297Y-81149227D01*
X154042291Y-81149233D01*
X154038402Y-81153123D01*
X154035250Y-81157624D01*
X154035242Y-81157634D01*
X153916052Y-81327856D01*
X153916046Y-81327865D01*
X153912898Y-81332362D01*
X153910576Y-81337340D01*
X153910575Y-81337343D01*
X153822748Y-81525687D01*
X153822745Y-81525693D01*
X153820425Y-81530670D01*
X153819002Y-81535978D01*
X153819002Y-81535980D01*
X153765216Y-81736709D01*
X153765214Y-81736718D01*
X153763793Y-81742023D01*
X153763314Y-81747494D01*
X153763313Y-81747502D01*
X153745538Y-81950680D01*
X153744723Y-81960000D01*
X153745202Y-81965475D01*
X153763313Y-82172497D01*
X153763314Y-82172503D01*
X153763793Y-82177977D01*
X153765214Y-82183283D01*
X153765216Y-82183290D01*
X153784419Y-82254955D01*
X153820425Y-82389330D01*
X153912898Y-82587639D01*
X153916051Y-82592142D01*
X153916054Y-82592147D01*
X153989103Y-82696471D01*
X154038402Y-82766877D01*
X154193123Y-82921598D01*
X154372361Y-83047102D01*
X154425337Y-83071805D01*
X154476546Y-83115542D01*
X154497914Y-83179406D01*
X154483338Y-83245153D01*
X154436982Y-83294003D01*
X154372087Y-83312000D01*
X153797000Y-83312000D01*
X153797000Y-85725000D01*
X153813590Y-85725000D01*
X154298214Y-85725000D01*
X154359300Y-85740798D01*
X154405068Y-85784230D01*
X154424041Y-85844406D01*
X154411462Y-85906235D01*
X154370484Y-85954213D01*
X154197634Y-86075242D01*
X154197624Y-86075250D01*
X154193123Y-86078402D01*
X154189233Y-86082291D01*
X154189227Y-86082297D01*
X154042297Y-86229227D01*
X154042291Y-86229233D01*
X154038402Y-86233123D01*
X154035250Y-86237624D01*
X154035242Y-86237634D01*
X153916052Y-86407856D01*
X153916046Y-86407865D01*
X153912898Y-86412362D01*
X153910576Y-86417340D01*
X153910575Y-86417343D01*
X153822748Y-86605687D01*
X153822745Y-86605693D01*
X153820425Y-86610670D01*
X153819002Y-86615978D01*
X153819002Y-86615980D01*
X153765216Y-86816709D01*
X153765214Y-86816718D01*
X153763793Y-86822023D01*
X153763314Y-86827494D01*
X153763313Y-86827502D01*
X153745538Y-87030680D01*
X153744723Y-87040000D01*
X153745202Y-87045475D01*
X153763313Y-87252497D01*
X153763314Y-87252503D01*
X153763793Y-87257977D01*
X153765214Y-87263283D01*
X153765216Y-87263290D01*
X153812727Y-87440603D01*
X153820425Y-87469330D01*
X153912898Y-87667639D01*
X153916051Y-87672142D01*
X153916054Y-87672147D01*
X153989103Y-87776471D01*
X154038402Y-87846877D01*
X154193123Y-88001598D01*
X154372361Y-88127102D01*
X154510864Y-88191687D01*
X154519695Y-88195805D01*
X154572712Y-88242300D01*
X154592445Y-88310000D01*
X154572712Y-88377700D01*
X154519695Y-88424195D01*
X154377343Y-88490575D01*
X154377340Y-88490576D01*
X154372362Y-88492898D01*
X154367865Y-88496046D01*
X154367856Y-88496052D01*
X154197634Y-88615242D01*
X154197624Y-88615250D01*
X154193123Y-88618402D01*
X154189233Y-88622291D01*
X154189227Y-88622297D01*
X154042297Y-88769227D01*
X154042291Y-88769233D01*
X154038402Y-88773123D01*
X154035250Y-88777624D01*
X154035242Y-88777634D01*
X153916052Y-88947856D01*
X153916046Y-88947865D01*
X153912898Y-88952362D01*
X153910576Y-88957340D01*
X153910575Y-88957343D01*
X153822748Y-89145687D01*
X153822745Y-89145693D01*
X153820425Y-89150670D01*
X153819002Y-89155978D01*
X153819002Y-89155980D01*
X153765216Y-89356709D01*
X153765214Y-89356718D01*
X153763793Y-89362023D01*
X153763314Y-89367494D01*
X153763313Y-89367502D01*
X153756578Y-89444493D01*
X153744723Y-89580000D01*
X100228253Y-89580000D01*
X100130407Y-83415694D01*
X105568500Y-83415694D01*
X105568692Y-83418140D01*
X105568693Y-83418152D01*
X105570896Y-83446149D01*
X105570897Y-83446156D01*
X105571402Y-83452569D01*
X105573196Y-83458747D01*
X105573198Y-83458753D01*
X105592270Y-83524397D01*
X105617256Y-83610398D01*
X105621288Y-83617216D01*
X105621290Y-83617220D01*
X105696885Y-83745044D01*
X105700919Y-83751865D01*
X105817135Y-83868081D01*
X105958602Y-83951744D01*
X106116431Y-83997598D01*
X106153306Y-84000500D01*
X107532223Y-84000500D01*
X107534694Y-84000500D01*
X107571569Y-83997598D01*
X107729398Y-83951744D01*
X107870865Y-83868081D01*
X107987081Y-83751865D01*
X108070744Y-83610398D01*
X108116598Y-83452569D01*
X108119500Y-83415694D01*
X108119500Y-83321463D01*
X112699500Y-83321463D01*
X112699501Y-83326406D01*
X112700274Y-83331287D01*
X112700275Y-83331299D01*
X112712802Y-83410394D01*
X112714354Y-83420192D01*
X112771950Y-83533230D01*
X112861658Y-83622938D01*
X112974696Y-83680534D01*
X113068481Y-83695388D01*
X114731518Y-83695387D01*
X114825304Y-83680534D01*
X114938342Y-83622938D01*
X114955280Y-83606000D01*
X128502000Y-83606000D01*
X128502000Y-89448000D01*
X141185410Y-89448000D01*
X141202000Y-89448000D01*
X141202000Y-83606000D01*
X128502000Y-83606000D01*
X114955280Y-83606000D01*
X115028050Y-83533230D01*
X115085646Y-83420192D01*
X115100500Y-83326407D01*
X115100499Y-81663370D01*
X115085646Y-81569584D01*
X115028050Y-81456546D01*
X114938342Y-81366838D01*
X114929510Y-81362338D01*
X114929509Y-81362337D01*
X114834137Y-81313742D01*
X114834133Y-81313740D01*
X114825304Y-81309242D01*
X114815512Y-81307691D01*
X114736409Y-81295162D01*
X114736402Y-81295161D01*
X114731519Y-81294388D01*
X114726565Y-81294388D01*
X113073436Y-81294388D01*
X113073423Y-81294388D01*
X113068482Y-81294389D01*
X113063601Y-81295161D01*
X113063588Y-81295163D01*
X112984493Y-81307690D01*
X112984490Y-81307690D01*
X112974696Y-81309242D01*
X112965859Y-81313744D01*
X112965858Y-81313745D01*
X112870490Y-81362337D01*
X112870486Y-81362339D01*
X112861658Y-81366838D01*
X112854649Y-81373846D01*
X112854646Y-81373849D01*
X112778961Y-81449534D01*
X112778958Y-81449537D01*
X112771950Y-81456546D01*
X112767451Y-81465374D01*
X112767449Y-81465378D01*
X112718854Y-81560750D01*
X112718851Y-81560756D01*
X112714354Y-81569584D01*
X112712803Y-81579373D01*
X112712803Y-81579375D01*
X112700274Y-81658478D01*
X112700273Y-81658486D01*
X112699500Y-81663369D01*
X112699500Y-81668321D01*
X112699500Y-81668322D01*
X112699500Y-83321451D01*
X112699500Y-83321463D01*
X108119500Y-83321463D01*
X108119500Y-82584306D01*
X108116598Y-82547431D01*
X108070744Y-82389602D01*
X107987081Y-82248135D01*
X107870865Y-82131919D01*
X107864044Y-82127885D01*
X107736220Y-82052290D01*
X107736216Y-82052288D01*
X107729398Y-82048256D01*
X107703466Y-82040721D01*
X107577753Y-82004198D01*
X107577747Y-82004196D01*
X107571569Y-82002402D01*
X107565156Y-82001897D01*
X107565149Y-82001896D01*
X107537152Y-81999693D01*
X107537140Y-81999692D01*
X107534694Y-81999500D01*
X106153306Y-81999500D01*
X106150860Y-81999692D01*
X106150847Y-81999693D01*
X106122850Y-82001896D01*
X106122841Y-82001897D01*
X106116431Y-82002402D01*
X106110254Y-82004196D01*
X106110246Y-82004198D01*
X105966215Y-82046044D01*
X105966213Y-82046044D01*
X105958602Y-82048256D01*
X105951785Y-82052287D01*
X105951779Y-82052290D01*
X105823955Y-82127885D01*
X105823951Y-82127887D01*
X105817135Y-82131919D01*
X105811533Y-82137520D01*
X105811529Y-82137524D01*
X105706524Y-82242529D01*
X105706520Y-82242533D01*
X105700919Y-82248135D01*
X105696887Y-82254951D01*
X105696885Y-82254955D01*
X105621290Y-82382779D01*
X105621287Y-82382785D01*
X105617256Y-82389602D01*
X105615044Y-82397213D01*
X105615044Y-82397215D01*
X105573198Y-82541246D01*
X105573196Y-82541254D01*
X105571402Y-82547431D01*
X105570897Y-82553841D01*
X105570896Y-82553850D01*
X105568693Y-82581847D01*
X105568692Y-82581860D01*
X105568500Y-82584306D01*
X105568500Y-83415694D01*
X100130407Y-83415694D01*
X100042079Y-77851000D01*
X105474357Y-77851000D01*
X105494885Y-78072536D01*
X105555771Y-78286528D01*
X105558367Y-78291741D01*
X105558368Y-78291744D01*
X105643294Y-78462297D01*
X105654942Y-78485689D01*
X105658452Y-78490337D01*
X105785506Y-78658585D01*
X105785510Y-78658589D01*
X105789019Y-78663236D01*
X105793321Y-78667158D01*
X105793324Y-78667161D01*
X105889428Y-78754771D01*
X105953438Y-78813124D01*
X106142599Y-78930247D01*
X106350060Y-79010618D01*
X106568757Y-79051500D01*
X106785416Y-79051500D01*
X106791243Y-79051500D01*
X107009940Y-79010618D01*
X107217401Y-78930247D01*
X107406562Y-78813124D01*
X107570981Y-78663236D01*
X107705058Y-78485689D01*
X107804229Y-78286528D01*
X107865115Y-78072536D01*
X107885643Y-77851000D01*
X113094357Y-77851000D01*
X113114885Y-78072536D01*
X113175771Y-78286528D01*
X113178367Y-78291741D01*
X113178368Y-78291744D01*
X113263294Y-78462297D01*
X113274942Y-78485689D01*
X113278452Y-78490337D01*
X113405506Y-78658585D01*
X113405510Y-78658589D01*
X113409019Y-78663236D01*
X113413321Y-78667158D01*
X113413324Y-78667161D01*
X113509428Y-78754771D01*
X113573438Y-78813124D01*
X113762599Y-78930247D01*
X113970060Y-79010618D01*
X114188757Y-79051500D01*
X114405416Y-79051500D01*
X114411243Y-79051500D01*
X114629940Y-79010618D01*
X114837401Y-78930247D01*
X115026562Y-78813124D01*
X115190981Y-78663236D01*
X115325058Y-78485689D01*
X115344654Y-78446334D01*
X115391113Y-78395373D01*
X115457443Y-78376500D01*
X116384851Y-78376500D01*
X116389152Y-78376572D01*
X116450245Y-78378660D01*
X116487968Y-78369466D01*
X116500628Y-78367059D01*
X116539111Y-78361771D01*
X116554227Y-78355204D01*
X116574596Y-78348355D01*
X116590594Y-78344457D01*
X116624435Y-78325428D01*
X116635985Y-78319692D01*
X116663698Y-78307655D01*
X116663697Y-78307655D01*
X116671609Y-78304219D01*
X116684384Y-78293824D01*
X116702158Y-78281728D01*
X116716512Y-78273658D01*
X116743978Y-78246190D01*
X116753535Y-78237565D01*
X116783665Y-78213054D01*
X116793165Y-78199594D01*
X116807000Y-78183168D01*
X117489735Y-77500432D01*
X117492803Y-77497469D01*
X117531166Y-77461641D01*
X117537469Y-77455755D01*
X117557650Y-77422565D01*
X117564892Y-77411926D01*
X117588364Y-77380975D01*
X117594409Y-77365643D01*
X117603965Y-77346404D01*
X117612526Y-77332328D01*
X117623005Y-77294923D01*
X117627107Y-77282726D01*
X117641359Y-77246589D01*
X117643043Y-77230201D01*
X117647057Y-77209083D01*
X117649175Y-77201524D01*
X117651500Y-77193228D01*
X117651500Y-77154394D01*
X117652161Y-77141509D01*
X117655249Y-77111468D01*
X117656131Y-77102890D01*
X117653331Y-77086654D01*
X117651500Y-77065248D01*
X117651500Y-73897860D01*
X117661091Y-73849642D01*
X117688405Y-73808765D01*
X118671764Y-72825405D01*
X118712641Y-72798091D01*
X118760859Y-72788500D01*
X138037851Y-72788500D01*
X138042152Y-72788572D01*
X138103245Y-72790660D01*
X138140968Y-72781466D01*
X138153628Y-72779059D01*
X138192111Y-72773771D01*
X138207227Y-72767204D01*
X138227596Y-72760355D01*
X138243594Y-72756457D01*
X138277435Y-72737428D01*
X138288985Y-72731692D01*
X138316698Y-72719655D01*
X138316697Y-72719655D01*
X138324609Y-72716219D01*
X138337384Y-72705824D01*
X138355158Y-72693728D01*
X138369512Y-72685658D01*
X138396974Y-72658194D01*
X138406548Y-72649555D01*
X138436665Y-72625054D01*
X138446167Y-72611590D01*
X138459997Y-72595171D01*
X139428750Y-71626417D01*
X139431788Y-71623483D01*
X139470166Y-71587641D01*
X139476469Y-71581755D01*
X139496650Y-71548565D01*
X139503892Y-71537926D01*
X139527364Y-71506975D01*
X139533409Y-71491643D01*
X139542965Y-71472404D01*
X139551526Y-71458328D01*
X139562005Y-71420923D01*
X139566107Y-71408726D01*
X139580359Y-71372589D01*
X139582043Y-71356201D01*
X139586057Y-71335083D01*
X139588175Y-71327524D01*
X139590500Y-71319228D01*
X139590500Y-71280394D01*
X139591159Y-71267526D01*
X139594410Y-71235895D01*
X139612956Y-71181917D01*
X139653413Y-71141661D01*
X139791562Y-71056124D01*
X139955981Y-70906236D01*
X140090058Y-70728689D01*
X140113388Y-70681834D01*
X140159848Y-70630873D01*
X140226178Y-70612000D01*
X140443822Y-70612000D01*
X140510152Y-70630873D01*
X140556611Y-70681834D01*
X140579942Y-70728689D01*
X140583452Y-70733337D01*
X140583453Y-70733338D01*
X140710506Y-70901585D01*
X140710510Y-70901589D01*
X140714019Y-70906236D01*
X140718321Y-70910158D01*
X140718324Y-70910161D01*
X140814428Y-70997771D01*
X140878438Y-71056124D01*
X141067599Y-71173247D01*
X141275060Y-71253618D01*
X141493757Y-71294500D01*
X141710416Y-71294500D01*
X141716243Y-71294500D01*
X141934940Y-71253618D01*
X142142401Y-71173247D01*
X142331562Y-71056124D01*
X142495981Y-70906236D01*
X142630058Y-70728689D01*
X142729229Y-70529528D01*
X142753809Y-70443135D01*
X142786731Y-70387701D01*
X142842764Y-70355809D01*
X142907236Y-70355809D01*
X142963269Y-70387701D01*
X142996190Y-70443135D01*
X143014363Y-70507008D01*
X143020771Y-70529528D01*
X143119942Y-70728689D01*
X143123452Y-70733337D01*
X143250506Y-70901585D01*
X143250510Y-70901589D01*
X143254019Y-70906236D01*
X143258321Y-70910158D01*
X143258324Y-70910161D01*
X143354428Y-70997771D01*
X143418438Y-71056124D01*
X143607599Y-71173247D01*
X143815060Y-71253618D01*
X144033757Y-71294500D01*
X144250416Y-71294500D01*
X144256243Y-71294500D01*
X144474940Y-71253618D01*
X144682401Y-71173247D01*
X144871562Y-71056124D01*
X145035981Y-70906236D01*
X145170058Y-70728689D01*
X145269229Y-70529528D01*
X145293809Y-70443135D01*
X145326731Y-70387701D01*
X145382764Y-70355809D01*
X145447236Y-70355809D01*
X145503269Y-70387701D01*
X145536190Y-70443135D01*
X145554363Y-70507008D01*
X145560771Y-70529528D01*
X145659942Y-70728689D01*
X145663452Y-70733337D01*
X145790506Y-70901585D01*
X145790510Y-70901589D01*
X145794019Y-70906236D01*
X145798321Y-70910158D01*
X145798324Y-70910161D01*
X145894428Y-70997771D01*
X145958438Y-71056124D01*
X146147599Y-71173247D01*
X146355060Y-71253618D01*
X146573757Y-71294500D01*
X146790416Y-71294500D01*
X146796243Y-71294500D01*
X147014940Y-71253618D01*
X147222401Y-71173247D01*
X147411562Y-71056124D01*
X147575981Y-70906236D01*
X147710058Y-70728689D01*
X147809229Y-70529528D01*
X147833809Y-70443135D01*
X147866731Y-70387701D01*
X147922764Y-70355809D01*
X147987236Y-70355809D01*
X148043269Y-70387701D01*
X148076190Y-70443135D01*
X148094363Y-70507008D01*
X148100771Y-70529528D01*
X148199942Y-70728689D01*
X148203452Y-70733337D01*
X148330506Y-70901585D01*
X148330510Y-70901589D01*
X148334019Y-70906236D01*
X148338321Y-70910158D01*
X148338324Y-70910161D01*
X148434428Y-70997771D01*
X148498438Y-71056124D01*
X148687599Y-71173247D01*
X148895060Y-71253618D01*
X149113757Y-71294500D01*
X149330416Y-71294500D01*
X149336243Y-71294500D01*
X149554940Y-71253618D01*
X149762401Y-71173247D01*
X149951562Y-71056124D01*
X150115981Y-70906236D01*
X150250058Y-70728689D01*
X150349229Y-70529528D01*
X150373809Y-70443135D01*
X150406731Y-70387701D01*
X150462764Y-70355809D01*
X150527236Y-70355809D01*
X150583269Y-70387701D01*
X150616190Y-70443135D01*
X150634363Y-70507008D01*
X150640771Y-70529528D01*
X150739942Y-70728689D01*
X150743452Y-70733337D01*
X150870506Y-70901585D01*
X150870510Y-70901589D01*
X150874019Y-70906236D01*
X150878321Y-70910158D01*
X150878324Y-70910161D01*
X150974428Y-70997771D01*
X151038438Y-71056124D01*
X151227599Y-71173247D01*
X151435060Y-71253618D01*
X151653757Y-71294500D01*
X151870416Y-71294500D01*
X151876243Y-71294500D01*
X152094940Y-71253618D01*
X152302401Y-71173247D01*
X152491562Y-71056124D01*
X152655981Y-70906236D01*
X152790058Y-70728689D01*
X152889229Y-70529528D01*
X152913809Y-70443135D01*
X152946731Y-70387701D01*
X153002764Y-70355809D01*
X153067236Y-70355809D01*
X153123269Y-70387701D01*
X153156190Y-70443135D01*
X153174363Y-70507008D01*
X153180771Y-70529528D01*
X153279942Y-70728689D01*
X153283452Y-70733337D01*
X153410506Y-70901585D01*
X153410510Y-70901589D01*
X153414019Y-70906236D01*
X153418321Y-70910158D01*
X153418324Y-70910161D01*
X153514428Y-70997771D01*
X153578438Y-71056124D01*
X153767599Y-71173247D01*
X153975060Y-71253618D01*
X154193757Y-71294500D01*
X154410416Y-71294500D01*
X154416243Y-71294500D01*
X154634940Y-71253618D01*
X154842401Y-71173247D01*
X155031562Y-71056124D01*
X155195981Y-70906236D01*
X155330058Y-70728689D01*
X155429229Y-70529528D01*
X155453809Y-70443135D01*
X155486731Y-70387701D01*
X155542764Y-70355809D01*
X155607236Y-70355809D01*
X155663269Y-70387701D01*
X155696190Y-70443135D01*
X155714363Y-70507008D01*
X155720771Y-70529528D01*
X155819942Y-70728689D01*
X155823452Y-70733337D01*
X155950506Y-70901585D01*
X155950510Y-70901589D01*
X155954019Y-70906236D01*
X155958321Y-70910158D01*
X155958324Y-70910161D01*
X156054428Y-70997771D01*
X156118438Y-71056124D01*
X156307599Y-71173247D01*
X156515060Y-71253618D01*
X156733757Y-71294500D01*
X156950416Y-71294500D01*
X156956243Y-71294500D01*
X157174940Y-71253618D01*
X157382401Y-71173247D01*
X157571562Y-71056124D01*
X157735981Y-70906236D01*
X157870058Y-70728689D01*
X157969229Y-70529528D01*
X158030115Y-70315536D01*
X158050643Y-70094000D01*
X158030115Y-69872464D01*
X157969229Y-69658472D01*
X157870058Y-69459311D01*
X157781469Y-69342000D01*
X157739493Y-69286414D01*
X157739488Y-69286408D01*
X157735981Y-69281764D01*
X157731677Y-69277841D01*
X157731675Y-69277838D01*
X157575864Y-69135798D01*
X157575865Y-69135798D01*
X157571562Y-69131876D01*
X157382401Y-69014753D01*
X157337481Y-68997351D01*
X157180375Y-68936487D01*
X157180369Y-68936485D01*
X157174940Y-68934382D01*
X157169220Y-68933312D01*
X157169214Y-68933311D01*
X156961967Y-68894570D01*
X156961966Y-68894569D01*
X156956243Y-68893500D01*
X156733757Y-68893500D01*
X156728034Y-68894569D01*
X156728032Y-68894570D01*
X156520785Y-68933311D01*
X156520776Y-68933313D01*
X156515060Y-68934382D01*
X156509632Y-68936484D01*
X156509624Y-68936487D01*
X156313037Y-69012646D01*
X156313034Y-69012647D01*
X156307599Y-69014753D01*
X156302643Y-69017821D01*
X156302638Y-69017824D01*
X156185366Y-69090436D01*
X156118438Y-69131876D01*
X156114139Y-69135794D01*
X156114135Y-69135798D01*
X155958324Y-69277838D01*
X155958316Y-69277846D01*
X155954019Y-69281764D01*
X155950514Y-69286404D01*
X155950506Y-69286414D01*
X155823452Y-69454662D01*
X155823448Y-69454667D01*
X155819942Y-69459311D01*
X155817347Y-69464521D01*
X155817344Y-69464527D01*
X155723368Y-69653255D01*
X155723365Y-69653261D01*
X155720771Y-69658472D01*
X155719177Y-69664073D01*
X155719177Y-69664074D01*
X155696190Y-69744865D01*
X155663268Y-69800298D01*
X155607236Y-69832190D01*
X155542764Y-69832190D01*
X155486732Y-69800298D01*
X155453810Y-69744865D01*
X155435636Y-69680992D01*
X155429229Y-69658472D01*
X155330058Y-69459311D01*
X155241469Y-69342000D01*
X155199493Y-69286414D01*
X155199488Y-69286408D01*
X155195981Y-69281764D01*
X155191677Y-69277841D01*
X155191675Y-69277838D01*
X155035864Y-69135798D01*
X155035865Y-69135798D01*
X155031562Y-69131876D01*
X154842401Y-69014753D01*
X154797481Y-68997351D01*
X154640375Y-68936487D01*
X154640369Y-68936485D01*
X154634940Y-68934382D01*
X154629220Y-68933312D01*
X154629214Y-68933311D01*
X154421967Y-68894570D01*
X154421966Y-68894569D01*
X154416243Y-68893500D01*
X154193757Y-68893500D01*
X154188034Y-68894569D01*
X154188032Y-68894570D01*
X153980785Y-68933311D01*
X153980776Y-68933313D01*
X153975060Y-68934382D01*
X153969632Y-68936484D01*
X153969624Y-68936487D01*
X153773037Y-69012646D01*
X153773034Y-69012647D01*
X153767599Y-69014753D01*
X153762643Y-69017821D01*
X153762638Y-69017824D01*
X153645366Y-69090436D01*
X153578438Y-69131876D01*
X153574139Y-69135794D01*
X153574135Y-69135798D01*
X153418324Y-69277838D01*
X153418316Y-69277846D01*
X153414019Y-69281764D01*
X153410514Y-69286404D01*
X153410506Y-69286414D01*
X153283452Y-69454662D01*
X153283448Y-69454667D01*
X153279942Y-69459311D01*
X153277347Y-69464521D01*
X153277344Y-69464527D01*
X153183368Y-69653255D01*
X153183365Y-69653261D01*
X153180771Y-69658472D01*
X153179177Y-69664073D01*
X153179177Y-69664074D01*
X153156190Y-69744865D01*
X153123268Y-69800298D01*
X153067236Y-69832190D01*
X153002764Y-69832190D01*
X152946732Y-69800298D01*
X152913810Y-69744865D01*
X152895636Y-69680992D01*
X152889229Y-69658472D01*
X152790058Y-69459311D01*
X152701469Y-69342000D01*
X152659493Y-69286414D01*
X152659488Y-69286408D01*
X152655981Y-69281764D01*
X152651677Y-69277841D01*
X152651675Y-69277838D01*
X152495864Y-69135798D01*
X152495865Y-69135798D01*
X152491562Y-69131876D01*
X152302401Y-69014753D01*
X152257481Y-68997351D01*
X152100375Y-68936487D01*
X152100369Y-68936485D01*
X152094940Y-68934382D01*
X152089220Y-68933312D01*
X152089214Y-68933311D01*
X151881967Y-68894570D01*
X151881966Y-68894569D01*
X151876243Y-68893500D01*
X151653757Y-68893500D01*
X151648034Y-68894569D01*
X151648032Y-68894570D01*
X151440785Y-68933311D01*
X151440776Y-68933313D01*
X151435060Y-68934382D01*
X151429632Y-68936484D01*
X151429624Y-68936487D01*
X151233037Y-69012646D01*
X151233034Y-69012647D01*
X151227599Y-69014753D01*
X151222643Y-69017821D01*
X151222638Y-69017824D01*
X151105366Y-69090436D01*
X151038438Y-69131876D01*
X151034139Y-69135794D01*
X151034135Y-69135798D01*
X150878324Y-69277838D01*
X150878316Y-69277846D01*
X150874019Y-69281764D01*
X150870514Y-69286404D01*
X150870506Y-69286414D01*
X150743452Y-69454662D01*
X150743448Y-69454667D01*
X150739942Y-69459311D01*
X150737347Y-69464521D01*
X150737344Y-69464527D01*
X150643368Y-69653255D01*
X150643365Y-69653261D01*
X150640771Y-69658472D01*
X150639177Y-69664073D01*
X150639177Y-69664074D01*
X150616190Y-69744865D01*
X150583268Y-69800298D01*
X150527236Y-69832190D01*
X150462764Y-69832190D01*
X150406732Y-69800298D01*
X150373810Y-69744865D01*
X150355636Y-69680992D01*
X150349229Y-69658472D01*
X150250058Y-69459311D01*
X150161469Y-69342000D01*
X150119493Y-69286414D01*
X150119488Y-69286408D01*
X150115981Y-69281764D01*
X150111677Y-69277841D01*
X150111675Y-69277838D01*
X149955864Y-69135798D01*
X149955865Y-69135798D01*
X149951562Y-69131876D01*
X149762401Y-69014753D01*
X149717481Y-68997351D01*
X149560375Y-68936487D01*
X149560369Y-68936485D01*
X149554940Y-68934382D01*
X149549220Y-68933312D01*
X149549214Y-68933311D01*
X149341967Y-68894570D01*
X149341966Y-68894569D01*
X149336243Y-68893500D01*
X149113757Y-68893500D01*
X149108034Y-68894569D01*
X149108032Y-68894570D01*
X148900785Y-68933311D01*
X148900776Y-68933313D01*
X148895060Y-68934382D01*
X148889632Y-68936484D01*
X148889624Y-68936487D01*
X148693037Y-69012646D01*
X148693034Y-69012647D01*
X148687599Y-69014753D01*
X148682643Y-69017821D01*
X148682638Y-69017824D01*
X148565366Y-69090436D01*
X148498438Y-69131876D01*
X148494139Y-69135794D01*
X148494135Y-69135798D01*
X148338324Y-69277838D01*
X148338316Y-69277846D01*
X148334019Y-69281764D01*
X148330514Y-69286404D01*
X148330506Y-69286414D01*
X148203452Y-69454662D01*
X148203448Y-69454667D01*
X148199942Y-69459311D01*
X148197347Y-69464521D01*
X148197344Y-69464527D01*
X148103368Y-69653255D01*
X148103365Y-69653261D01*
X148100771Y-69658472D01*
X148099177Y-69664073D01*
X148099177Y-69664074D01*
X148076190Y-69744865D01*
X148043268Y-69800298D01*
X147987236Y-69832190D01*
X147922764Y-69832190D01*
X147866732Y-69800298D01*
X147833810Y-69744865D01*
X147815636Y-69680992D01*
X147809229Y-69658472D01*
X147710058Y-69459311D01*
X147621469Y-69342000D01*
X147579493Y-69286414D01*
X147579488Y-69286408D01*
X147575981Y-69281764D01*
X147571677Y-69277841D01*
X147571675Y-69277838D01*
X147415864Y-69135798D01*
X147415865Y-69135798D01*
X147411562Y-69131876D01*
X147271338Y-69045053D01*
X147226562Y-68997351D01*
X147211742Y-68933625D01*
X147211753Y-68933311D01*
X147212660Y-68906755D01*
X147203463Y-68869019D01*
X147201059Y-68856369D01*
X147195771Y-68817889D01*
X147190988Y-68806877D01*
X147189206Y-68802774D01*
X147182356Y-68782407D01*
X147178457Y-68766406D01*
X147159424Y-68732556D01*
X147153697Y-68721026D01*
X147138219Y-68685391D01*
X147132780Y-68678705D01*
X147132776Y-68678699D01*
X147127820Y-68672608D01*
X147115731Y-68654846D01*
X147107658Y-68640488D01*
X147080204Y-68613034D01*
X147071560Y-68603457D01*
X147052492Y-68580019D01*
X147052491Y-68580018D01*
X147047054Y-68573335D01*
X147040012Y-68568364D01*
X147040011Y-68568363D01*
X147033595Y-68563834D01*
X147017163Y-68549993D01*
X146302459Y-67835290D01*
X146299468Y-67832195D01*
X146263637Y-67793829D01*
X146263636Y-67793828D01*
X146257755Y-67787531D01*
X146250392Y-67783053D01*
X146250389Y-67783051D01*
X146224581Y-67767357D01*
X146213914Y-67760097D01*
X146189845Y-67741845D01*
X146189841Y-67741843D01*
X146182975Y-67736636D01*
X146174958Y-67733474D01*
X146174956Y-67733473D01*
X146167640Y-67730588D01*
X146148409Y-67721036D01*
X146134328Y-67712474D01*
X146126032Y-67710149D01*
X146126031Y-67710149D01*
X146096940Y-67701998D01*
X146084716Y-67697887D01*
X146056605Y-67686802D01*
X146056604Y-67686801D01*
X146048589Y-67683641D01*
X146040021Y-67682760D01*
X146040017Y-67682759D01*
X146032192Y-67681955D01*
X146011096Y-67677945D01*
X146003527Y-67675824D01*
X146003519Y-67675822D01*
X145995228Y-67673500D01*
X145986613Y-67673500D01*
X145956394Y-67673500D01*
X145943509Y-67672839D01*
X145913468Y-67669750D01*
X145913462Y-67669750D01*
X145904890Y-67668869D01*
X145896399Y-67670332D01*
X145896394Y-67670333D01*
X145890558Y-67671340D01*
X145888654Y-67671668D01*
X145867248Y-67673500D01*
X118248149Y-67673500D01*
X118243847Y-67673427D01*
X118191361Y-67671634D01*
X118182755Y-67671340D01*
X118174389Y-67673378D01*
X118174385Y-67673379D01*
X118145025Y-67680533D01*
X118132360Y-67682940D01*
X118102425Y-67687055D01*
X118102420Y-67687056D01*
X118093889Y-67688229D01*
X118085991Y-67691659D01*
X118085985Y-67691661D01*
X118078769Y-67694796D01*
X118058412Y-67701641D01*
X118050783Y-67703500D01*
X118050774Y-67703503D01*
X118042406Y-67705543D01*
X118034898Y-67709763D01*
X118034896Y-67709765D01*
X118008565Y-67724570D01*
X117997017Y-67730305D01*
X117969299Y-67742345D01*
X117969293Y-67742348D01*
X117961391Y-67745781D01*
X117954706Y-67751219D01*
X117954700Y-67751223D01*
X117948602Y-67756184D01*
X117930857Y-67768261D01*
X117924006Y-67772113D01*
X117923997Y-67772119D01*
X117916488Y-67776342D01*
X117910397Y-67782432D01*
X117910390Y-67782438D01*
X117889025Y-67803803D01*
X117879454Y-67812440D01*
X117856025Y-67831502D01*
X117856020Y-67831506D01*
X117849335Y-67836946D01*
X117844367Y-67843983D01*
X117844360Y-67843991D01*
X117839828Y-67850412D01*
X117825990Y-67866838D01*
X115968303Y-69724526D01*
X115965212Y-69727514D01*
X115926827Y-69763364D01*
X115926824Y-69763367D01*
X115920531Y-69769245D01*
X115916056Y-69776602D01*
X115916057Y-69776602D01*
X115900356Y-69802421D01*
X115893099Y-69813083D01*
X115874843Y-69837157D01*
X115874840Y-69837162D01*
X115869636Y-69844025D01*
X115866476Y-69852036D01*
X115866471Y-69852046D01*
X115863588Y-69859358D01*
X115854040Y-69878583D01*
X115849950Y-69885308D01*
X115849945Y-69885317D01*
X115845474Y-69892672D01*
X115843150Y-69900965D01*
X115843150Y-69900966D01*
X115834999Y-69930056D01*
X115830888Y-69942280D01*
X115819803Y-69970390D01*
X115819801Y-69970396D01*
X115816641Y-69978411D01*
X115815759Y-69986983D01*
X115815758Y-69986990D01*
X115814954Y-69994806D01*
X115810947Y-70015894D01*
X115808825Y-70023469D01*
X115808823Y-70023477D01*
X115806500Y-70031772D01*
X115806500Y-70040390D01*
X115806500Y-70070606D01*
X115805839Y-70083491D01*
X115802750Y-70113531D01*
X115802750Y-70113537D01*
X115801869Y-70122110D01*
X115803332Y-70130600D01*
X115803333Y-70130605D01*
X115804668Y-70138343D01*
X115806500Y-70159752D01*
X115806500Y-74406141D01*
X115796909Y-74454359D01*
X115769597Y-74495233D01*
X115593169Y-74671662D01*
X115536465Y-74728366D01*
X115486030Y-74759193D01*
X115427085Y-74763626D01*
X115372606Y-74740691D01*
X115334581Y-74695436D01*
X115325058Y-74676311D01*
X115190981Y-74498764D01*
X115186677Y-74494841D01*
X115186675Y-74494838D01*
X115030864Y-74352798D01*
X115030865Y-74352798D01*
X115026562Y-74348876D01*
X114837401Y-74231753D01*
X114831965Y-74229647D01*
X114831959Y-74229644D01*
X114648291Y-74158491D01*
X114599139Y-74124150D01*
X114571426Y-74070980D01*
X114571426Y-74011020D01*
X114599139Y-73957850D01*
X114648291Y-73923509D01*
X114777014Y-73873641D01*
X114837401Y-73850247D01*
X115026562Y-73733124D01*
X115190981Y-73583236D01*
X115325058Y-73405689D01*
X115424229Y-73206528D01*
X115485115Y-72992536D01*
X115505643Y-72771000D01*
X115485115Y-72549464D01*
X115424229Y-72335472D01*
X115325058Y-72136311D01*
X115190981Y-71958764D01*
X115186677Y-71954841D01*
X115186675Y-71954838D01*
X115030864Y-71812798D01*
X115030865Y-71812798D01*
X115026562Y-71808876D01*
X114837401Y-71691753D01*
X114805129Y-71679251D01*
X114635375Y-71613487D01*
X114635369Y-71613485D01*
X114629940Y-71611382D01*
X114624220Y-71610312D01*
X114624214Y-71610311D01*
X114416967Y-71571570D01*
X114416966Y-71571569D01*
X114411243Y-71570500D01*
X114188757Y-71570500D01*
X114183034Y-71571569D01*
X114183032Y-71571570D01*
X113975785Y-71610311D01*
X113975776Y-71610313D01*
X113970060Y-71611382D01*
X113964632Y-71613484D01*
X113964624Y-71613487D01*
X113768037Y-71689646D01*
X113768034Y-71689647D01*
X113762599Y-71691753D01*
X113757643Y-71694821D01*
X113757638Y-71694824D01*
X113596961Y-71794311D01*
X113573438Y-71808876D01*
X113569139Y-71812794D01*
X113569135Y-71812798D01*
X113413324Y-71954838D01*
X113413316Y-71954846D01*
X113409019Y-71958764D01*
X113405514Y-71963404D01*
X113405506Y-71963414D01*
X113278452Y-72131662D01*
X113278448Y-72131667D01*
X113274942Y-72136311D01*
X113272347Y-72141521D01*
X113272344Y-72141527D01*
X113178368Y-72330255D01*
X113178365Y-72330261D01*
X113175771Y-72335472D01*
X113114885Y-72549464D01*
X113094357Y-72771000D01*
X113114885Y-72992536D01*
X113175771Y-73206528D01*
X113178367Y-73211741D01*
X113178368Y-73211744D01*
X113227970Y-73311358D01*
X113274942Y-73405689D01*
X113278452Y-73410337D01*
X113405506Y-73578585D01*
X113405510Y-73578589D01*
X113409019Y-73583236D01*
X113413321Y-73587158D01*
X113413324Y-73587161D01*
X113433143Y-73605228D01*
X113573438Y-73733124D01*
X113762599Y-73850247D01*
X113885502Y-73897860D01*
X113951709Y-73923509D01*
X114000860Y-73957850D01*
X114028573Y-74011020D01*
X114028573Y-74070980D01*
X114000860Y-74124150D01*
X113951709Y-74158491D01*
X113768037Y-74229646D01*
X113768034Y-74229647D01*
X113762599Y-74231753D01*
X113757643Y-74234821D01*
X113757638Y-74234824D01*
X113578391Y-74345809D01*
X113573438Y-74348876D01*
X113569139Y-74352794D01*
X113569135Y-74352798D01*
X113413324Y-74494838D01*
X113413316Y-74494846D01*
X113409019Y-74498764D01*
X113405514Y-74503404D01*
X113405506Y-74503414D01*
X113278452Y-74671662D01*
X113278448Y-74671667D01*
X113274942Y-74676311D01*
X113272349Y-74681519D01*
X113272344Y-74681527D01*
X113178368Y-74870255D01*
X113178365Y-74870261D01*
X113175771Y-74875472D01*
X113114885Y-75089464D01*
X113114348Y-75095256D01*
X113114348Y-75095258D01*
X113098110Y-75270487D01*
X113094357Y-75311000D01*
X113114885Y-75532536D01*
X113175771Y-75746528D01*
X113178367Y-75751741D01*
X113178368Y-75751744D01*
X113250129Y-75895858D01*
X113274942Y-75945689D01*
X113278452Y-75950337D01*
X113405506Y-76118585D01*
X113405510Y-76118589D01*
X113409019Y-76123236D01*
X113413321Y-76127158D01*
X113413324Y-76127161D01*
X113509428Y-76214771D01*
X113573438Y-76273124D01*
X113762599Y-76390247D01*
X113905961Y-76445786D01*
X113951709Y-76463509D01*
X114000860Y-76497850D01*
X114028573Y-76551020D01*
X114028573Y-76610980D01*
X114000860Y-76664150D01*
X113951709Y-76698491D01*
X113768037Y-76769646D01*
X113768034Y-76769647D01*
X113762599Y-76771753D01*
X113757643Y-76774821D01*
X113757638Y-76774824D01*
X113578391Y-76885809D01*
X113573438Y-76888876D01*
X113569139Y-76892794D01*
X113569135Y-76892798D01*
X113413324Y-77034838D01*
X113413316Y-77034846D01*
X113409019Y-77038764D01*
X113405514Y-77043404D01*
X113405506Y-77043414D01*
X113278452Y-77211662D01*
X113278448Y-77211667D01*
X113274942Y-77216311D01*
X113272349Y-77221519D01*
X113272344Y-77221527D01*
X113178368Y-77410255D01*
X113178365Y-77410261D01*
X113175771Y-77415472D01*
X113174177Y-77421073D01*
X113174177Y-77421074D01*
X113151590Y-77500461D01*
X113114885Y-77629464D01*
X113114348Y-77635256D01*
X113114348Y-77635258D01*
X113102195Y-77766409D01*
X113094357Y-77851000D01*
X107885643Y-77851000D01*
X107865115Y-77629464D01*
X107804229Y-77415472D01*
X107705058Y-77216311D01*
X107648570Y-77141509D01*
X107574493Y-77043414D01*
X107574490Y-77043410D01*
X107570981Y-77038764D01*
X107566677Y-77034841D01*
X107566675Y-77034838D01*
X107410864Y-76892798D01*
X107410865Y-76892798D01*
X107406562Y-76888876D01*
X107217401Y-76771753D01*
X107211965Y-76769647D01*
X107211959Y-76769644D01*
X107028291Y-76698491D01*
X106979139Y-76664150D01*
X106951426Y-76610980D01*
X106951426Y-76551020D01*
X106979139Y-76497850D01*
X107028291Y-76463509D01*
X107117141Y-76429087D01*
X107217401Y-76390247D01*
X107406562Y-76273124D01*
X107570981Y-76123236D01*
X107705058Y-75945689D01*
X107724654Y-75906334D01*
X107771113Y-75855373D01*
X107837443Y-75836500D01*
X108446851Y-75836500D01*
X108451152Y-75836572D01*
X108512245Y-75838660D01*
X108549968Y-75829466D01*
X108562628Y-75827059D01*
X108601111Y-75821771D01*
X108616227Y-75815204D01*
X108636596Y-75808355D01*
X108652594Y-75804457D01*
X108686435Y-75785428D01*
X108697985Y-75779692D01*
X108725698Y-75767655D01*
X108725697Y-75767655D01*
X108733609Y-75764219D01*
X108746384Y-75753824D01*
X108764158Y-75741728D01*
X108778512Y-75733658D01*
X108805974Y-75706194D01*
X108815548Y-75697555D01*
X108845665Y-75673054D01*
X108855167Y-75659590D01*
X108869003Y-75643165D01*
X110599736Y-73912432D01*
X110602803Y-73909469D01*
X110647469Y-73867755D01*
X110667643Y-73834578D01*
X110674892Y-73823926D01*
X110698365Y-73792975D01*
X110704413Y-73777636D01*
X110713972Y-73758393D01*
X110722526Y-73744328D01*
X110733004Y-73706926D01*
X110737104Y-73694734D01*
X110751359Y-73658589D01*
X110753042Y-73642204D01*
X110757057Y-73621084D01*
X110759175Y-73613524D01*
X110761500Y-73605228D01*
X110761500Y-73566402D01*
X110762161Y-73553516D01*
X110765250Y-73523468D01*
X110766132Y-73514890D01*
X110763332Y-73498649D01*
X110761500Y-73477241D01*
X110761500Y-68341860D01*
X110771091Y-68293642D01*
X110798405Y-68252765D01*
X112067765Y-66983405D01*
X112108642Y-66956091D01*
X112156860Y-66946500D01*
X135760349Y-66946500D01*
X135821298Y-66962222D01*
X135867034Y-67005463D01*
X135884200Y-67032781D01*
X135890180Y-67042299D01*
X135895184Y-67050262D01*
X136022738Y-67177816D01*
X136175478Y-67273789D01*
X136345745Y-67333368D01*
X136525000Y-67353565D01*
X136704255Y-67333368D01*
X136874522Y-67273789D01*
X137027262Y-67177816D01*
X137154816Y-67050262D01*
X137250789Y-66897522D01*
X137310368Y-66727255D01*
X137330565Y-66548000D01*
X137310368Y-66368745D01*
X137250789Y-66198478D01*
X137199084Y-66116190D01*
X137158583Y-66051733D01*
X137158582Y-66051732D01*
X137154816Y-66045738D01*
X137027262Y-65918184D01*
X137021268Y-65914418D01*
X137021266Y-65914416D01*
X136880513Y-65825975D01*
X136880510Y-65825973D01*
X136874522Y-65822211D01*
X136867846Y-65819875D01*
X136867842Y-65819873D01*
X136710932Y-65764968D01*
X136710928Y-65764967D01*
X136704255Y-65762632D01*
X136697228Y-65761840D01*
X136697227Y-65761840D01*
X136532029Y-65743227D01*
X136525000Y-65742435D01*
X136517971Y-65743227D01*
X136352772Y-65761840D01*
X136352769Y-65761840D01*
X136345745Y-65762632D01*
X136339073Y-65764966D01*
X136339067Y-65764968D01*
X136182157Y-65819873D01*
X136182150Y-65819876D01*
X136175478Y-65822211D01*
X136169492Y-65825971D01*
X136169486Y-65825975D01*
X136089576Y-65876187D01*
X136022540Y-65895500D01*
X115473875Y-65895500D01*
X115412563Y-65879576D01*
X115366748Y-65835830D01*
X115348009Y-65775319D01*
X115361085Y-65713337D01*
X115424229Y-65586528D01*
X115485115Y-65372536D01*
X115505643Y-65151000D01*
X115485115Y-64929464D01*
X115424229Y-64715472D01*
X115361084Y-64588662D01*
X115348009Y-64526681D01*
X115366748Y-64466170D01*
X115412563Y-64422424D01*
X115473875Y-64406500D01*
X127992232Y-64406500D01*
X128040450Y-64416091D01*
X128081327Y-64443405D01*
X128148738Y-64510816D01*
X128301478Y-64606789D01*
X128471745Y-64666368D01*
X128651000Y-64686565D01*
X128830255Y-64666368D01*
X129000522Y-64606789D01*
X129153262Y-64510816D01*
X129280816Y-64383262D01*
X129376789Y-64230522D01*
X129436368Y-64060255D01*
X129456565Y-63881000D01*
X129436368Y-63701745D01*
X129376789Y-63531478D01*
X129280816Y-63378738D01*
X129253673Y-63351595D01*
X129222935Y-63301436D01*
X129218319Y-63242789D01*
X129240832Y-63188439D01*
X129285565Y-63150233D01*
X129342768Y-63136500D01*
X141733632Y-63136500D01*
X141781850Y-63146091D01*
X141822727Y-63173405D01*
X141915538Y-63266216D01*
X141921532Y-63269982D01*
X141921533Y-63269983D01*
X142062286Y-63358424D01*
X142068278Y-63362189D01*
X142238545Y-63421768D01*
X142417800Y-63441965D01*
X142597055Y-63421768D01*
X142767322Y-63362189D01*
X142920062Y-63266216D01*
X143047616Y-63138662D01*
X143143589Y-62985922D01*
X143203168Y-62815655D01*
X143223365Y-62636400D01*
X143203168Y-62457145D01*
X143143589Y-62286878D01*
X143116780Y-62244212D01*
X143051383Y-62140133D01*
X143051382Y-62140132D01*
X143047616Y-62134138D01*
X142920062Y-62006584D01*
X142914068Y-62002818D01*
X142914066Y-62002816D01*
X142773313Y-61914375D01*
X142773310Y-61914373D01*
X142767322Y-61910611D01*
X142760646Y-61908275D01*
X142760642Y-61908273D01*
X142603732Y-61853368D01*
X142603728Y-61853367D01*
X142597055Y-61851032D01*
X142590028Y-61850240D01*
X142590027Y-61850240D01*
X142424829Y-61831627D01*
X142417800Y-61830835D01*
X142410771Y-61831627D01*
X142245572Y-61850240D01*
X142245569Y-61850240D01*
X142238545Y-61851032D01*
X142231873Y-61853366D01*
X142231867Y-61853368D01*
X142074957Y-61908273D01*
X142074950Y-61908276D01*
X142068278Y-61910611D01*
X142062292Y-61914371D01*
X142062286Y-61914375D01*
X141921533Y-62002816D01*
X141921526Y-62002821D01*
X141915538Y-62006584D01*
X141910533Y-62011588D01*
X141910529Y-62011592D01*
X141873527Y-62048595D01*
X141832650Y-62075909D01*
X141784432Y-62085500D01*
X115457443Y-62085500D01*
X115391113Y-62066627D01*
X115344654Y-62015665D01*
X115325058Y-61976311D01*
X115190981Y-61798764D01*
X115186677Y-61794841D01*
X115186675Y-61794838D01*
X115030864Y-61652798D01*
X115030865Y-61652798D01*
X115026562Y-61648876D01*
X114837401Y-61531753D01*
X114831965Y-61529647D01*
X114831959Y-61529644D01*
X114648291Y-61458491D01*
X114599139Y-61424150D01*
X114571426Y-61370980D01*
X114571426Y-61311020D01*
X114599139Y-61257850D01*
X114648291Y-61223509D01*
X114737141Y-61189087D01*
X114837401Y-61150247D01*
X115026562Y-61033124D01*
X115190981Y-60883236D01*
X115325058Y-60705689D01*
X115424229Y-60506528D01*
X115485115Y-60292536D01*
X115505643Y-60071000D01*
X115485115Y-59849464D01*
X115424229Y-59635472D01*
X115325058Y-59436311D01*
X115209671Y-59283513D01*
X115194493Y-59263414D01*
X115194490Y-59263410D01*
X115190981Y-59258764D01*
X115186677Y-59254841D01*
X115186675Y-59254838D01*
X115030864Y-59112798D01*
X115030865Y-59112798D01*
X115026562Y-59108876D01*
X114837401Y-58991753D01*
X114729524Y-58949961D01*
X114635375Y-58913487D01*
X114635369Y-58913485D01*
X114629940Y-58911382D01*
X114624220Y-58910312D01*
X114624214Y-58910311D01*
X114416967Y-58871570D01*
X114416966Y-58871569D01*
X114411243Y-58870500D01*
X114188757Y-58870500D01*
X114183034Y-58871569D01*
X114183032Y-58871570D01*
X113975785Y-58910311D01*
X113975776Y-58910313D01*
X113970060Y-58911382D01*
X113964632Y-58913484D01*
X113964624Y-58913487D01*
X113768037Y-58989646D01*
X113768034Y-58989647D01*
X113762599Y-58991753D01*
X113757643Y-58994821D01*
X113757638Y-58994824D01*
X113578391Y-59105809D01*
X113573438Y-59108876D01*
X113569139Y-59112794D01*
X113569135Y-59112798D01*
X113413324Y-59254838D01*
X113413316Y-59254846D01*
X113409019Y-59258764D01*
X113405514Y-59263404D01*
X113405506Y-59263414D01*
X113278452Y-59431662D01*
X113278448Y-59431667D01*
X113274942Y-59436311D01*
X113272347Y-59441521D01*
X113272344Y-59441527D01*
X113178368Y-59630255D01*
X113178365Y-59630261D01*
X113175771Y-59635472D01*
X113174177Y-59641073D01*
X113174177Y-59641074D01*
X113153383Y-59714159D01*
X113114885Y-59849464D01*
X113094357Y-60071000D01*
X113114885Y-60292536D01*
X113175771Y-60506528D01*
X113274942Y-60705689D01*
X113278452Y-60710337D01*
X113405506Y-60878585D01*
X113405510Y-60878589D01*
X113409019Y-60883236D01*
X113413321Y-60887158D01*
X113413324Y-60887161D01*
X113509428Y-60974771D01*
X113573438Y-61033124D01*
X113762599Y-61150247D01*
X113870474Y-61192038D01*
X113951709Y-61223509D01*
X114000860Y-61257850D01*
X114028573Y-61311020D01*
X114028573Y-61370980D01*
X114000860Y-61424150D01*
X113951709Y-61458491D01*
X113768037Y-61529646D01*
X113768034Y-61529647D01*
X113762599Y-61531753D01*
X113757643Y-61534821D01*
X113757638Y-61534824D01*
X113578391Y-61645809D01*
X113573438Y-61648876D01*
X113569139Y-61652794D01*
X113569135Y-61652798D01*
X113413324Y-61794838D01*
X113413316Y-61794846D01*
X113409019Y-61798764D01*
X113405514Y-61803404D01*
X113405506Y-61803414D01*
X113278452Y-61971662D01*
X113278448Y-61971667D01*
X113274942Y-61976311D01*
X113272349Y-61981519D01*
X113272344Y-61981527D01*
X113178368Y-62170255D01*
X113178365Y-62170261D01*
X113175771Y-62175472D01*
X113114885Y-62389464D01*
X113114348Y-62395256D01*
X113114348Y-62395258D01*
X113107962Y-62464172D01*
X113094357Y-62611000D01*
X113114885Y-62832536D01*
X113175771Y-63046528D01*
X113178367Y-63051741D01*
X113178368Y-63051744D01*
X113238915Y-63173337D01*
X113251991Y-63235319D01*
X113233252Y-63295830D01*
X113187437Y-63339576D01*
X113126125Y-63355500D01*
X112791859Y-63355500D01*
X112743641Y-63345909D01*
X112702764Y-63318595D01*
X111631474Y-62247305D01*
X111628484Y-62244212D01*
X111592637Y-62205829D01*
X111592636Y-62205828D01*
X111586755Y-62199531D01*
X111579392Y-62195053D01*
X111579389Y-62195051D01*
X111553581Y-62179357D01*
X111542914Y-62172097D01*
X111518845Y-62153845D01*
X111518841Y-62153843D01*
X111511975Y-62148636D01*
X111503958Y-62145474D01*
X111503956Y-62145473D01*
X111496640Y-62142588D01*
X111477409Y-62133036D01*
X111463328Y-62124474D01*
X111455032Y-62122149D01*
X111455031Y-62122149D01*
X111425940Y-62113998D01*
X111413716Y-62109887D01*
X111385605Y-62098802D01*
X111385604Y-62098801D01*
X111377589Y-62095641D01*
X111369021Y-62094760D01*
X111369017Y-62094759D01*
X111361192Y-62093955D01*
X111340096Y-62089945D01*
X111332527Y-62087824D01*
X111332519Y-62087822D01*
X111324228Y-62085500D01*
X111315613Y-62085500D01*
X111285394Y-62085500D01*
X111272509Y-62084839D01*
X111242468Y-62081750D01*
X111242462Y-62081750D01*
X111233890Y-62080869D01*
X111225399Y-62082332D01*
X111225394Y-62082333D01*
X111219344Y-62083376D01*
X111217654Y-62083668D01*
X111196248Y-62085500D01*
X107837443Y-62085500D01*
X107771113Y-62066627D01*
X107724654Y-62015665D01*
X107705058Y-61976311D01*
X107570981Y-61798764D01*
X107566677Y-61794841D01*
X107566675Y-61794838D01*
X107410864Y-61652798D01*
X107410865Y-61652798D01*
X107406562Y-61648876D01*
X107217401Y-61531753D01*
X107174131Y-61514990D01*
X107119098Y-61473431D01*
X107094185Y-61409125D01*
X107106857Y-61341336D01*
X107153318Y-61290372D01*
X107219647Y-61271499D01*
X107511518Y-61271499D01*
X107605304Y-61256646D01*
X107718342Y-61199050D01*
X107808050Y-61109342D01*
X107865646Y-60996304D01*
X107880500Y-60902519D01*
X107880499Y-59284858D01*
X107890090Y-59236641D01*
X107917404Y-59195764D01*
X109019764Y-58093405D01*
X109060641Y-58066091D01*
X109108859Y-58056500D01*
X132318139Y-58056500D01*
X132366357Y-58066091D01*
X132407234Y-58093404D01*
X133143322Y-58829491D01*
X133170636Y-58870369D01*
X133180227Y-58918587D01*
X133180227Y-58920970D01*
X133179435Y-58928000D01*
X133199632Y-59107255D01*
X133201967Y-59113928D01*
X133201968Y-59113932D01*
X133256873Y-59270842D01*
X133256875Y-59270846D01*
X133259211Y-59277522D01*
X133355184Y-59430262D01*
X133482738Y-59557816D01*
X133635478Y-59653789D01*
X133805745Y-59713368D01*
X133985000Y-59733565D01*
X134164255Y-59713368D01*
X134334522Y-59653789D01*
X134487262Y-59557816D01*
X134614816Y-59430262D01*
X134710789Y-59277522D01*
X134770368Y-59107255D01*
X134790565Y-58928000D01*
X134770368Y-58748745D01*
X134710789Y-58578478D01*
X134614816Y-58425738D01*
X134487262Y-58298184D01*
X134481268Y-58294418D01*
X134481266Y-58294416D01*
X134340513Y-58205975D01*
X134340510Y-58205973D01*
X134334522Y-58202211D01*
X134327846Y-58199875D01*
X134327842Y-58199873D01*
X134170932Y-58144968D01*
X134170928Y-58144967D01*
X134164255Y-58142632D01*
X134157228Y-58141840D01*
X134157227Y-58141840D01*
X133992029Y-58123227D01*
X133985000Y-58122435D01*
X133977970Y-58123227D01*
X133975586Y-58123227D01*
X133927368Y-58113636D01*
X133886491Y-58086322D01*
X132967474Y-57167305D01*
X132964484Y-57164212D01*
X132928637Y-57125829D01*
X132928636Y-57125828D01*
X132922755Y-57119531D01*
X132915392Y-57115053D01*
X132915389Y-57115051D01*
X132889581Y-57099357D01*
X132878914Y-57092097D01*
X132854845Y-57073845D01*
X132854841Y-57073843D01*
X132847975Y-57068636D01*
X132839958Y-57065474D01*
X132839956Y-57065473D01*
X132832640Y-57062588D01*
X132813409Y-57053036D01*
X132799328Y-57044474D01*
X132791032Y-57042149D01*
X132791031Y-57042149D01*
X132761940Y-57033998D01*
X132749716Y-57029887D01*
X132721605Y-57018802D01*
X132721604Y-57018801D01*
X132713589Y-57015641D01*
X132705021Y-57014760D01*
X132705017Y-57014759D01*
X132697192Y-57013955D01*
X132676096Y-57009945D01*
X132668527Y-57007824D01*
X132668519Y-57007822D01*
X132660228Y-57005500D01*
X132651613Y-57005500D01*
X132621394Y-57005500D01*
X132608509Y-57004839D01*
X132578468Y-57001750D01*
X132578462Y-57001750D01*
X132569890Y-57000869D01*
X132561399Y-57002332D01*
X132561394Y-57002333D01*
X132555558Y-57003340D01*
X132553654Y-57003668D01*
X132532248Y-57005500D01*
X108850149Y-57005500D01*
X108845847Y-57005427D01*
X108793361Y-57003634D01*
X108784755Y-57003340D01*
X108776389Y-57005378D01*
X108776385Y-57005379D01*
X108747025Y-57012533D01*
X108734360Y-57014940D01*
X108704425Y-57019055D01*
X108704420Y-57019056D01*
X108695889Y-57020229D01*
X108687991Y-57023659D01*
X108687985Y-57023661D01*
X108680769Y-57026796D01*
X108660412Y-57033641D01*
X108652783Y-57035500D01*
X108652774Y-57035503D01*
X108644406Y-57037543D01*
X108636895Y-57041765D01*
X108636890Y-57041768D01*
X108610567Y-57056568D01*
X108599019Y-57062304D01*
X108571295Y-57074346D01*
X108571285Y-57074351D01*
X108563391Y-57077781D01*
X108556712Y-57083214D01*
X108556708Y-57083217D01*
X108550605Y-57088183D01*
X108532847Y-57100269D01*
X108525996Y-57104120D01*
X108525988Y-57104125D01*
X108518488Y-57108343D01*
X108512398Y-57114432D01*
X108512395Y-57114435D01*
X108491031Y-57135798D01*
X108481460Y-57144435D01*
X108458022Y-57163504D01*
X108458016Y-57163510D01*
X108451335Y-57168946D01*
X108446366Y-57175983D01*
X108446363Y-57175988D01*
X108441828Y-57182413D01*
X108427990Y-57198839D01*
X106793234Y-58833595D01*
X106752357Y-58860909D01*
X106704139Y-58870500D01*
X105853436Y-58870500D01*
X105853423Y-58870500D01*
X105848482Y-58870501D01*
X105843601Y-58871273D01*
X105843588Y-58871275D01*
X105764493Y-58883802D01*
X105764490Y-58883802D01*
X105754696Y-58885354D01*
X105745859Y-58889856D01*
X105745858Y-58889857D01*
X105650490Y-58938449D01*
X105650486Y-58938451D01*
X105641658Y-58942950D01*
X105634649Y-58949958D01*
X105634646Y-58949961D01*
X105558961Y-59025646D01*
X105558958Y-59025649D01*
X105551950Y-59032658D01*
X105547451Y-59041486D01*
X105547449Y-59041490D01*
X105498854Y-59136862D01*
X105498851Y-59136868D01*
X105494354Y-59145696D01*
X105492803Y-59155485D01*
X105492803Y-59155487D01*
X105480274Y-59234590D01*
X105480273Y-59234598D01*
X105479500Y-59239481D01*
X105479500Y-59244433D01*
X105479500Y-59244434D01*
X105479500Y-60897563D01*
X105479500Y-60897575D01*
X105479501Y-60902518D01*
X105480274Y-60907399D01*
X105480275Y-60907411D01*
X105492802Y-60986506D01*
X105494354Y-60996304D01*
X105551950Y-61109342D01*
X105641658Y-61199050D01*
X105754696Y-61256646D01*
X105848481Y-61271500D01*
X106140352Y-61271499D01*
X106206680Y-61290371D01*
X106253140Y-61341335D01*
X106265813Y-61409123D01*
X106240901Y-61473429D01*
X106185868Y-61514990D01*
X106142599Y-61531753D01*
X106137643Y-61534821D01*
X106137638Y-61534824D01*
X105958391Y-61645809D01*
X105953438Y-61648876D01*
X105949139Y-61652794D01*
X105949135Y-61652798D01*
X105793324Y-61794838D01*
X105793316Y-61794846D01*
X105789019Y-61798764D01*
X105785514Y-61803404D01*
X105785506Y-61803414D01*
X105658452Y-61971662D01*
X105658448Y-61971667D01*
X105654942Y-61976311D01*
X105652349Y-61981519D01*
X105652344Y-61981527D01*
X105558368Y-62170255D01*
X105558365Y-62170261D01*
X105555771Y-62175472D01*
X105494885Y-62389464D01*
X105494348Y-62395256D01*
X105494348Y-62395258D01*
X105487962Y-62464172D01*
X105474357Y-62611000D01*
X105494885Y-62832536D01*
X105555771Y-63046528D01*
X105558367Y-63051741D01*
X105558368Y-63051744D01*
X105635347Y-63206337D01*
X105654942Y-63245689D01*
X105658452Y-63250337D01*
X105785506Y-63418585D01*
X105785510Y-63418589D01*
X105789019Y-63423236D01*
X105793321Y-63427158D01*
X105793324Y-63427161D01*
X105889428Y-63514771D01*
X105953438Y-63573124D01*
X106142599Y-63690247D01*
X106331712Y-63763510D01*
X106380860Y-63797848D01*
X106408573Y-63851019D01*
X106408574Y-63910978D01*
X106380860Y-63964149D01*
X106331709Y-63998490D01*
X106148037Y-64069645D01*
X106148025Y-64069650D01*
X106142599Y-64071753D01*
X106137643Y-64074821D01*
X106137638Y-64074824D01*
X105958391Y-64185809D01*
X105953438Y-64188876D01*
X105949139Y-64192794D01*
X105949135Y-64192798D01*
X105793324Y-64334838D01*
X105793316Y-64334846D01*
X105789019Y-64338764D01*
X105785514Y-64343404D01*
X105785506Y-64343414D01*
X105658452Y-64511662D01*
X105658448Y-64511667D01*
X105654942Y-64516311D01*
X105652347Y-64521521D01*
X105652344Y-64521527D01*
X105558368Y-64710255D01*
X105558365Y-64710261D01*
X105555771Y-64715472D01*
X105494885Y-64929464D01*
X105474357Y-65151000D01*
X105494885Y-65372536D01*
X105555771Y-65586528D01*
X105558367Y-65591741D01*
X105558368Y-65591744D01*
X105643461Y-65762632D01*
X105654942Y-65785689D01*
X105658452Y-65790337D01*
X105785506Y-65958585D01*
X105785510Y-65958589D01*
X105789019Y-65963236D01*
X105793321Y-65967158D01*
X105793324Y-65967161D01*
X105867120Y-66034435D01*
X105953438Y-66113124D01*
X106142599Y-66230247D01*
X106350060Y-66310618D01*
X106568757Y-66351500D01*
X106785416Y-66351500D01*
X106791243Y-66351500D01*
X107009940Y-66310618D01*
X107217401Y-66230247D01*
X107406562Y-66113124D01*
X107570981Y-65963236D01*
X107705058Y-65785689D01*
X107804229Y-65586528D01*
X107865115Y-65372536D01*
X107885643Y-65151000D01*
X107865115Y-64929464D01*
X107804229Y-64715472D01*
X107705058Y-64516311D01*
X107633182Y-64421131D01*
X107574493Y-64343414D01*
X107574490Y-64343410D01*
X107570981Y-64338764D01*
X107566677Y-64334841D01*
X107566675Y-64334838D01*
X107443777Y-64222802D01*
X107406562Y-64188876D01*
X107217401Y-64071753D01*
X107211965Y-64069647D01*
X107211959Y-64069644D01*
X107028291Y-63998491D01*
X106979139Y-63964150D01*
X106951426Y-63910980D01*
X106951426Y-63851020D01*
X106979139Y-63797850D01*
X107028291Y-63763509D01*
X107117141Y-63729087D01*
X107217401Y-63690247D01*
X107406562Y-63573124D01*
X107570981Y-63423236D01*
X107705058Y-63245689D01*
X107724654Y-63206334D01*
X107771113Y-63155373D01*
X107837443Y-63136500D01*
X110982140Y-63136500D01*
X111030358Y-63146091D01*
X111071235Y-63173405D01*
X112144668Y-64246837D01*
X112150541Y-64253124D01*
X112177727Y-64284303D01*
X112177730Y-64284306D01*
X112183393Y-64290800D01*
X112225171Y-64318202D01*
X112232199Y-64323163D01*
X112272025Y-64353364D01*
X112280042Y-64356525D01*
X112287555Y-64360750D01*
X112287530Y-64360793D01*
X112289173Y-64361645D01*
X112289195Y-64361600D01*
X112296977Y-64365301D01*
X112304184Y-64370028D01*
X112345882Y-64383262D01*
X112351822Y-64385147D01*
X112359912Y-64388022D01*
X112406411Y-64406359D01*
X112414986Y-64407240D01*
X112423361Y-64409281D01*
X112423348Y-64409331D01*
X112425158Y-64409707D01*
X112425167Y-64409656D01*
X112433656Y-64411120D01*
X112441873Y-64413728D01*
X112491843Y-64415434D01*
X112500401Y-64416020D01*
X112550109Y-64421131D01*
X112558604Y-64419666D01*
X112567217Y-64419372D01*
X112567218Y-64419423D01*
X112569062Y-64419296D01*
X112569057Y-64419246D01*
X112577621Y-64418365D01*
X112586245Y-64418660D01*
X112621439Y-64410083D01*
X112651273Y-64406500D01*
X113126125Y-64406500D01*
X113187437Y-64422424D01*
X113233252Y-64466170D01*
X113251991Y-64526681D01*
X113238915Y-64588663D01*
X113178368Y-64710255D01*
X113178365Y-64710261D01*
X113175771Y-64715472D01*
X113114885Y-64929464D01*
X113094357Y-65151000D01*
X113114885Y-65372536D01*
X113175771Y-65586528D01*
X113178367Y-65591741D01*
X113178368Y-65591744D01*
X113238915Y-65713337D01*
X113251991Y-65775319D01*
X113233252Y-65835830D01*
X113187437Y-65879576D01*
X113126125Y-65895500D01*
X111898149Y-65895500D01*
X111893847Y-65895427D01*
X111841361Y-65893634D01*
X111832755Y-65893340D01*
X111824392Y-65895377D01*
X111824381Y-65895379D01*
X111795020Y-65902534D01*
X111782351Y-65904942D01*
X111752425Y-65909055D01*
X111752419Y-65909056D01*
X111743889Y-65910229D01*
X111735986Y-65913661D01*
X111735984Y-65913662D01*
X111728770Y-65916795D01*
X111708422Y-65923637D01*
X111700785Y-65925498D01*
X111700772Y-65925502D01*
X111692406Y-65927542D01*
X111684893Y-65931765D01*
X111684891Y-65931767D01*
X111658558Y-65946573D01*
X111647006Y-65952311D01*
X111619298Y-65964346D01*
X111619295Y-65964347D01*
X111611391Y-65967781D01*
X111604706Y-65973218D01*
X111604700Y-65973223D01*
X111598601Y-65978185D01*
X111580849Y-65990267D01*
X111574004Y-65994115D01*
X111573997Y-65994120D01*
X111566489Y-65998342D01*
X111560398Y-66004432D01*
X111560391Y-66004438D01*
X111539031Y-66025798D01*
X111529460Y-66034435D01*
X111506022Y-66053504D01*
X111506016Y-66053510D01*
X111499335Y-66058946D01*
X111494366Y-66065983D01*
X111494363Y-66065988D01*
X111489828Y-66072413D01*
X111475990Y-66088839D01*
X109872303Y-67692526D01*
X109869212Y-67695514D01*
X109830827Y-67731364D01*
X109830824Y-67731367D01*
X109824531Y-67737245D01*
X109805670Y-67768261D01*
X109804356Y-67770421D01*
X109797099Y-67781083D01*
X109778843Y-67805157D01*
X109778840Y-67805162D01*
X109773636Y-67812025D01*
X109770476Y-67820036D01*
X109770471Y-67820046D01*
X109767588Y-67827358D01*
X109758040Y-67846583D01*
X109753950Y-67853308D01*
X109753945Y-67853317D01*
X109749474Y-67860672D01*
X109747150Y-67868965D01*
X109747150Y-67868966D01*
X109738999Y-67898056D01*
X109734888Y-67910280D01*
X109723803Y-67938390D01*
X109723801Y-67938396D01*
X109720641Y-67946411D01*
X109719759Y-67954983D01*
X109719758Y-67954990D01*
X109718954Y-67962806D01*
X109714947Y-67983894D01*
X109712825Y-67991469D01*
X109712823Y-67991477D01*
X109710500Y-67999772D01*
X109710500Y-68008390D01*
X109710500Y-68038606D01*
X109709839Y-68051491D01*
X109706750Y-68081531D01*
X109706750Y-68081537D01*
X109705869Y-68090110D01*
X109707332Y-68098600D01*
X109707333Y-68098605D01*
X109708668Y-68106343D01*
X109710500Y-68127752D01*
X109710500Y-73263140D01*
X109700909Y-73311358D01*
X109673595Y-73352235D01*
X108277236Y-74748595D01*
X108236359Y-74775909D01*
X108188141Y-74785500D01*
X107837443Y-74785500D01*
X107771113Y-74766627D01*
X107724654Y-74715665D01*
X107705058Y-74676311D01*
X107570981Y-74498764D01*
X107566677Y-74494841D01*
X107566675Y-74494838D01*
X107410864Y-74352798D01*
X107410865Y-74352798D01*
X107406562Y-74348876D01*
X107217401Y-74231753D01*
X107211965Y-74229647D01*
X107211959Y-74229644D01*
X107028291Y-74158491D01*
X106979139Y-74124150D01*
X106951426Y-74070980D01*
X106951426Y-74011020D01*
X106979139Y-73957850D01*
X107028291Y-73923509D01*
X107157014Y-73873641D01*
X107217401Y-73850247D01*
X107406562Y-73733124D01*
X107570981Y-73583236D01*
X107705058Y-73405689D01*
X107804229Y-73206528D01*
X107865115Y-72992536D01*
X107885643Y-72771000D01*
X107865115Y-72549464D01*
X107804229Y-72335472D01*
X107705058Y-72136311D01*
X107570981Y-71958764D01*
X107566677Y-71954841D01*
X107566675Y-71954838D01*
X107410864Y-71812798D01*
X107410865Y-71812798D01*
X107406562Y-71808876D01*
X107217401Y-71691753D01*
X107185129Y-71679251D01*
X107015375Y-71613487D01*
X107015369Y-71613485D01*
X107009940Y-71611382D01*
X107004220Y-71610312D01*
X107004214Y-71610311D01*
X106796967Y-71571570D01*
X106796966Y-71571569D01*
X106791243Y-71570500D01*
X106568757Y-71570500D01*
X106563034Y-71571569D01*
X106563032Y-71571570D01*
X106355785Y-71610311D01*
X106355776Y-71610313D01*
X106350060Y-71611382D01*
X106344632Y-71613484D01*
X106344624Y-71613487D01*
X106148037Y-71689646D01*
X106148034Y-71689647D01*
X106142599Y-71691753D01*
X106137643Y-71694821D01*
X106137638Y-71694824D01*
X105976961Y-71794311D01*
X105953438Y-71808876D01*
X105949139Y-71812794D01*
X105949135Y-71812798D01*
X105793324Y-71954838D01*
X105793316Y-71954846D01*
X105789019Y-71958764D01*
X105785514Y-71963404D01*
X105785506Y-71963414D01*
X105658452Y-72131662D01*
X105658448Y-72131667D01*
X105654942Y-72136311D01*
X105652347Y-72141521D01*
X105652344Y-72141527D01*
X105558368Y-72330255D01*
X105558365Y-72330261D01*
X105555771Y-72335472D01*
X105494885Y-72549464D01*
X105474357Y-72771000D01*
X105494885Y-72992536D01*
X105555771Y-73206528D01*
X105558367Y-73211741D01*
X105558368Y-73211744D01*
X105607970Y-73311358D01*
X105654942Y-73405689D01*
X105658452Y-73410337D01*
X105785506Y-73578585D01*
X105785510Y-73578589D01*
X105789019Y-73583236D01*
X105793321Y-73587158D01*
X105793324Y-73587161D01*
X105813143Y-73605228D01*
X105953438Y-73733124D01*
X106142599Y-73850247D01*
X106265502Y-73897860D01*
X106331709Y-73923509D01*
X106380860Y-73957850D01*
X106408573Y-74011020D01*
X106408573Y-74070980D01*
X106380860Y-74124150D01*
X106331709Y-74158491D01*
X106148037Y-74229646D01*
X106148034Y-74229647D01*
X106142599Y-74231753D01*
X106137643Y-74234821D01*
X106137638Y-74234824D01*
X105958391Y-74345809D01*
X105953438Y-74348876D01*
X105949139Y-74352794D01*
X105949135Y-74352798D01*
X105793324Y-74494838D01*
X105793316Y-74494846D01*
X105789019Y-74498764D01*
X105785514Y-74503404D01*
X105785506Y-74503414D01*
X105658452Y-74671662D01*
X105658448Y-74671667D01*
X105654942Y-74676311D01*
X105652349Y-74681519D01*
X105652344Y-74681527D01*
X105558368Y-74870255D01*
X105558365Y-74870261D01*
X105555771Y-74875472D01*
X105494885Y-75089464D01*
X105494348Y-75095256D01*
X105494348Y-75095258D01*
X105478110Y-75270487D01*
X105474357Y-75311000D01*
X105494885Y-75532536D01*
X105555771Y-75746528D01*
X105558367Y-75751741D01*
X105558368Y-75751744D01*
X105630129Y-75895858D01*
X105654942Y-75945689D01*
X105658452Y-75950337D01*
X105785506Y-76118585D01*
X105785510Y-76118589D01*
X105789019Y-76123236D01*
X105793321Y-76127158D01*
X105793324Y-76127161D01*
X105889428Y-76214771D01*
X105953438Y-76273124D01*
X106142599Y-76390247D01*
X106285961Y-76445786D01*
X106331709Y-76463509D01*
X106380860Y-76497850D01*
X106408573Y-76551020D01*
X106408573Y-76610980D01*
X106380860Y-76664150D01*
X106331709Y-76698491D01*
X106148037Y-76769646D01*
X106148034Y-76769647D01*
X106142599Y-76771753D01*
X106137643Y-76774821D01*
X106137638Y-76774824D01*
X105958391Y-76885809D01*
X105953438Y-76888876D01*
X105949139Y-76892794D01*
X105949135Y-76892798D01*
X105793324Y-77034838D01*
X105793316Y-77034846D01*
X105789019Y-77038764D01*
X105785514Y-77043404D01*
X105785506Y-77043414D01*
X105658452Y-77211662D01*
X105658448Y-77211667D01*
X105654942Y-77216311D01*
X105652349Y-77221519D01*
X105652344Y-77221527D01*
X105558368Y-77410255D01*
X105558365Y-77410261D01*
X105555771Y-77415472D01*
X105554177Y-77421073D01*
X105554177Y-77421074D01*
X105531590Y-77500461D01*
X105494885Y-77629464D01*
X105494348Y-77635256D01*
X105494348Y-77635258D01*
X105482195Y-77766409D01*
X105474357Y-77851000D01*
X100042079Y-77851000D01*
X100000516Y-75232505D01*
X100000500Y-75230505D01*
X100000500Y-68000000D01*
X101744723Y-68000000D01*
X101745202Y-68005475D01*
X101763313Y-68212497D01*
X101763314Y-68212503D01*
X101763793Y-68217977D01*
X101765214Y-68223283D01*
X101765216Y-68223290D01*
X101773114Y-68252765D01*
X101820425Y-68429330D01*
X101912898Y-68627639D01*
X101916051Y-68632142D01*
X101916054Y-68632147D01*
X101953336Y-68685391D01*
X102038402Y-68806877D01*
X102193123Y-68961598D01*
X102372361Y-69087102D01*
X102570670Y-69179575D01*
X102782023Y-69236207D01*
X103000000Y-69255277D01*
X103217977Y-69236207D01*
X103429330Y-69179575D01*
X103627639Y-69087102D01*
X103806877Y-68961598D01*
X103961598Y-68806877D01*
X104087102Y-68627639D01*
X104179575Y-68429330D01*
X104236207Y-68217977D01*
X104255277Y-68000000D01*
X104236207Y-67782023D01*
X104179575Y-67570670D01*
X104087102Y-67372362D01*
X104018081Y-67273789D01*
X103964757Y-67197634D01*
X103964754Y-67197631D01*
X103961598Y-67193123D01*
X103806877Y-67038402D01*
X103665932Y-66939711D01*
X103624956Y-66891734D01*
X103612377Y-66829905D01*
X103631350Y-66769729D01*
X103677118Y-66726297D01*
X103738203Y-66710499D01*
X103881518Y-66710499D01*
X103975304Y-66695646D01*
X104088342Y-66638050D01*
X104178050Y-66548342D01*
X104235646Y-66435304D01*
X104250500Y-66341519D01*
X104250499Y-64578482D01*
X104235646Y-64484696D01*
X104178050Y-64371658D01*
X104088342Y-64281950D01*
X104079510Y-64277450D01*
X104079509Y-64277449D01*
X103984137Y-64228854D01*
X103984133Y-64228852D01*
X103975304Y-64224354D01*
X103965512Y-64222803D01*
X103886409Y-64210274D01*
X103886402Y-64210273D01*
X103881519Y-64209500D01*
X103876565Y-64209500D01*
X102123436Y-64209500D01*
X102123423Y-64209500D01*
X102118482Y-64209501D01*
X102113601Y-64210273D01*
X102113588Y-64210275D01*
X102034493Y-64222802D01*
X102034490Y-64222802D01*
X102024696Y-64224354D01*
X102015859Y-64228856D01*
X102015858Y-64228857D01*
X101920490Y-64277449D01*
X101920486Y-64277451D01*
X101911658Y-64281950D01*
X101904649Y-64288958D01*
X101904646Y-64288961D01*
X101828961Y-64364646D01*
X101828958Y-64364649D01*
X101821950Y-64371658D01*
X101817451Y-64380486D01*
X101817449Y-64380490D01*
X101768854Y-64475862D01*
X101768851Y-64475868D01*
X101764354Y-64484696D01*
X101762803Y-64494485D01*
X101762803Y-64494487D01*
X101750274Y-64573590D01*
X101750273Y-64573598D01*
X101749500Y-64578481D01*
X101749500Y-64583433D01*
X101749500Y-64583434D01*
X101749500Y-66336563D01*
X101749500Y-66336575D01*
X101749501Y-66341518D01*
X101750274Y-66346399D01*
X101750275Y-66346411D01*
X101762802Y-66425506D01*
X101764354Y-66435304D01*
X101821950Y-66548342D01*
X101911658Y-66638050D01*
X102024696Y-66695646D01*
X102118481Y-66710500D01*
X102261798Y-66710499D01*
X102322881Y-66726297D01*
X102368650Y-66769729D01*
X102387623Y-66829904D01*
X102375044Y-66891733D01*
X102334067Y-66939712D01*
X102197629Y-67035246D01*
X102197622Y-67035251D01*
X102193123Y-67038402D01*
X102189233Y-67042291D01*
X102189227Y-67042297D01*
X102042297Y-67189227D01*
X102042291Y-67189233D01*
X102038402Y-67193123D01*
X102035250Y-67197624D01*
X102035242Y-67197634D01*
X101916052Y-67367856D01*
X101916046Y-67367865D01*
X101912898Y-67372362D01*
X101910576Y-67377340D01*
X101910575Y-67377343D01*
X101822748Y-67565687D01*
X101822745Y-67565693D01*
X101820425Y-67570670D01*
X101819002Y-67575978D01*
X101819002Y-67575980D01*
X101765216Y-67776709D01*
X101765214Y-67776718D01*
X101763793Y-67782023D01*
X101763314Y-67787494D01*
X101763313Y-67787502D01*
X101753097Y-67904277D01*
X101744723Y-68000000D01*
X100000500Y-68000000D01*
X100000500Y-54854000D01*
X120079357Y-54854000D01*
X120099885Y-55075536D01*
X120160771Y-55289528D01*
X120259942Y-55488689D01*
X120263452Y-55493337D01*
X120390506Y-55661585D01*
X120390510Y-55661589D01*
X120394019Y-55666236D01*
X120398321Y-55670158D01*
X120398324Y-55670161D01*
X120494428Y-55757771D01*
X120558438Y-55816124D01*
X120747599Y-55933247D01*
X120955060Y-56013618D01*
X121173757Y-56054500D01*
X121390416Y-56054500D01*
X121396243Y-56054500D01*
X121614940Y-56013618D01*
X121822401Y-55933247D01*
X122011562Y-55816124D01*
X122175981Y-55666236D01*
X122310058Y-55488689D01*
X122409229Y-55289528D01*
X122470115Y-55075536D01*
X122490643Y-54854000D01*
X122470115Y-54632464D01*
X122409229Y-54418472D01*
X122310058Y-54219311D01*
X122175981Y-54041764D01*
X122171677Y-54037841D01*
X122171675Y-54037838D01*
X122015864Y-53895798D01*
X122015865Y-53895798D01*
X122011562Y-53891876D01*
X121940700Y-53848000D01*
X122809000Y-53848000D01*
X122809000Y-55880000D01*
X124824410Y-55880000D01*
X124841000Y-55880000D01*
X124841000Y-54854000D01*
X125159357Y-54854000D01*
X125179885Y-55075536D01*
X125240771Y-55289528D01*
X125339942Y-55488689D01*
X125343452Y-55493337D01*
X125470506Y-55661585D01*
X125470510Y-55661589D01*
X125474019Y-55666236D01*
X125478321Y-55670158D01*
X125478324Y-55670161D01*
X125574428Y-55757771D01*
X125638438Y-55816124D01*
X125827599Y-55933247D01*
X126035060Y-56013618D01*
X126253757Y-56054500D01*
X126470416Y-56054500D01*
X126476243Y-56054500D01*
X126694940Y-56013618D01*
X126902401Y-55933247D01*
X127091562Y-55816124D01*
X127255981Y-55666236D01*
X127390058Y-55488689D01*
X127489229Y-55289528D01*
X127513809Y-55203135D01*
X127546731Y-55147701D01*
X127602764Y-55115809D01*
X127667236Y-55115809D01*
X127723269Y-55147701D01*
X127756190Y-55203135D01*
X127780771Y-55289528D01*
X127879942Y-55488689D01*
X127883452Y-55493337D01*
X128010506Y-55661585D01*
X128010510Y-55661589D01*
X128014019Y-55666236D01*
X128018321Y-55670158D01*
X128018324Y-55670161D01*
X128114428Y-55757771D01*
X128178438Y-55816124D01*
X128367599Y-55933247D01*
X128575060Y-56013618D01*
X128793757Y-56054500D01*
X129010416Y-56054500D01*
X129016243Y-56054500D01*
X129234940Y-56013618D01*
X129442401Y-55933247D01*
X129631562Y-55816124D01*
X129795981Y-55666236D01*
X129930058Y-55488689D01*
X130029229Y-55289528D01*
X130053809Y-55203135D01*
X130086731Y-55147701D01*
X130142764Y-55115809D01*
X130207236Y-55115809D01*
X130263269Y-55147701D01*
X130296190Y-55203135D01*
X130320771Y-55289528D01*
X130419942Y-55488689D01*
X130423452Y-55493337D01*
X130550506Y-55661585D01*
X130550510Y-55661589D01*
X130554019Y-55666236D01*
X130558321Y-55670158D01*
X130558324Y-55670161D01*
X130654428Y-55757771D01*
X130718438Y-55816124D01*
X130907599Y-55933247D01*
X131115060Y-56013618D01*
X131333757Y-56054500D01*
X131550416Y-56054500D01*
X131556243Y-56054500D01*
X131774940Y-56013618D01*
X131982401Y-55933247D01*
X132171562Y-55816124D01*
X132335981Y-55666236D01*
X132470058Y-55488689D01*
X132569229Y-55289528D01*
X132593809Y-55203135D01*
X132626731Y-55147701D01*
X132682764Y-55115809D01*
X132747236Y-55115809D01*
X132803269Y-55147701D01*
X132836190Y-55203135D01*
X132860771Y-55289528D01*
X132959942Y-55488689D01*
X132963452Y-55493337D01*
X133090506Y-55661585D01*
X133090510Y-55661589D01*
X133094019Y-55666236D01*
X133098321Y-55670158D01*
X133098324Y-55670161D01*
X133194428Y-55757771D01*
X133258438Y-55816124D01*
X133447599Y-55933247D01*
X133655060Y-56013618D01*
X133873757Y-56054500D01*
X134090416Y-56054500D01*
X134096243Y-56054500D01*
X134314940Y-56013618D01*
X134522401Y-55933247D01*
X134711562Y-55816124D01*
X134875981Y-55666236D01*
X135010058Y-55488689D01*
X135109229Y-55289528D01*
X135133809Y-55203135D01*
X135166731Y-55147701D01*
X135222764Y-55115809D01*
X135287236Y-55115809D01*
X135343269Y-55147701D01*
X135376190Y-55203135D01*
X135400771Y-55289528D01*
X135499942Y-55488689D01*
X135503452Y-55493337D01*
X135630506Y-55661585D01*
X135630510Y-55661589D01*
X135634019Y-55666236D01*
X135638321Y-55670158D01*
X135638324Y-55670161D01*
X135734428Y-55757771D01*
X135798438Y-55816124D01*
X135987599Y-55933247D01*
X136195060Y-56013618D01*
X136413757Y-56054500D01*
X136630416Y-56054500D01*
X136636243Y-56054500D01*
X136854940Y-56013618D01*
X137062401Y-55933247D01*
X137251562Y-55816124D01*
X137415981Y-55666236D01*
X137550058Y-55488689D01*
X137649229Y-55289528D01*
X137673809Y-55203135D01*
X137706731Y-55147701D01*
X137762764Y-55115809D01*
X137827236Y-55115809D01*
X137883269Y-55147701D01*
X137916190Y-55203135D01*
X137940771Y-55289528D01*
X138039942Y-55488689D01*
X138043452Y-55493337D01*
X138170506Y-55661585D01*
X138170510Y-55661589D01*
X138174019Y-55666236D01*
X138178321Y-55670158D01*
X138178324Y-55670161D01*
X138274428Y-55757771D01*
X138338438Y-55816124D01*
X138527599Y-55933247D01*
X138735060Y-56013618D01*
X138953757Y-56054500D01*
X139170416Y-56054500D01*
X139176243Y-56054500D01*
X139394940Y-56013618D01*
X139602401Y-55933247D01*
X139791562Y-55816124D01*
X139955981Y-55666236D01*
X140090058Y-55488689D01*
X140189229Y-55289528D01*
X140213809Y-55203135D01*
X140246731Y-55147701D01*
X140302764Y-55115809D01*
X140367236Y-55115809D01*
X140423269Y-55147701D01*
X140456190Y-55203135D01*
X140480771Y-55289528D01*
X140579942Y-55488689D01*
X140583452Y-55493337D01*
X140710506Y-55661585D01*
X140710510Y-55661589D01*
X140714019Y-55666236D01*
X140718321Y-55670158D01*
X140718324Y-55670161D01*
X140814428Y-55757771D01*
X140878438Y-55816124D01*
X141067599Y-55933247D01*
X141275060Y-56013618D01*
X141493757Y-56054500D01*
X141710416Y-56054500D01*
X141716243Y-56054500D01*
X141934940Y-56013618D01*
X142142401Y-55933247D01*
X142331562Y-55816124D01*
X142495981Y-55666236D01*
X142630058Y-55488689D01*
X142729229Y-55289528D01*
X142753809Y-55203135D01*
X142786731Y-55147701D01*
X142842764Y-55115809D01*
X142907236Y-55115809D01*
X142963269Y-55147701D01*
X142996190Y-55203135D01*
X143020771Y-55289528D01*
X143119942Y-55488689D01*
X143123452Y-55493337D01*
X143250506Y-55661585D01*
X143250510Y-55661589D01*
X143254019Y-55666236D01*
X143258321Y-55670158D01*
X143258324Y-55670161D01*
X143354428Y-55757771D01*
X143418438Y-55816124D01*
X143607599Y-55933247D01*
X143815060Y-56013618D01*
X144033757Y-56054500D01*
X144250416Y-56054500D01*
X144256243Y-56054500D01*
X144474940Y-56013618D01*
X144682401Y-55933247D01*
X144871562Y-55816124D01*
X145035981Y-55666236D01*
X145170058Y-55488689D01*
X145269229Y-55289528D01*
X145293809Y-55203135D01*
X145326731Y-55147701D01*
X145382764Y-55115809D01*
X145447236Y-55115809D01*
X145503269Y-55147701D01*
X145536190Y-55203135D01*
X145560771Y-55289528D01*
X145659942Y-55488689D01*
X145663452Y-55493337D01*
X145790506Y-55661585D01*
X145790510Y-55661589D01*
X145794019Y-55666236D01*
X145798321Y-55670158D01*
X145798324Y-55670161D01*
X145894428Y-55757771D01*
X145958438Y-55816124D01*
X146147599Y-55933247D01*
X146355060Y-56013618D01*
X146573757Y-56054500D01*
X146790416Y-56054500D01*
X146796243Y-56054500D01*
X147014940Y-56013618D01*
X147222401Y-55933247D01*
X147411562Y-55816124D01*
X147575981Y-55666236D01*
X147710058Y-55488689D01*
X147809229Y-55289528D01*
X147833809Y-55203135D01*
X147866731Y-55147701D01*
X147922764Y-55115809D01*
X147987236Y-55115809D01*
X148043269Y-55147701D01*
X148076190Y-55203135D01*
X148100771Y-55289528D01*
X148199942Y-55488689D01*
X148203452Y-55493337D01*
X148330506Y-55661585D01*
X148330510Y-55661589D01*
X148334019Y-55666236D01*
X148338321Y-55670158D01*
X148338324Y-55670161D01*
X148434428Y-55757771D01*
X148498438Y-55816124D01*
X148687599Y-55933247D01*
X148895060Y-56013618D01*
X149113757Y-56054500D01*
X149330416Y-56054500D01*
X149336243Y-56054500D01*
X149554940Y-56013618D01*
X149762401Y-55933247D01*
X149951562Y-55816124D01*
X150115981Y-55666236D01*
X150250058Y-55488689D01*
X150349229Y-55289528D01*
X150373809Y-55203135D01*
X150406731Y-55147701D01*
X150462764Y-55115809D01*
X150527236Y-55115809D01*
X150583269Y-55147701D01*
X150616190Y-55203135D01*
X150640771Y-55289528D01*
X150739942Y-55488689D01*
X150743452Y-55493337D01*
X150870506Y-55661585D01*
X150870510Y-55661589D01*
X150874019Y-55666236D01*
X150878321Y-55670158D01*
X150878324Y-55670161D01*
X150974428Y-55757771D01*
X151038438Y-55816124D01*
X151227599Y-55933247D01*
X151435060Y-56013618D01*
X151653757Y-56054500D01*
X151870416Y-56054500D01*
X151876243Y-56054500D01*
X152094940Y-56013618D01*
X152302401Y-55933247D01*
X152491562Y-55816124D01*
X152655981Y-55666236D01*
X152790058Y-55488689D01*
X152889229Y-55289528D01*
X152913809Y-55203135D01*
X152946731Y-55147701D01*
X153002764Y-55115809D01*
X153067236Y-55115809D01*
X153123269Y-55147701D01*
X153156190Y-55203135D01*
X153180771Y-55289528D01*
X153279942Y-55488689D01*
X153283452Y-55493337D01*
X153410506Y-55661585D01*
X153410510Y-55661589D01*
X153414019Y-55666236D01*
X153418321Y-55670158D01*
X153418324Y-55670161D01*
X153514428Y-55757771D01*
X153578438Y-55816124D01*
X153767599Y-55933247D01*
X153975060Y-56013618D01*
X154193757Y-56054500D01*
X154410416Y-56054500D01*
X154416243Y-56054500D01*
X154634940Y-56013618D01*
X154842401Y-55933247D01*
X155031562Y-55816124D01*
X155195981Y-55666236D01*
X155330058Y-55488689D01*
X155429229Y-55289528D01*
X155453809Y-55203135D01*
X155486731Y-55147701D01*
X155542764Y-55115809D01*
X155607236Y-55115809D01*
X155663269Y-55147701D01*
X155696190Y-55203135D01*
X155720771Y-55289528D01*
X155819942Y-55488689D01*
X155823452Y-55493337D01*
X155950506Y-55661585D01*
X155950510Y-55661589D01*
X155954019Y-55666236D01*
X155958321Y-55670158D01*
X155958324Y-55670161D01*
X156054428Y-55757771D01*
X156118438Y-55816124D01*
X156307599Y-55933247D01*
X156515060Y-56013618D01*
X156733757Y-56054500D01*
X156950416Y-56054500D01*
X156956243Y-56054500D01*
X157174940Y-56013618D01*
X157382401Y-55933247D01*
X157571562Y-55816124D01*
X157735981Y-55666236D01*
X157870058Y-55488689D01*
X157969229Y-55289528D01*
X158030115Y-55075536D01*
X158050643Y-54854000D01*
X158030115Y-54632464D01*
X157969229Y-54418472D01*
X157870058Y-54219311D01*
X157735981Y-54041764D01*
X157731677Y-54037841D01*
X157731675Y-54037838D01*
X157575864Y-53895798D01*
X157575865Y-53895798D01*
X157571562Y-53891876D01*
X157382401Y-53774753D01*
X157350129Y-53762251D01*
X157180375Y-53696487D01*
X157180369Y-53696485D01*
X157174940Y-53694382D01*
X157169220Y-53693312D01*
X157169214Y-53693311D01*
X156961967Y-53654570D01*
X156961966Y-53654569D01*
X156956243Y-53653500D01*
X156733757Y-53653500D01*
X156728034Y-53654569D01*
X156728032Y-53654570D01*
X156520785Y-53693311D01*
X156520776Y-53693313D01*
X156515060Y-53694382D01*
X156509632Y-53696484D01*
X156509624Y-53696487D01*
X156313037Y-53772646D01*
X156313034Y-53772647D01*
X156307599Y-53774753D01*
X156302643Y-53777821D01*
X156302638Y-53777824D01*
X156123391Y-53888809D01*
X156118438Y-53891876D01*
X156114139Y-53895794D01*
X156114135Y-53895798D01*
X155958324Y-54037838D01*
X155958316Y-54037846D01*
X155954019Y-54041764D01*
X155950514Y-54046404D01*
X155950506Y-54046414D01*
X155823452Y-54214662D01*
X155823448Y-54214667D01*
X155819942Y-54219311D01*
X155817347Y-54224521D01*
X155817344Y-54224527D01*
X155723368Y-54413255D01*
X155723365Y-54413261D01*
X155720771Y-54418472D01*
X155719177Y-54424073D01*
X155719177Y-54424074D01*
X155696190Y-54504865D01*
X155663268Y-54560298D01*
X155607236Y-54592190D01*
X155542764Y-54592190D01*
X155486732Y-54560298D01*
X155453810Y-54504865D01*
X155452351Y-54499737D01*
X155429229Y-54418472D01*
X155330058Y-54219311D01*
X155195981Y-54041764D01*
X155191677Y-54037841D01*
X155191675Y-54037838D01*
X155035864Y-53895798D01*
X155035865Y-53895798D01*
X155031562Y-53891876D01*
X154842401Y-53774753D01*
X154810129Y-53762251D01*
X154640375Y-53696487D01*
X154640369Y-53696485D01*
X154634940Y-53694382D01*
X154629220Y-53693312D01*
X154629214Y-53693311D01*
X154421967Y-53654570D01*
X154421966Y-53654569D01*
X154416243Y-53653500D01*
X154193757Y-53653500D01*
X154188034Y-53654569D01*
X154188032Y-53654570D01*
X153980785Y-53693311D01*
X153980776Y-53693313D01*
X153975060Y-53694382D01*
X153969632Y-53696484D01*
X153969624Y-53696487D01*
X153773037Y-53772646D01*
X153773034Y-53772647D01*
X153767599Y-53774753D01*
X153762643Y-53777821D01*
X153762638Y-53777824D01*
X153583391Y-53888809D01*
X153578438Y-53891876D01*
X153574139Y-53895794D01*
X153574135Y-53895798D01*
X153418324Y-54037838D01*
X153418316Y-54037846D01*
X153414019Y-54041764D01*
X153410514Y-54046404D01*
X153410506Y-54046414D01*
X153283452Y-54214662D01*
X153283448Y-54214667D01*
X153279942Y-54219311D01*
X153277347Y-54224521D01*
X153277344Y-54224527D01*
X153183368Y-54413255D01*
X153183365Y-54413261D01*
X153180771Y-54418472D01*
X153179177Y-54424073D01*
X153179177Y-54424074D01*
X153156190Y-54504865D01*
X153123268Y-54560298D01*
X153067236Y-54592190D01*
X153002764Y-54592190D01*
X152946732Y-54560298D01*
X152913810Y-54504865D01*
X152912351Y-54499737D01*
X152889229Y-54418472D01*
X152790058Y-54219311D01*
X152655981Y-54041764D01*
X152651677Y-54037841D01*
X152651675Y-54037838D01*
X152495864Y-53895798D01*
X152495865Y-53895798D01*
X152491562Y-53891876D01*
X152302401Y-53774753D01*
X152270129Y-53762251D01*
X152100375Y-53696487D01*
X152100369Y-53696485D01*
X152094940Y-53694382D01*
X152089220Y-53693312D01*
X152089214Y-53693311D01*
X151881967Y-53654570D01*
X151881966Y-53654569D01*
X151876243Y-53653500D01*
X151653757Y-53653500D01*
X151648034Y-53654569D01*
X151648032Y-53654570D01*
X151440785Y-53693311D01*
X151440776Y-53693313D01*
X151435060Y-53694382D01*
X151429632Y-53696484D01*
X151429624Y-53696487D01*
X151233037Y-53772646D01*
X151233034Y-53772647D01*
X151227599Y-53774753D01*
X151222643Y-53777821D01*
X151222638Y-53777824D01*
X151043391Y-53888809D01*
X151038438Y-53891876D01*
X151034139Y-53895794D01*
X151034135Y-53895798D01*
X150878324Y-54037838D01*
X150878316Y-54037846D01*
X150874019Y-54041764D01*
X150870514Y-54046404D01*
X150870506Y-54046414D01*
X150743452Y-54214662D01*
X150743448Y-54214667D01*
X150739942Y-54219311D01*
X150737347Y-54224521D01*
X150737344Y-54224527D01*
X150643368Y-54413255D01*
X150643365Y-54413261D01*
X150640771Y-54418472D01*
X150639177Y-54424073D01*
X150639177Y-54424074D01*
X150616190Y-54504865D01*
X150583268Y-54560298D01*
X150527236Y-54592190D01*
X150462764Y-54592190D01*
X150406732Y-54560298D01*
X150373810Y-54504865D01*
X150372351Y-54499737D01*
X150349229Y-54418472D01*
X150250058Y-54219311D01*
X150115981Y-54041764D01*
X150111677Y-54037841D01*
X150111675Y-54037838D01*
X149955864Y-53895798D01*
X149955865Y-53895798D01*
X149951562Y-53891876D01*
X149762401Y-53774753D01*
X149730129Y-53762251D01*
X149560375Y-53696487D01*
X149560369Y-53696485D01*
X149554940Y-53694382D01*
X149549220Y-53693312D01*
X149549214Y-53693311D01*
X149341967Y-53654570D01*
X149341966Y-53654569D01*
X149336243Y-53653500D01*
X149113757Y-53653500D01*
X149108034Y-53654569D01*
X149108032Y-53654570D01*
X148900785Y-53693311D01*
X148900776Y-53693313D01*
X148895060Y-53694382D01*
X148889632Y-53696484D01*
X148889624Y-53696487D01*
X148693037Y-53772646D01*
X148693034Y-53772647D01*
X148687599Y-53774753D01*
X148682643Y-53777821D01*
X148682638Y-53777824D01*
X148503391Y-53888809D01*
X148498438Y-53891876D01*
X148494139Y-53895794D01*
X148494135Y-53895798D01*
X148338324Y-54037838D01*
X148338316Y-54037846D01*
X148334019Y-54041764D01*
X148330514Y-54046404D01*
X148330506Y-54046414D01*
X148203452Y-54214662D01*
X148203448Y-54214667D01*
X148199942Y-54219311D01*
X148197347Y-54224521D01*
X148197344Y-54224527D01*
X148103368Y-54413255D01*
X148103365Y-54413261D01*
X148100771Y-54418472D01*
X148099177Y-54424073D01*
X148099177Y-54424074D01*
X148076190Y-54504865D01*
X148043268Y-54560298D01*
X147987236Y-54592190D01*
X147922764Y-54592190D01*
X147866732Y-54560298D01*
X147833810Y-54504865D01*
X147832351Y-54499737D01*
X147809229Y-54418472D01*
X147710058Y-54219311D01*
X147575981Y-54041764D01*
X147571677Y-54037841D01*
X147571675Y-54037838D01*
X147415864Y-53895798D01*
X147415865Y-53895798D01*
X147411562Y-53891876D01*
X147222401Y-53774753D01*
X147190129Y-53762251D01*
X147020375Y-53696487D01*
X147020369Y-53696485D01*
X147014940Y-53694382D01*
X147009220Y-53693312D01*
X147009214Y-53693311D01*
X146801967Y-53654570D01*
X146801966Y-53654569D01*
X146796243Y-53653500D01*
X146573757Y-53653500D01*
X146568034Y-53654569D01*
X146568032Y-53654570D01*
X146360785Y-53693311D01*
X146360776Y-53693313D01*
X146355060Y-53694382D01*
X146349632Y-53696484D01*
X146349624Y-53696487D01*
X146153037Y-53772646D01*
X146153034Y-53772647D01*
X146147599Y-53774753D01*
X146142643Y-53777821D01*
X146142638Y-53777824D01*
X145963391Y-53888809D01*
X145958438Y-53891876D01*
X145954139Y-53895794D01*
X145954135Y-53895798D01*
X145798324Y-54037838D01*
X145798316Y-54037846D01*
X145794019Y-54041764D01*
X145790514Y-54046404D01*
X145790506Y-54046414D01*
X145663452Y-54214662D01*
X145663448Y-54214667D01*
X145659942Y-54219311D01*
X145657347Y-54224521D01*
X145657344Y-54224527D01*
X145563368Y-54413255D01*
X145563365Y-54413261D01*
X145560771Y-54418472D01*
X145559177Y-54424073D01*
X145559177Y-54424074D01*
X145536190Y-54504865D01*
X145503268Y-54560298D01*
X145447236Y-54592190D01*
X145382764Y-54592190D01*
X145326732Y-54560298D01*
X145293810Y-54504865D01*
X145292351Y-54499737D01*
X145269229Y-54418472D01*
X145170058Y-54219311D01*
X145035981Y-54041764D01*
X145031677Y-54037841D01*
X145031675Y-54037838D01*
X144875864Y-53895798D01*
X144875865Y-53895798D01*
X144871562Y-53891876D01*
X144682401Y-53774753D01*
X144650129Y-53762251D01*
X144480375Y-53696487D01*
X144480369Y-53696485D01*
X144474940Y-53694382D01*
X144469220Y-53693312D01*
X144469214Y-53693311D01*
X144261967Y-53654570D01*
X144261966Y-53654569D01*
X144256243Y-53653500D01*
X144033757Y-53653500D01*
X144028034Y-53654569D01*
X144028032Y-53654570D01*
X143820785Y-53693311D01*
X143820776Y-53693313D01*
X143815060Y-53694382D01*
X143809632Y-53696484D01*
X143809624Y-53696487D01*
X143613037Y-53772646D01*
X143613034Y-53772647D01*
X143607599Y-53774753D01*
X143602643Y-53777821D01*
X143602638Y-53777824D01*
X143423391Y-53888809D01*
X143418438Y-53891876D01*
X143414139Y-53895794D01*
X143414135Y-53895798D01*
X143258324Y-54037838D01*
X143258316Y-54037846D01*
X143254019Y-54041764D01*
X143250514Y-54046404D01*
X143250506Y-54046414D01*
X143123452Y-54214662D01*
X143123448Y-54214667D01*
X143119942Y-54219311D01*
X143117347Y-54224521D01*
X143117344Y-54224527D01*
X143023368Y-54413255D01*
X143023365Y-54413261D01*
X143020771Y-54418472D01*
X143019177Y-54424073D01*
X143019177Y-54424074D01*
X142996190Y-54504865D01*
X142963268Y-54560298D01*
X142907236Y-54592190D01*
X142842764Y-54592190D01*
X142786732Y-54560298D01*
X142753810Y-54504865D01*
X142752351Y-54499737D01*
X142729229Y-54418472D01*
X142630058Y-54219311D01*
X142495981Y-54041764D01*
X142491677Y-54037841D01*
X142491675Y-54037838D01*
X142335864Y-53895798D01*
X142335865Y-53895798D01*
X142331562Y-53891876D01*
X142142401Y-53774753D01*
X142110129Y-53762251D01*
X141940375Y-53696487D01*
X141940369Y-53696485D01*
X141934940Y-53694382D01*
X141929220Y-53693312D01*
X141929214Y-53693311D01*
X141721967Y-53654570D01*
X141721966Y-53654569D01*
X141716243Y-53653500D01*
X141493757Y-53653500D01*
X141488034Y-53654569D01*
X141488032Y-53654570D01*
X141280785Y-53693311D01*
X141280776Y-53693313D01*
X141275060Y-53694382D01*
X141269632Y-53696484D01*
X141269624Y-53696487D01*
X141073037Y-53772646D01*
X141073034Y-53772647D01*
X141067599Y-53774753D01*
X141062643Y-53777821D01*
X141062638Y-53777824D01*
X140883391Y-53888809D01*
X140878438Y-53891876D01*
X140874139Y-53895794D01*
X140874135Y-53895798D01*
X140718324Y-54037838D01*
X140718316Y-54037846D01*
X140714019Y-54041764D01*
X140710514Y-54046404D01*
X140710506Y-54046414D01*
X140583452Y-54214662D01*
X140583448Y-54214667D01*
X140579942Y-54219311D01*
X140577347Y-54224521D01*
X140577344Y-54224527D01*
X140483368Y-54413255D01*
X140483365Y-54413261D01*
X140480771Y-54418472D01*
X140479177Y-54424073D01*
X140479177Y-54424074D01*
X140456190Y-54504865D01*
X140423268Y-54560298D01*
X140367236Y-54592190D01*
X140302764Y-54592190D01*
X140246732Y-54560298D01*
X140213810Y-54504865D01*
X140212351Y-54499737D01*
X140189229Y-54418472D01*
X140090058Y-54219311D01*
X139955981Y-54041764D01*
X139951677Y-54037841D01*
X139951675Y-54037838D01*
X139795864Y-53895798D01*
X139795865Y-53895798D01*
X139791562Y-53891876D01*
X139602401Y-53774753D01*
X139570129Y-53762251D01*
X139400375Y-53696487D01*
X139400369Y-53696485D01*
X139394940Y-53694382D01*
X139389220Y-53693312D01*
X139389214Y-53693311D01*
X139181967Y-53654570D01*
X139181966Y-53654569D01*
X139176243Y-53653500D01*
X138953757Y-53653500D01*
X138948034Y-53654569D01*
X138948032Y-53654570D01*
X138740785Y-53693311D01*
X138740776Y-53693313D01*
X138735060Y-53694382D01*
X138729632Y-53696484D01*
X138729624Y-53696487D01*
X138533037Y-53772646D01*
X138533034Y-53772647D01*
X138527599Y-53774753D01*
X138522643Y-53777821D01*
X138522638Y-53777824D01*
X138343391Y-53888809D01*
X138338438Y-53891876D01*
X138334139Y-53895794D01*
X138334135Y-53895798D01*
X138178324Y-54037838D01*
X138178316Y-54037846D01*
X138174019Y-54041764D01*
X138170514Y-54046404D01*
X138170506Y-54046414D01*
X138043452Y-54214662D01*
X138043448Y-54214667D01*
X138039942Y-54219311D01*
X138037347Y-54224521D01*
X138037344Y-54224527D01*
X137943368Y-54413255D01*
X137943365Y-54413261D01*
X137940771Y-54418472D01*
X137939177Y-54424073D01*
X137939177Y-54424074D01*
X137916190Y-54504865D01*
X137883268Y-54560298D01*
X137827236Y-54592190D01*
X137762764Y-54592190D01*
X137706732Y-54560298D01*
X137673810Y-54504865D01*
X137672351Y-54499737D01*
X137649229Y-54418472D01*
X137550058Y-54219311D01*
X137415981Y-54041764D01*
X137411677Y-54037841D01*
X137411675Y-54037838D01*
X137255864Y-53895798D01*
X137255865Y-53895798D01*
X137251562Y-53891876D01*
X137062401Y-53774753D01*
X137030129Y-53762251D01*
X136860375Y-53696487D01*
X136860369Y-53696485D01*
X136854940Y-53694382D01*
X136849220Y-53693312D01*
X136849214Y-53693311D01*
X136641967Y-53654570D01*
X136641966Y-53654569D01*
X136636243Y-53653500D01*
X136413757Y-53653500D01*
X136408034Y-53654569D01*
X136408032Y-53654570D01*
X136200785Y-53693311D01*
X136200776Y-53693313D01*
X136195060Y-53694382D01*
X136189632Y-53696484D01*
X136189624Y-53696487D01*
X135993037Y-53772646D01*
X135993034Y-53772647D01*
X135987599Y-53774753D01*
X135982643Y-53777821D01*
X135982638Y-53777824D01*
X135803391Y-53888809D01*
X135798438Y-53891876D01*
X135794139Y-53895794D01*
X135794135Y-53895798D01*
X135638324Y-54037838D01*
X135638316Y-54037846D01*
X135634019Y-54041764D01*
X135630514Y-54046404D01*
X135630506Y-54046414D01*
X135503452Y-54214662D01*
X135503448Y-54214667D01*
X135499942Y-54219311D01*
X135497347Y-54224521D01*
X135497344Y-54224527D01*
X135403368Y-54413255D01*
X135403365Y-54413261D01*
X135400771Y-54418472D01*
X135399177Y-54424073D01*
X135399177Y-54424074D01*
X135376190Y-54504865D01*
X135343268Y-54560298D01*
X135287236Y-54592190D01*
X135222764Y-54592190D01*
X135166732Y-54560298D01*
X135133810Y-54504865D01*
X135132351Y-54499737D01*
X135109229Y-54418472D01*
X135010058Y-54219311D01*
X134875981Y-54041764D01*
X134871677Y-54037841D01*
X134871675Y-54037838D01*
X134715864Y-53895798D01*
X134715865Y-53895798D01*
X134711562Y-53891876D01*
X134522401Y-53774753D01*
X134490129Y-53762251D01*
X134320375Y-53696487D01*
X134320369Y-53696485D01*
X134314940Y-53694382D01*
X134309220Y-53693312D01*
X134309214Y-53693311D01*
X134101967Y-53654570D01*
X134101966Y-53654569D01*
X134096243Y-53653500D01*
X133873757Y-53653500D01*
X133868034Y-53654569D01*
X133868032Y-53654570D01*
X133660785Y-53693311D01*
X133660776Y-53693313D01*
X133655060Y-53694382D01*
X133649632Y-53696484D01*
X133649624Y-53696487D01*
X133453037Y-53772646D01*
X133453034Y-53772647D01*
X133447599Y-53774753D01*
X133442643Y-53777821D01*
X133442638Y-53777824D01*
X133263391Y-53888809D01*
X133258438Y-53891876D01*
X133254139Y-53895794D01*
X133254135Y-53895798D01*
X133098324Y-54037838D01*
X133098316Y-54037846D01*
X133094019Y-54041764D01*
X133090514Y-54046404D01*
X133090506Y-54046414D01*
X132963452Y-54214662D01*
X132963448Y-54214667D01*
X132959942Y-54219311D01*
X132957347Y-54224521D01*
X132957344Y-54224527D01*
X132863368Y-54413255D01*
X132863365Y-54413261D01*
X132860771Y-54418472D01*
X132859177Y-54424073D01*
X132859177Y-54424074D01*
X132836190Y-54504865D01*
X132803268Y-54560298D01*
X132747236Y-54592190D01*
X132682764Y-54592190D01*
X132626732Y-54560298D01*
X132593810Y-54504865D01*
X132592351Y-54499737D01*
X132569229Y-54418472D01*
X132470058Y-54219311D01*
X132335981Y-54041764D01*
X132331677Y-54037841D01*
X132331675Y-54037838D01*
X132175864Y-53895798D01*
X132175865Y-53895798D01*
X132171562Y-53891876D01*
X131982401Y-53774753D01*
X131950129Y-53762251D01*
X131780375Y-53696487D01*
X131780369Y-53696485D01*
X131774940Y-53694382D01*
X131769220Y-53693312D01*
X131769214Y-53693311D01*
X131561967Y-53654570D01*
X131561966Y-53654569D01*
X131556243Y-53653500D01*
X131333757Y-53653500D01*
X131328034Y-53654569D01*
X131328032Y-53654570D01*
X131120785Y-53693311D01*
X131120776Y-53693313D01*
X131115060Y-53694382D01*
X131109632Y-53696484D01*
X131109624Y-53696487D01*
X130913037Y-53772646D01*
X130913034Y-53772647D01*
X130907599Y-53774753D01*
X130902643Y-53777821D01*
X130902638Y-53777824D01*
X130723391Y-53888809D01*
X130718438Y-53891876D01*
X130714139Y-53895794D01*
X130714135Y-53895798D01*
X130558324Y-54037838D01*
X130558316Y-54037846D01*
X130554019Y-54041764D01*
X130550514Y-54046404D01*
X130550506Y-54046414D01*
X130423452Y-54214662D01*
X130423448Y-54214667D01*
X130419942Y-54219311D01*
X130417347Y-54224521D01*
X130417344Y-54224527D01*
X130323368Y-54413255D01*
X130323365Y-54413261D01*
X130320771Y-54418472D01*
X130319177Y-54424073D01*
X130319177Y-54424074D01*
X130296190Y-54504865D01*
X130263268Y-54560298D01*
X130207236Y-54592190D01*
X130142764Y-54592190D01*
X130086732Y-54560298D01*
X130053810Y-54504865D01*
X130052351Y-54499737D01*
X130029229Y-54418472D01*
X129930058Y-54219311D01*
X129795981Y-54041764D01*
X129791677Y-54037841D01*
X129791675Y-54037838D01*
X129635864Y-53895798D01*
X129635865Y-53895798D01*
X129631562Y-53891876D01*
X129442401Y-53774753D01*
X129410129Y-53762251D01*
X129240375Y-53696487D01*
X129240369Y-53696485D01*
X129234940Y-53694382D01*
X129229220Y-53693312D01*
X129229214Y-53693311D01*
X129021967Y-53654570D01*
X129021966Y-53654569D01*
X129016243Y-53653500D01*
X128793757Y-53653500D01*
X128788034Y-53654569D01*
X128788032Y-53654570D01*
X128580785Y-53693311D01*
X128580776Y-53693313D01*
X128575060Y-53694382D01*
X128569632Y-53696484D01*
X128569624Y-53696487D01*
X128373037Y-53772646D01*
X128373034Y-53772647D01*
X128367599Y-53774753D01*
X128362643Y-53777821D01*
X128362638Y-53777824D01*
X128183391Y-53888809D01*
X128178438Y-53891876D01*
X128174139Y-53895794D01*
X128174135Y-53895798D01*
X128018324Y-54037838D01*
X128018316Y-54037846D01*
X128014019Y-54041764D01*
X128010514Y-54046404D01*
X128010506Y-54046414D01*
X127883452Y-54214662D01*
X127883448Y-54214667D01*
X127879942Y-54219311D01*
X127877347Y-54224521D01*
X127877344Y-54224527D01*
X127783368Y-54413255D01*
X127783365Y-54413261D01*
X127780771Y-54418472D01*
X127779177Y-54424073D01*
X127779177Y-54424074D01*
X127756190Y-54504865D01*
X127723268Y-54560298D01*
X127667236Y-54592190D01*
X127602764Y-54592190D01*
X127546732Y-54560298D01*
X127513810Y-54504865D01*
X127512351Y-54499737D01*
X127489229Y-54418472D01*
X127390058Y-54219311D01*
X127255981Y-54041764D01*
X127251677Y-54037841D01*
X127251675Y-54037838D01*
X127095864Y-53895798D01*
X127095865Y-53895798D01*
X127091562Y-53891876D01*
X126902401Y-53774753D01*
X126870129Y-53762251D01*
X126700375Y-53696487D01*
X126700369Y-53696485D01*
X126694940Y-53694382D01*
X126689220Y-53693312D01*
X126689214Y-53693311D01*
X126481967Y-53654570D01*
X126481966Y-53654569D01*
X126476243Y-53653500D01*
X126253757Y-53653500D01*
X126248034Y-53654569D01*
X126248032Y-53654570D01*
X126040785Y-53693311D01*
X126040776Y-53693313D01*
X126035060Y-53694382D01*
X126029632Y-53696484D01*
X126029624Y-53696487D01*
X125833037Y-53772646D01*
X125833034Y-53772647D01*
X125827599Y-53774753D01*
X125822643Y-53777821D01*
X125822638Y-53777824D01*
X125643391Y-53888809D01*
X125638438Y-53891876D01*
X125634139Y-53895794D01*
X125634135Y-53895798D01*
X125478324Y-54037838D01*
X125478316Y-54037846D01*
X125474019Y-54041764D01*
X125470514Y-54046404D01*
X125470506Y-54046414D01*
X125343452Y-54214662D01*
X125343448Y-54214667D01*
X125339942Y-54219311D01*
X125337347Y-54224521D01*
X125337344Y-54224527D01*
X125243368Y-54413255D01*
X125243365Y-54413261D01*
X125240771Y-54418472D01*
X125179885Y-54632464D01*
X125159357Y-54854000D01*
X124841000Y-54854000D01*
X124841000Y-53848000D01*
X122809000Y-53848000D01*
X121940700Y-53848000D01*
X121822401Y-53774753D01*
X121790129Y-53762251D01*
X121620375Y-53696487D01*
X121620369Y-53696485D01*
X121614940Y-53694382D01*
X121609220Y-53693312D01*
X121609214Y-53693311D01*
X121401967Y-53654570D01*
X121401966Y-53654569D01*
X121396243Y-53653500D01*
X121173757Y-53653500D01*
X121168034Y-53654569D01*
X121168032Y-53654570D01*
X120960785Y-53693311D01*
X120960776Y-53693313D01*
X120955060Y-53694382D01*
X120949632Y-53696484D01*
X120949624Y-53696487D01*
X120753037Y-53772646D01*
X120753034Y-53772647D01*
X120747599Y-53774753D01*
X120742643Y-53777821D01*
X120742638Y-53777824D01*
X120563391Y-53888809D01*
X120558438Y-53891876D01*
X120554139Y-53895794D01*
X120554135Y-53895798D01*
X120398324Y-54037838D01*
X120398316Y-54037846D01*
X120394019Y-54041764D01*
X120390514Y-54046404D01*
X120390506Y-54046414D01*
X120263452Y-54214662D01*
X120263448Y-54214667D01*
X120259942Y-54219311D01*
X120257347Y-54224521D01*
X120257344Y-54224527D01*
X120163368Y-54413255D01*
X120163365Y-54413261D01*
X120160771Y-54418472D01*
X120099885Y-54632464D01*
X120079357Y-54854000D01*
X100000500Y-54854000D01*
X100000500Y-53581575D01*
X109869500Y-53581575D01*
X109869501Y-53586518D01*
X109870274Y-53591399D01*
X109870275Y-53591411D01*
X109882802Y-53670506D01*
X109884354Y-53680304D01*
X109941950Y-53793342D01*
X110031658Y-53883050D01*
X110144696Y-53940646D01*
X110238481Y-53955500D01*
X112001518Y-53955499D01*
X112095304Y-53940646D01*
X112208342Y-53883050D01*
X112298050Y-53793342D01*
X112355646Y-53680304D01*
X112370500Y-53586519D01*
X112370499Y-53443202D01*
X112386297Y-53382120D01*
X112429729Y-53336351D01*
X112489904Y-53317378D01*
X112551733Y-53329957D01*
X112599712Y-53370934D01*
X112698402Y-53511877D01*
X112853123Y-53666598D01*
X113032361Y-53792102D01*
X113230670Y-53884575D01*
X113442023Y-53941207D01*
X113660000Y-53960277D01*
X113877977Y-53941207D01*
X114089330Y-53884575D01*
X114287639Y-53792102D01*
X114466877Y-53666598D01*
X114621598Y-53511877D01*
X114747102Y-53332639D01*
X114839575Y-53134330D01*
X114896207Y-52922977D01*
X114915277Y-52705000D01*
X114896207Y-52487023D01*
X114839575Y-52275670D01*
X114747102Y-52077362D01*
X114736000Y-52061506D01*
X114624757Y-51902634D01*
X114624753Y-51902629D01*
X114621598Y-51898123D01*
X114466877Y-51743402D01*
X114386951Y-51687437D01*
X114292147Y-51621054D01*
X114292142Y-51621051D01*
X114287639Y-51617898D01*
X114141935Y-51549955D01*
X114094312Y-51527748D01*
X114094310Y-51527747D01*
X114089330Y-51525425D01*
X114060603Y-51517727D01*
X113883290Y-51470216D01*
X113883283Y-51470214D01*
X113877977Y-51468793D01*
X113872503Y-51468314D01*
X113872497Y-51468313D01*
X113665475Y-51450202D01*
X113660000Y-51449723D01*
X113654525Y-51450202D01*
X113447502Y-51468313D01*
X113447494Y-51468314D01*
X113442023Y-51468793D01*
X113436718Y-51470214D01*
X113436709Y-51470216D01*
X113235980Y-51524002D01*
X113235978Y-51524002D01*
X113230670Y-51525425D01*
X113225693Y-51527745D01*
X113225687Y-51527748D01*
X113037343Y-51615575D01*
X113037340Y-51615576D01*
X113032362Y-51617898D01*
X113027865Y-51621046D01*
X113027856Y-51621052D01*
X112857634Y-51740242D01*
X112857624Y-51740250D01*
X112853123Y-51743402D01*
X112849233Y-51747291D01*
X112849227Y-51747297D01*
X112702297Y-51894227D01*
X112702291Y-51894233D01*
X112698402Y-51898123D01*
X112695251Y-51902622D01*
X112695246Y-51902629D01*
X112680814Y-51923241D01*
X112607544Y-52027883D01*
X112599712Y-52039068D01*
X112551734Y-52080045D01*
X112489905Y-52092624D01*
X112429729Y-52073651D01*
X112386297Y-52027883D01*
X112370499Y-51966797D01*
X112370499Y-51828437D01*
X112370499Y-51828434D01*
X112370499Y-51823482D01*
X112355646Y-51729696D01*
X112298050Y-51616658D01*
X112208342Y-51526950D01*
X112199510Y-51522450D01*
X112199509Y-51522449D01*
X112104137Y-51473854D01*
X112104133Y-51473852D01*
X112095304Y-51469354D01*
X112085512Y-51467803D01*
X112006409Y-51455274D01*
X112006402Y-51455273D01*
X112001519Y-51454500D01*
X111996565Y-51454500D01*
X110243436Y-51454500D01*
X110243423Y-51454500D01*
X110238482Y-51454501D01*
X110233601Y-51455273D01*
X110233588Y-51455275D01*
X110154493Y-51467802D01*
X110154490Y-51467802D01*
X110144696Y-51469354D01*
X110135859Y-51473856D01*
X110135858Y-51473857D01*
X110040490Y-51522449D01*
X110040486Y-51522451D01*
X110031658Y-51526950D01*
X110024649Y-51533958D01*
X110024646Y-51533961D01*
X109948961Y-51609646D01*
X109948958Y-51609649D01*
X109941950Y-51616658D01*
X109937451Y-51625486D01*
X109937449Y-51625490D01*
X109888854Y-51720862D01*
X109888851Y-51720868D01*
X109884354Y-51729696D01*
X109882803Y-51739485D01*
X109882803Y-51739487D01*
X109870274Y-51818590D01*
X109870273Y-51818598D01*
X109869500Y-51823481D01*
X109869500Y-51828433D01*
X109869500Y-51828434D01*
X109869500Y-53581563D01*
X109869500Y-53581575D01*
X100000500Y-53581575D01*
X100000500Y-53003293D01*
X100000673Y-52996700D01*
X100003120Y-52950000D01*
X100007501Y-52866397D01*
X100015617Y-52721891D01*
X100015860Y-52718444D01*
X100020025Y-52669069D01*
X100021125Y-52659990D01*
X100042529Y-52524847D01*
X100042688Y-52523878D01*
X100065520Y-52389500D01*
X100066153Y-52386074D01*
X100067101Y-52381307D01*
X100073153Y-52350877D01*
X100075005Y-52342932D01*
X100112165Y-52204248D01*
X100112702Y-52202317D01*
X100152333Y-52064754D01*
X100153319Y-52061506D01*
X100159866Y-52040965D01*
X100162256Y-52034155D01*
X100215569Y-51895271D01*
X100216696Y-51892444D01*
X100274966Y-51751767D01*
X100276296Y-51748680D01*
X100278777Y-51743137D01*
X100281486Y-51737470D01*
X100351589Y-51599886D01*
X100353505Y-51596278D01*
X100428542Y-51460508D01*
X100433123Y-51452873D01*
X100518615Y-51321227D01*
X100521448Y-51317055D01*
X100610977Y-51190878D01*
X100615771Y-51184556D01*
X100714679Y-51062415D01*
X100718557Y-51057857D01*
X100821585Y-50942569D01*
X100826373Y-50937506D01*
X100937506Y-50826373D01*
X100942569Y-50821585D01*
X101057857Y-50718557D01*
X101062415Y-50714679D01*
X101184556Y-50615771D01*
X101190878Y-50610977D01*
X101317055Y-50521448D01*
X101321227Y-50518615D01*
X101452873Y-50433123D01*
X101460508Y-50428542D01*
X101596278Y-50353505D01*
X101599886Y-50351589D01*
X101737470Y-50281486D01*
X101743137Y-50278777D01*
X101748680Y-50276296D01*
X101751767Y-50274966D01*
X101892444Y-50216696D01*
X101895271Y-50215569D01*
X102034155Y-50162256D01*
X102040965Y-50159866D01*
X102061506Y-50153319D01*
X102064754Y-50152333D01*
X102202317Y-50112702D01*
X102204248Y-50112165D01*
X102342932Y-50075005D01*
X102350877Y-50073153D01*
X102386074Y-50066153D01*
X102389500Y-50065520D01*
X102523878Y-50042688D01*
X102524847Y-50042529D01*
X102659990Y-50021125D01*
X102669069Y-50020025D01*
X102718445Y-50015860D01*
X102721886Y-50015618D01*
X102866558Y-50007493D01*
X102996789Y-50000668D01*
X103003222Y-50000496D01*
X103589826Y-50000000D01*
X162491242Y-50000000D01*
X162496496Y-50000110D01*
G37*
G04 #@! TD.AperFunction*
M02*
