G04 #@! TF.GenerationSoftware,KiCad,Pcbnew,(7.0.0)*
G04 #@! TF.CreationDate,2023-02-16T13:39:53+01:00*
G04 #@! TF.ProjectId,Sumo,53756d6f-2e6b-4696-9361-645f70636258,rev?*
G04 #@! TF.SameCoordinates,Original*
G04 #@! TF.FileFunction,Legend,Bot*
G04 #@! TF.FilePolarity,Positive*
%FSLAX46Y46*%
G04 Gerber Fmt 4.6, Leading zero omitted, Abs format (unit mm)*
G04 Created by KiCad (PCBNEW (7.0.0)) date 2023-02-16 13:39:53*
%MOMM*%
%LPD*%
G01*
G04 APERTURE LIST*
G04 Aperture macros list*
%AMRoundRect*
0 Rectangle with rounded corners*
0 $1 Rounding radius*
0 $2 $3 $4 $5 $6 $7 $8 $9 X,Y pos of 4 corners*
0 Add a 4 corners polygon primitive as box body*
4,1,4,$2,$3,$4,$5,$6,$7,$8,$9,$2,$3,0*
0 Add four circle primitives for the rounded corners*
1,1,$1+$1,$2,$3*
1,1,$1+$1,$4,$5*
1,1,$1+$1,$6,$7*
1,1,$1+$1,$8,$9*
0 Add four rect primitives between the rounded corners*
20,1,$1+$1,$2,$3,$4,$5,0*
20,1,$1+$1,$4,$5,$6,$7,0*
20,1,$1+$1,$6,$7,$8,$9,0*
20,1,$1+$1,$8,$9,$2,$3,0*%
G04 Aperture macros list end*
%ADD10R,1.600000X1.600000*%
%ADD11O,1.600000X1.600000*%
%ADD12R,1.700000X1.700000*%
%ADD13O,1.700000X1.700000*%
%ADD14C,1.600000*%
%ADD15C,5.600000*%
%ADD16RoundRect,0.250000X-0.625000X0.350000X-0.625000X-0.350000X0.625000X-0.350000X0.625000X0.350000X0*%
%ADD17O,1.750000X1.200000*%
G04 APERTURE END LIST*
G36*
X150365096Y-83536983D02*
G01*
X150455533Y-83607311D01*
X150247051Y-83655028D01*
X150048880Y-83641213D01*
X149990609Y-83552408D01*
X150059734Y-83513691D01*
X150365096Y-83536983D01*
G37*
G36*
X150365096Y-82560060D02*
G01*
X150455533Y-82630388D01*
X150247051Y-82678105D01*
X150048880Y-82664290D01*
X149990609Y-82575485D01*
X150059734Y-82536768D01*
X150365096Y-82560060D01*
G37*
G36*
X134046410Y-81000197D02*
G01*
X134076978Y-81058965D01*
X133916154Y-81130453D01*
X133812718Y-81116353D01*
X133785898Y-81000197D01*
X133814535Y-80976813D01*
X134046410Y-81000197D01*
G37*
G36*
X150471282Y-80604284D02*
G01*
X150504875Y-80613953D01*
X150533802Y-80673420D01*
X150230769Y-80701594D01*
X150184499Y-80701862D01*
X149878633Y-80675666D01*
X149885128Y-80611524D01*
X150045673Y-80575681D01*
X150471282Y-80604284D01*
G37*
G36*
X150472314Y-83921018D02*
G01*
X150608365Y-83955707D01*
X150478698Y-83990718D01*
X150035385Y-84005340D01*
X149672761Y-83998943D01*
X149416769Y-83969447D01*
X149495391Y-83923685D01*
X149894485Y-83888876D01*
X150472314Y-83921018D01*
G37*
G36*
X139777692Y-81998153D02*
G01*
X139753780Y-82143725D01*
X139582308Y-82302761D01*
X139535951Y-82297499D01*
X139386923Y-82118907D01*
X139394376Y-82064090D01*
X139582308Y-81814299D01*
X139682972Y-81795919D01*
X139777692Y-81998153D01*
G37*
G36*
X138605385Y-77015845D02*
G01*
X138597876Y-77072559D01*
X138410000Y-77222761D01*
X138365783Y-77220521D01*
X138214615Y-77136600D01*
X138223606Y-77105258D01*
X138410000Y-76929684D01*
X138485685Y-76899155D01*
X138605385Y-77015845D01*
G37*
G36*
X137870548Y-74688439D02*
G01*
X138019231Y-74878146D01*
X138013553Y-74924847D01*
X137823846Y-75073530D01*
X137777144Y-75067853D01*
X137628462Y-74878146D01*
X137634139Y-74831444D01*
X137823846Y-74682761D01*
X137870548Y-74688439D01*
G37*
G36*
X130647975Y-75992752D02*
G01*
X130790000Y-76257369D01*
X130784408Y-76300990D01*
X130594615Y-76441223D01*
X130501241Y-76403943D01*
X130399231Y-76136615D01*
X130427347Y-75997055D01*
X130594615Y-75952761D01*
X130647975Y-75992752D01*
G37*
G36*
X128926036Y-75888134D02*
G01*
X129031539Y-76148146D01*
X129009495Y-76282969D01*
X128836154Y-76441223D01*
X128746271Y-76408157D01*
X128640769Y-76148146D01*
X128662813Y-76013322D01*
X128836154Y-75855069D01*
X128926036Y-75888134D01*
G37*
G36*
X127895580Y-78028212D02*
G01*
X128054615Y-78199684D01*
X128049353Y-78246041D01*
X127870762Y-78395069D01*
X127815945Y-78387616D01*
X127566154Y-78199684D01*
X127547773Y-78099020D01*
X127750008Y-78004299D01*
X127895580Y-78028212D01*
G37*
G36*
X124592844Y-85629892D02*
G01*
X124733077Y-85819684D01*
X124695797Y-85913058D01*
X124428469Y-86015069D01*
X124288909Y-85986953D01*
X124244615Y-85819684D01*
X124284607Y-85766324D01*
X124549223Y-85624299D01*
X124592844Y-85629892D01*
G37*
G36*
X141844603Y-81924749D02*
G01*
X141988950Y-82069698D01*
X142122308Y-82326685D01*
X142121342Y-82356558D01*
X142018014Y-82506607D01*
X141828265Y-82399366D01*
X141672006Y-82096210D01*
X141649842Y-82006655D01*
X141649273Y-81810261D01*
X141844603Y-81924749D01*
G37*
G36*
X136831869Y-85117556D02*
G01*
X137208861Y-85169034D01*
X137311234Y-85272607D01*
X137147582Y-85370467D01*
X136749231Y-85428915D01*
X136436442Y-85394264D01*
X136187228Y-85272607D01*
X136180288Y-85252810D01*
X136337228Y-85155788D01*
X136749231Y-85116299D01*
X136831869Y-85117556D01*
G37*
G36*
X135504153Y-74226288D02*
G01*
X135608652Y-74356873D01*
X135647329Y-74468285D01*
X135381539Y-74350382D01*
X135100618Y-74251047D01*
X134719342Y-74246049D01*
X134584299Y-74268866D01*
X134584334Y-74121955D01*
X134739354Y-73966160D01*
X135111611Y-73938284D01*
X135504153Y-74226288D01*
G37*
G36*
X131376154Y-85071985D02*
G01*
X131376114Y-85073881D01*
X131201695Y-85186700D01*
X130790000Y-85233530D01*
X130783822Y-85233526D01*
X130373996Y-85211084D01*
X130203846Y-85158014D01*
X130203919Y-85156805D01*
X130379109Y-85078563D01*
X130790000Y-84996469D01*
X130806064Y-84994171D01*
X131209248Y-84983863D01*
X131376154Y-85071985D01*
G37*
G36*
X135996926Y-79652364D02*
G01*
X135783810Y-79866667D01*
X135486736Y-80046218D01*
X134940974Y-80126895D01*
X134493351Y-79849660D01*
X134370383Y-79686597D01*
X134421216Y-79642187D01*
X134767804Y-79785745D01*
X134827047Y-79812127D01*
X135248473Y-79925617D01*
X135523608Y-79796538D01*
X135651312Y-79692398D01*
X135957923Y-79573590D01*
X135996926Y-79652364D01*
G37*
G36*
X133243622Y-74062777D02*
G01*
X133492030Y-74291992D01*
X133517307Y-74373885D01*
X133499494Y-74483487D01*
X133264082Y-74316914D01*
X133225347Y-74285546D01*
X132925653Y-74146850D01*
X132614380Y-74316914D01*
X132522082Y-74391480D01*
X132354752Y-74480840D01*
X132386432Y-74291992D01*
X132545983Y-74109886D01*
X132939231Y-73998915D01*
X133243622Y-74062777D01*
G37*
G36*
X131718077Y-79635084D02*
G01*
X132115577Y-79776620D01*
X132646154Y-79751526D01*
X133053658Y-79612545D01*
X133291638Y-79597587D01*
X133222539Y-79743796D01*
X133061313Y-79851076D01*
X132646154Y-79999821D01*
X132254101Y-80008899D01*
X131758835Y-79908878D01*
X131350543Y-79737920D01*
X131180769Y-79543245D01*
X131181664Y-79533217D01*
X131349048Y-79497320D01*
X131718077Y-79635084D01*
G37*
G36*
X129033912Y-85819769D02*
G01*
X128843059Y-86010801D01*
X128824625Y-86022384D01*
X128668671Y-86212722D01*
X128823795Y-86488639D01*
X128939221Y-86677529D01*
X128884002Y-86796607D01*
X128735538Y-86747069D01*
X128440316Y-86497423D01*
X128392462Y-86436798D01*
X128315556Y-86182098D01*
X128562624Y-85927244D01*
X128818563Y-85776541D01*
X129025573Y-85748590D01*
X129033912Y-85819769D01*
G37*
G36*
X126433978Y-80935069D02*
G01*
X126438322Y-81554381D01*
X126486733Y-82300693D01*
X126570738Y-82840069D01*
X126579035Y-82872486D01*
X126642137Y-83329489D01*
X126515962Y-83475069D01*
X126381272Y-83385184D01*
X126296154Y-83049325D01*
X126234749Y-82584141D01*
X126078011Y-82020319D01*
X125990922Y-81716673D01*
X125982590Y-81204328D01*
X126161059Y-80541062D01*
X126462248Y-79665069D01*
X126433978Y-80935069D01*
G37*
G36*
X154720961Y-87274092D02*
G01*
X154776341Y-87658848D01*
X154842695Y-88295255D01*
X154909910Y-89092376D01*
X154929964Y-89372741D01*
X154966565Y-90234575D01*
X154935842Y-90736790D01*
X154836976Y-90899684D01*
X154810261Y-90890437D01*
X154710101Y-90617670D01*
X154648141Y-89983562D01*
X154626923Y-89010966D01*
X154629754Y-88493916D01*
X154644463Y-87805342D01*
X154668898Y-87348803D01*
X154699857Y-87203658D01*
X154720961Y-87274092D01*
G37*
G36*
X153169861Y-86595711D02*
G01*
X153222235Y-87088642D01*
X153281876Y-87817842D01*
X153341405Y-88701607D01*
X153373685Y-89297659D01*
X153395576Y-90195862D01*
X153361057Y-90725776D01*
X153269727Y-90899684D01*
X153213523Y-90844053D01*
X153131662Y-90452349D01*
X153081123Y-89703906D01*
X153063846Y-88620197D01*
X153069374Y-87751011D01*
X153084749Y-87038913D01*
X153107593Y-86571624D01*
X153135525Y-86422120D01*
X153169861Y-86595711D01*
G37*
G36*
X114282188Y-83653434D02*
G01*
X114982659Y-83928097D01*
X115693777Y-84188737D01*
X116911264Y-84509736D01*
X118277641Y-84760052D01*
X119653077Y-84910278D01*
X120074571Y-84940966D01*
X120233750Y-84964167D01*
X120033298Y-84981493D01*
X119457692Y-85000082D01*
X117806124Y-84930589D01*
X116216526Y-84645750D01*
X114838035Y-84171174D01*
X114203451Y-83854387D01*
X113880542Y-83636820D01*
X113910802Y-83563088D01*
X114282188Y-83653434D01*
G37*
G36*
X139136812Y-75845196D02*
G01*
X139273023Y-76538915D01*
X139283078Y-76591152D01*
X139399123Y-77277710D01*
X139459457Y-77801630D01*
X139451169Y-78053146D01*
X139281231Y-78188839D01*
X139075189Y-77974111D01*
X139027790Y-77854706D01*
X139194553Y-77908470D01*
X139202529Y-77913360D01*
X139365886Y-77951018D01*
X139306342Y-77694428D01*
X139246817Y-77480629D01*
X139152554Y-76921327D01*
X139083462Y-76245838D01*
X139058873Y-75891294D01*
X139041054Y-75538881D01*
X139063261Y-75517683D01*
X139136812Y-75845196D01*
G37*
G36*
X154372606Y-81537032D02*
G01*
X154438495Y-82107376D01*
X154459331Y-82313414D01*
X154520219Y-83194667D01*
X154561189Y-84229030D01*
X154574292Y-85233530D01*
X154573221Y-85508166D01*
X154568059Y-86248518D01*
X154556412Y-86627146D01*
X154532482Y-86666750D01*
X154490471Y-86390029D01*
X154424582Y-85819684D01*
X154403747Y-85613647D01*
X154342858Y-84732393D01*
X154301888Y-83698030D01*
X154288785Y-82693530D01*
X154289856Y-82418894D01*
X154295018Y-81678542D01*
X154306665Y-81299914D01*
X154330595Y-81260311D01*
X154372606Y-81537032D01*
G37*
G36*
X127014031Y-81050947D02*
G01*
X127085633Y-81483907D01*
X127103123Y-81624488D01*
X127308827Y-82148687D01*
X127671787Y-82686150D01*
X127821613Y-82875818D01*
X128122072Y-83374598D01*
X128234131Y-83760765D01*
X128218544Y-83950819D01*
X128151712Y-83974422D01*
X127989900Y-83655557D01*
X127945985Y-83565963D01*
X127628605Y-83051457D01*
X127224231Y-82517105D01*
X127159870Y-82435568D01*
X126909312Y-81999460D01*
X126735989Y-81521921D01*
X126660189Y-81102617D01*
X126702199Y-80841214D01*
X126882308Y-80837376D01*
X127014031Y-81050947D01*
G37*
G36*
X143226869Y-71882454D02*
G01*
X144303851Y-71904408D01*
X145482896Y-71936099D01*
X146714556Y-71976489D01*
X147949386Y-72024541D01*
X149137940Y-72079218D01*
X150230769Y-72139483D01*
X150410037Y-72150949D01*
X150798099Y-72184866D01*
X150809292Y-72208201D01*
X150454346Y-72220763D01*
X149743994Y-72222359D01*
X148688968Y-72212797D01*
X147300000Y-72191887D01*
X145971507Y-72164833D01*
X144586495Y-72127491D01*
X143338068Y-72084532D01*
X142289765Y-72038447D01*
X141505126Y-71991726D01*
X141047692Y-71946860D01*
X140928494Y-71912749D01*
X141102762Y-71885384D01*
X141576878Y-71871905D01*
X142301396Y-71871274D01*
X143226869Y-71882454D01*
G37*
G36*
X138270023Y-88210605D02*
G01*
X138432311Y-88528482D01*
X138606794Y-89048563D01*
X138673867Y-89277501D01*
X138883042Y-89829579D01*
X139049282Y-90002228D01*
X139164907Y-89793538D01*
X139222234Y-89201600D01*
X139252930Y-88261992D01*
X139490470Y-90215838D01*
X139957121Y-89238915D01*
X140167060Y-88838646D01*
X140386647Y-88522454D01*
X140502918Y-88491627D01*
X140494247Y-88656640D01*
X140351956Y-89100711D01*
X140105579Y-89667953D01*
X139812309Y-90230869D01*
X139529339Y-90661961D01*
X139409150Y-90774207D01*
X139134927Y-90848249D01*
X139056228Y-90769387D01*
X138872274Y-90421007D01*
X138656037Y-89895069D01*
X138444569Y-89299000D01*
X138274920Y-88740230D01*
X138184139Y-88326187D01*
X138209278Y-88164299D01*
X138270023Y-88210605D01*
G37*
G36*
X123294962Y-66121894D02*
G01*
X123450092Y-66354018D01*
X123279463Y-66779141D01*
X123168818Y-66966365D01*
X123137216Y-67197872D01*
X123320234Y-67450215D01*
X123767239Y-67829714D01*
X123814215Y-67868001D01*
X124337323Y-68412420D01*
X124541945Y-68897686D01*
X124407436Y-69277120D01*
X124216101Y-69396769D01*
X123901875Y-69332692D01*
X123720897Y-68977655D01*
X123708857Y-68923221D01*
X123458169Y-68530303D01*
X123004927Y-68167306D01*
X122351393Y-67786679D01*
X121896514Y-68352797D01*
X121632531Y-68656001D01*
X121438321Y-68761593D01*
X121317121Y-68600786D01*
X121310876Y-68578295D01*
X121388103Y-68249078D01*
X121647888Y-67747026D01*
X122017995Y-67175909D01*
X122426185Y-66639492D01*
X122800224Y-66241546D01*
X123067873Y-66085838D01*
X123294962Y-66121894D01*
G37*
G36*
X142765765Y-63780649D02*
G01*
X142903846Y-63988212D01*
X142868035Y-64189181D01*
X142726104Y-64681284D01*
X142513077Y-65304299D01*
X142502917Y-65332134D01*
X142244271Y-66094871D01*
X142142796Y-66564516D01*
X142193815Y-66801780D01*
X142392649Y-66867376D01*
X142586056Y-66781745D01*
X143013995Y-66413250D01*
X143599760Y-65788225D01*
X144306298Y-64943911D01*
X144386464Y-64858432D01*
X144598531Y-64823929D01*
X144915411Y-65079796D01*
X145069210Y-65244245D01*
X145198120Y-65518111D01*
X145055046Y-65790388D01*
X144868553Y-65945013D01*
X144624827Y-65931127D01*
X144463697Y-65937800D01*
X144093238Y-66171558D01*
X143606717Y-66606692D01*
X143434731Y-66772584D01*
X142734297Y-67291084D01*
X142118962Y-67454178D01*
X141553821Y-67273199D01*
X141493982Y-67230305D01*
X141376040Y-66984280D01*
X141482315Y-66543499D01*
X141533732Y-66397869D01*
X141730846Y-65783529D01*
X141927301Y-65108915D01*
X141997856Y-64851829D01*
X142146347Y-64312301D01*
X142236906Y-63985453D01*
X142256720Y-63934078D01*
X142483878Y-63762331D01*
X142765765Y-63780649D01*
G37*
G36*
X127785739Y-65905131D02*
G01*
X127844856Y-65979651D01*
X126923967Y-66805528D01*
X126474786Y-67196589D01*
X126080208Y-67514779D01*
X125883275Y-67640159D01*
X125863532Y-67636141D01*
X125633019Y-67461004D01*
X125254058Y-67094017D01*
X124811540Y-66627159D01*
X124390355Y-66152407D01*
X124075391Y-65761739D01*
X123951539Y-65547131D01*
X123972089Y-65473774D01*
X124769633Y-65473774D01*
X124824967Y-65806145D01*
X125195664Y-66330069D01*
X125393730Y-66550247D01*
X125748349Y-66817401D01*
X126067955Y-66764301D01*
X126474220Y-66397349D01*
X126583217Y-66275656D01*
X126793215Y-65905131D01*
X126721761Y-65564778D01*
X126681971Y-65495234D01*
X126409506Y-65132216D01*
X126087465Y-64809909D01*
X125814050Y-64616210D01*
X125687463Y-64639017D01*
X125676822Y-64729139D01*
X125638616Y-65108915D01*
X125544459Y-65283716D01*
X125172692Y-65355449D01*
X125030049Y-65349425D01*
X124769633Y-65473774D01*
X123972089Y-65473774D01*
X123983078Y-65434547D01*
X124193502Y-65140490D01*
X124304145Y-64993027D01*
X124437732Y-64564106D01*
X124488961Y-64388344D01*
X124774422Y-64227416D01*
X124953818Y-64199560D01*
X125350806Y-63983186D01*
X125427674Y-63911506D01*
X125707011Y-63770416D01*
X126014592Y-63859468D01*
X126411042Y-64211771D01*
X126956983Y-64860437D01*
X127785739Y-65905131D01*
G37*
G36*
X137513780Y-62519439D02*
G01*
X137482540Y-62885200D01*
X137355553Y-63510682D01*
X137177185Y-64150738D01*
X136982299Y-64671468D01*
X136805762Y-64938969D01*
X136530007Y-64984446D01*
X135988989Y-64844140D01*
X135334923Y-64509315D01*
X135222406Y-64426128D01*
X135072446Y-64188286D01*
X135019657Y-63776017D01*
X135025047Y-63610470D01*
X135536427Y-63610470D01*
X135662701Y-64019943D01*
X135833603Y-64172620D01*
X136267170Y-64385663D01*
X136303559Y-64394651D01*
X136578745Y-64365667D01*
X136651539Y-64040431D01*
X136680338Y-63537046D01*
X136751148Y-62935261D01*
X136766505Y-62825858D01*
X136786014Y-62519439D01*
X136734866Y-62520069D01*
X136659405Y-62644111D01*
X136385175Y-62741621D01*
X135998357Y-62473975D01*
X135965549Y-62441837D01*
X135787774Y-62333864D01*
X135675596Y-62488696D01*
X135575316Y-62969194D01*
X135536427Y-63610470D01*
X135025047Y-63610470D01*
X135042219Y-63082992D01*
X135082901Y-62484761D01*
X135150643Y-61865262D01*
X135242900Y-61546463D01*
X135379241Y-61474101D01*
X135579235Y-61593911D01*
X135777095Y-61720501D01*
X135870000Y-61615916D01*
X135936374Y-61476851D01*
X136215172Y-61400317D01*
X136553493Y-61476011D01*
X136776267Y-61689684D01*
X136857226Y-61825556D01*
X137140000Y-61982761D01*
X137265315Y-62013753D01*
X137501017Y-62268759D01*
X137523282Y-62408194D01*
X137513780Y-62519439D01*
G37*
G36*
X130448039Y-63222903D02*
G01*
X130701701Y-63498611D01*
X130666014Y-63666731D01*
X130650627Y-63674006D01*
X130537644Y-63925348D01*
X130612507Y-64482679D01*
X130709902Y-64915893D01*
X130772164Y-65302240D01*
X130735075Y-65465828D01*
X130597238Y-65499684D01*
X130559718Y-65489438D01*
X130349175Y-65257503D01*
X130118746Y-64815838D01*
X130003482Y-64547830D01*
X129805440Y-64220064D01*
X129576278Y-64170885D01*
X129201463Y-64341002D01*
X129157442Y-64365171D01*
X128932685Y-64575024D01*
X129042847Y-64829464D01*
X129224901Y-64977183D01*
X129665540Y-65108915D01*
X129733629Y-65109805D01*
X129940899Y-65174133D01*
X129813077Y-65401992D01*
X129655979Y-65562525D01*
X129424733Y-65695069D01*
X129382402Y-65691046D01*
X129054831Y-65527505D01*
X128687372Y-65212359D01*
X128402878Y-64866598D01*
X128324201Y-64611215D01*
X128332555Y-64437726D01*
X128140694Y-64122353D01*
X127947520Y-63916454D01*
X127907024Y-63683447D01*
X128467346Y-63683447D01*
X128650574Y-63779517D01*
X128976040Y-63690890D01*
X129284922Y-63480450D01*
X129422308Y-63222903D01*
X129395682Y-63062156D01*
X129181957Y-62982055D01*
X128748921Y-63220952D01*
X128545054Y-63424813D01*
X128467346Y-63683447D01*
X127907024Y-63683447D01*
X127895416Y-63616656D01*
X128111268Y-63231110D01*
X128619105Y-62687761D01*
X128752875Y-62562593D01*
X129287850Y-62172399D01*
X129721900Y-62019602D01*
X129993372Y-62113870D01*
X130040611Y-62464871D01*
X130111717Y-62810391D01*
X130431380Y-63204916D01*
X130431814Y-63205268D01*
X130448039Y-63222903D01*
G37*
G36*
X139531608Y-62249620D02*
G01*
X139588161Y-62278247D01*
X139993775Y-62444491D01*
X140208048Y-62464200D01*
X140221375Y-62457169D01*
X140427045Y-62560463D01*
X140755339Y-62862762D01*
X140787644Y-62896492D01*
X141171406Y-63218219D01*
X141472520Y-63350453D01*
X141662716Y-63398957D01*
X141699835Y-63618154D01*
X141438462Y-63936607D01*
X141264382Y-64047434D01*
X141144181Y-64009377D01*
X141144163Y-64007291D01*
X141096020Y-63904043D01*
X140978705Y-64087382D01*
X140824681Y-64467312D01*
X140666410Y-64953841D01*
X140536357Y-65456973D01*
X140466982Y-65886715D01*
X140445982Y-66149223D01*
X140405141Y-66612852D01*
X140381106Y-66818530D01*
X140316728Y-66875181D01*
X140062379Y-66809632D01*
X139769171Y-66564032D01*
X139715955Y-66491830D01*
X139631274Y-66224455D01*
X139678458Y-65812643D01*
X139864865Y-65147494D01*
X140030860Y-64652475D01*
X140246880Y-64101330D01*
X140409695Y-63790069D01*
X140501954Y-63641929D01*
X140399301Y-63545838D01*
X140336636Y-63553705D01*
X140068800Y-63744410D01*
X140029761Y-63798109D01*
X139824946Y-63864480D01*
X139676694Y-63674041D01*
X139685219Y-63334010D01*
X139747939Y-63079644D01*
X139706067Y-62969655D01*
X139541827Y-63150892D01*
X139297826Y-63594684D01*
X138980509Y-64183693D01*
X138529504Y-64809220D01*
X138103893Y-65182390D01*
X137757396Y-65245632D01*
X137492174Y-65058503D01*
X137483935Y-64786227D01*
X137815562Y-64581540D01*
X138044741Y-64411375D01*
X138339794Y-63987041D01*
X138597455Y-63454147D01*
X138751769Y-62952885D01*
X138736780Y-62623447D01*
X138706569Y-62524170D01*
X138787734Y-62199238D01*
X138867168Y-62103290D01*
X139100690Y-62067059D01*
X139531608Y-62249620D01*
G37*
G36*
X137882802Y-80183037D02*
G01*
X138149730Y-80605784D01*
X138132291Y-80740109D01*
X138074439Y-81185715D01*
X137918890Y-81429662D01*
X137635256Y-81874486D01*
X137479082Y-82046052D01*
X137186496Y-82212067D01*
X136845878Y-82106817D01*
X136565522Y-81860035D01*
X136568074Y-81542126D01*
X136846923Y-81542126D01*
X136879828Y-81622210D01*
X137140000Y-81716607D01*
X137276542Y-81683348D01*
X137433077Y-81429662D01*
X137392065Y-81285202D01*
X137140000Y-81255182D01*
X137002413Y-81328535D01*
X136846923Y-81542126D01*
X136568074Y-81542126D01*
X136568729Y-81460477D01*
X136592594Y-81379872D01*
X136630731Y-81142102D01*
X136518647Y-81248839D01*
X136267742Y-81691339D01*
X136144533Y-81997443D01*
X136241276Y-82021731D01*
X136386149Y-81984335D01*
X136451910Y-82130439D01*
X136313686Y-82380101D01*
X136258069Y-82417183D01*
X136101614Y-82313755D01*
X136067063Y-82249609D01*
X135849072Y-82218003D01*
X135812017Y-82217414D01*
X135857981Y-82006925D01*
X136051200Y-81584220D01*
X136114509Y-81459529D01*
X136380865Y-80897579D01*
X136657571Y-80897579D01*
X136755942Y-81114932D01*
X136985233Y-81051849D01*
X137211663Y-80770654D01*
X137566712Y-80770654D01*
X137609407Y-81099623D01*
X137760842Y-81236722D01*
X137898947Y-81021178D01*
X137959312Y-80740109D01*
X137867009Y-80550366D01*
X137633341Y-80656651D01*
X137566712Y-80770654D01*
X137211663Y-80770654D01*
X137239853Y-80735646D01*
X137337309Y-80497720D01*
X137345495Y-80183037D01*
X137190693Y-80084594D01*
X136932072Y-80288377D01*
X136773071Y-80543610D01*
X136657752Y-80886223D01*
X136657571Y-80897579D01*
X136380865Y-80897579D01*
X136414451Y-80826721D01*
X136641746Y-80286950D01*
X136724310Y-80089203D01*
X136943125Y-79842739D01*
X137286690Y-79868304D01*
X137864489Y-80154033D01*
X137882802Y-80183037D01*
G37*
G36*
X127750200Y-86353945D02*
G01*
X127663846Y-86503530D01*
X127431567Y-86713759D01*
X127048163Y-86761193D01*
X126533531Y-86491413D01*
X126309582Y-86343815D01*
X126101535Y-86295017D01*
X125980691Y-86491413D01*
X125762144Y-86699560D01*
X125249481Y-86793615D01*
X125185048Y-86792474D01*
X124866381Y-86743980D01*
X124853281Y-86647077D01*
X124928719Y-86582203D01*
X125112135Y-86304403D01*
X125236487Y-85978736D01*
X125260971Y-85736516D01*
X125144779Y-85709055D01*
X125030257Y-85736111D01*
X124928462Y-85538138D01*
X124950909Y-85392728D01*
X125112315Y-85233530D01*
X125309184Y-85309219D01*
X125511277Y-85666209D01*
X125545846Y-86210453D01*
X125491440Y-86698915D01*
X125892849Y-86210453D01*
X126589231Y-86210453D01*
X126744069Y-86325411D01*
X127138070Y-86402846D01*
X127236267Y-86400903D01*
X127429314Y-86353945D01*
X127273077Y-86210453D01*
X127209843Y-86172109D01*
X126852593Y-86036581D01*
X126603492Y-86049363D01*
X126589231Y-86210453D01*
X125892849Y-86210453D01*
X125967678Y-86119396D01*
X126007873Y-86070708D01*
X126333331Y-85731185D01*
X126605332Y-85653214D01*
X126981438Y-85784788D01*
X127082864Y-85829053D01*
X127502714Y-85942417D01*
X127638638Y-85833697D01*
X127461956Y-85518768D01*
X127237619Y-85347754D01*
X126701421Y-85324597D01*
X126568892Y-85353478D01*
X126362291Y-85365928D01*
X126491539Y-85242457D01*
X126785471Y-85097021D01*
X127277929Y-85079310D01*
X127627100Y-85356313D01*
X127767120Y-85530367D01*
X127941416Y-85454005D01*
X128104836Y-85326316D01*
X128505762Y-85245915D01*
X128713107Y-85253970D01*
X128811775Y-85294908D01*
X128536294Y-85419443D01*
X128524507Y-85424320D01*
X128194685Y-85621254D01*
X127893593Y-85883254D01*
X127717215Y-86112320D01*
X127761539Y-86210453D01*
X127800251Y-86267245D01*
X127750200Y-86353945D01*
G37*
G36*
X150356222Y-88905270D02*
G01*
X150414164Y-89472904D01*
X150405918Y-89531992D01*
X150347504Y-89950555D01*
X150126947Y-90110338D01*
X149748269Y-89969951D01*
X149487453Y-89854767D01*
X149351539Y-89911397D01*
X149411616Y-90052124D01*
X149693462Y-90297880D01*
X149861628Y-90401325D01*
X149935530Y-90481446D01*
X149738840Y-90449096D01*
X149239324Y-90297302D01*
X148404746Y-90019091D01*
X148269405Y-89973511D01*
X147570108Y-89749378D01*
X147021482Y-89591627D01*
X146732474Y-89531992D01*
X146504517Y-89470330D01*
X146116190Y-89245211D01*
X146114054Y-89243596D01*
X145897386Y-89062862D01*
X145969056Y-89032510D01*
X146371923Y-89133880D01*
X147006923Y-89309329D01*
X147022348Y-88297199D01*
X147038699Y-87906023D01*
X147085754Y-87583885D01*
X147149337Y-87578146D01*
X147214142Y-87711362D01*
X147475835Y-88017761D01*
X147582067Y-88126264D01*
X147464391Y-88311336D01*
X147323638Y-88579031D01*
X147344378Y-88991425D01*
X147495889Y-89367593D01*
X147738718Y-89531992D01*
X147766377Y-89531130D01*
X147920875Y-89442259D01*
X147962018Y-89145946D01*
X147904596Y-88555069D01*
X147873673Y-88282509D01*
X147868818Y-87759886D01*
X147977117Y-87578146D01*
X148059780Y-87631588D01*
X148174079Y-87977766D01*
X148225844Y-88562360D01*
X148202223Y-89287761D01*
X148222330Y-89563601D01*
X148361088Y-89727376D01*
X148445850Y-89685709D01*
X148445497Y-89531992D01*
X148765385Y-89531992D01*
X148771062Y-89578694D01*
X148960769Y-89727376D01*
X149007471Y-89721699D01*
X149156154Y-89531992D01*
X149150476Y-89485290D01*
X148960769Y-89336607D01*
X148914068Y-89342285D01*
X148765385Y-89531992D01*
X148445497Y-89531992D01*
X148445272Y-89434299D01*
X148419996Y-89277866D01*
X148473690Y-89235675D01*
X149441057Y-89235675D01*
X149546923Y-89531992D01*
X149713843Y-89770310D01*
X149944567Y-89922761D01*
X150054104Y-89849530D01*
X150133077Y-89531992D01*
X150066663Y-89275928D01*
X149735433Y-89141223D01*
X149622517Y-89144479D01*
X149441057Y-89235675D01*
X148473690Y-89235675D01*
X148619541Y-89121071D01*
X149156154Y-89134402D01*
X149342301Y-89116150D01*
X149205000Y-88923090D01*
X148986323Y-88616367D01*
X148993104Y-88595636D01*
X149195148Y-88595636D01*
X149351539Y-88750453D01*
X149518909Y-88842571D01*
X149840000Y-88939854D01*
X149898698Y-88905270D01*
X149742308Y-88750453D01*
X149574937Y-88658336D01*
X149253846Y-88561052D01*
X149195148Y-88595636D01*
X148993104Y-88595636D01*
X149052991Y-88412556D01*
X149449231Y-88407505D01*
X149503692Y-88417276D01*
X149844362Y-88400414D01*
X149937692Y-88153487D01*
X149903376Y-87962622D01*
X149693462Y-87707545D01*
X149604121Y-87643505D01*
X149787431Y-87593571D01*
X150011281Y-87665069D01*
X150214176Y-88017761D01*
X150331153Y-88659682D01*
X150356222Y-88905270D01*
G37*
G36*
X155465158Y-71037570D02*
G01*
X155408462Y-71230966D01*
X155379922Y-71538193D01*
X155272550Y-71822775D01*
X155202766Y-71926216D01*
X155087805Y-72291408D01*
X155036892Y-72464163D01*
X154832948Y-72692804D01*
X154755377Y-72738110D01*
X154626923Y-73024318D01*
X154560030Y-73250465D01*
X154301922Y-73612158D01*
X154281059Y-73633803D01*
X154103472Y-73945689D01*
X154022360Y-74447864D01*
X154020832Y-75238037D01*
X154037040Y-75678369D01*
X154088443Y-76475486D01*
X154185271Y-76981662D01*
X154361207Y-77267109D01*
X154649932Y-77402040D01*
X155085128Y-77456666D01*
X155255643Y-77470171D01*
X155686570Y-77546081D01*
X155868952Y-77727571D01*
X155915139Y-78101992D01*
X155923651Y-78460277D01*
X155907944Y-78491362D01*
X155853913Y-78150838D01*
X155850664Y-78129244D01*
X155750963Y-77790302D01*
X155510585Y-77644615D01*
X155005313Y-77613530D01*
X154959954Y-77613609D01*
X154484164Y-77646050D01*
X154279737Y-77785448D01*
X154236154Y-78101992D01*
X154277115Y-78407911D01*
X154483962Y-78567905D01*
X154968846Y-78623298D01*
X155701539Y-78656143D01*
X154968846Y-78732785D01*
X154236154Y-78809427D01*
X154213489Y-79823402D01*
X154204643Y-80126328D01*
X154175582Y-80538066D01*
X154134815Y-80569249D01*
X154083192Y-80226824D01*
X154021561Y-79517738D01*
X153950772Y-78448940D01*
X153871675Y-77027376D01*
X153860993Y-76820579D01*
X153806274Y-75666978D01*
X153780603Y-74835427D01*
X153786460Y-74267018D01*
X153826324Y-73902845D01*
X153902675Y-73684003D01*
X154017993Y-73551585D01*
X154092501Y-73490017D01*
X154227721Y-73292965D01*
X154039818Y-73114961D01*
X153947883Y-73068533D01*
X153497427Y-72962782D01*
X152947955Y-72932792D01*
X152460064Y-72979522D01*
X152194351Y-73103932D01*
X152177636Y-73248433D01*
X152348691Y-73548924D01*
X152365640Y-73568975D01*
X152459121Y-73809902D01*
X152543953Y-74278803D01*
X152621593Y-74998933D01*
X152693501Y-75993549D01*
X152761136Y-77285907D01*
X152767028Y-77432568D01*
X152789999Y-78004299D01*
X152825956Y-78899263D01*
X152889420Y-80856872D01*
X152952987Y-83181992D01*
X152973384Y-84036604D01*
X152987238Y-84847370D01*
X152984977Y-85297030D01*
X152965674Y-85402383D01*
X152928404Y-85180232D01*
X152872240Y-84647376D01*
X152838793Y-84260617D01*
X152769876Y-83190012D01*
X152718013Y-82006699D01*
X152692469Y-80903577D01*
X152673077Y-78820546D01*
X151451923Y-78746560D01*
X150870872Y-78714718D01*
X150385851Y-78695580D01*
X150180684Y-78697881D01*
X150170956Y-78708141D01*
X150263082Y-78880416D01*
X150530356Y-79162433D01*
X150857821Y-79443464D01*
X150963841Y-79509291D01*
X151130523Y-79612783D01*
X151222252Y-79673667D01*
X151434796Y-80036116D01*
X151575092Y-80557347D01*
X151608481Y-81069435D01*
X151500305Y-81404456D01*
X151437223Y-81496823D01*
X151488377Y-81799881D01*
X151527656Y-81880842D01*
X151553471Y-82165473D01*
X151565223Y-82295042D01*
X151503475Y-82875549D01*
X151464941Y-83112403D01*
X151414110Y-83653862D01*
X151437360Y-83982414D01*
X151443432Y-84039340D01*
X151284175Y-84333939D01*
X151039133Y-84562081D01*
X150913254Y-84679278D01*
X150550494Y-84987200D01*
X150366163Y-85346480D01*
X150367741Y-85880424D01*
X150372415Y-85930014D01*
X150397257Y-86357537D01*
X150341603Y-86454303D01*
X150180539Y-86272494D01*
X150102557Y-86170068D01*
X149908995Y-86031668D01*
X149726505Y-86211405D01*
X149644632Y-86306016D01*
X149574032Y-86214102D01*
X149582756Y-85771150D01*
X149592153Y-85524971D01*
X149502247Y-85055195D01*
X149197929Y-84732799D01*
X148993863Y-84524866D01*
X149455690Y-84524866D01*
X149546923Y-84647376D01*
X149714294Y-84739494D01*
X150035385Y-84836777D01*
X150167657Y-84812708D01*
X150523846Y-84647376D01*
X150618273Y-84562081D01*
X150504032Y-84481807D01*
X150035385Y-84457975D01*
X149697509Y-84467077D01*
X149455690Y-84524866D01*
X148993863Y-84524866D01*
X148940291Y-84470279D01*
X148763390Y-83902103D01*
X148761030Y-83459963D01*
X148737109Y-82594500D01*
X148693331Y-81744020D01*
X148653765Y-81230311D01*
X148769442Y-81230311D01*
X148970257Y-81429394D01*
X149060464Y-81551304D01*
X148921411Y-81868276D01*
X148852576Y-81955185D01*
X148784477Y-82108435D01*
X149025596Y-82046266D01*
X149242652Y-81975621D01*
X149574434Y-81911992D01*
X149638236Y-81897049D01*
X149644615Y-81716607D01*
X149636090Y-81699870D01*
X149749925Y-81576217D01*
X150170392Y-81540698D01*
X150572814Y-81561102D01*
X150619325Y-81604977D01*
X150328462Y-81698990D01*
X150240893Y-81724141D01*
X150008208Y-81813255D01*
X150091962Y-81892468D01*
X150523846Y-82012656D01*
X150558554Y-82021544D01*
X150896710Y-82116529D01*
X150952108Y-82174340D01*
X150688922Y-82214184D01*
X150071327Y-82255269D01*
X149631341Y-82298455D01*
X149142187Y-82424928D01*
X149009686Y-82590271D01*
X149243970Y-82763604D01*
X149855173Y-82914044D01*
X150167583Y-82965157D01*
X150372219Y-83008472D01*
X150219628Y-83014641D01*
X149693331Y-82991559D01*
X149653829Y-82989678D01*
X149125676Y-82985264D01*
X148920424Y-83049819D01*
X148976781Y-83201284D01*
X149075016Y-83420232D01*
X149061438Y-83856462D01*
X149019241Y-84046957D01*
X149100051Y-84186262D01*
X149406965Y-84244729D01*
X150022218Y-84256607D01*
X150613809Y-84246880D01*
X150956753Y-84185552D01*
X151099101Y-84025422D01*
X151138929Y-83719299D01*
X151162362Y-83302362D01*
X151187775Y-82888915D01*
X151209834Y-82750697D01*
X151379263Y-82329762D01*
X151441541Y-82165473D01*
X151281570Y-81896109D01*
X151252509Y-81877322D01*
X151112567Y-81673357D01*
X151252537Y-81340858D01*
X151371418Y-81082387D01*
X151293436Y-80829991D01*
X151205915Y-80720310D01*
X151197710Y-80381318D01*
X151220300Y-80266262D01*
X151131919Y-80136125D01*
X150811333Y-80083155D01*
X150179888Y-80084405D01*
X149058462Y-80112972D01*
X151012308Y-79824152D01*
X150019103Y-79793457D01*
X149965837Y-79791863D01*
X149305318Y-79794640D01*
X148969728Y-79878235D01*
X148898869Y-80082556D01*
X149032545Y-80447513D01*
X149184969Y-80686482D01*
X149528873Y-80893823D01*
X150133077Y-80993589D01*
X150379526Y-81016128D01*
X150589759Y-81045177D01*
X150429406Y-81056073D01*
X149888490Y-81051164D01*
X149482284Y-81051961D01*
X148938054Y-81105350D01*
X148769442Y-81230311D01*
X148653765Y-81230311D01*
X148636215Y-81002458D01*
X148572278Y-80463748D01*
X148508037Y-80221823D01*
X148481544Y-80185107D01*
X148524216Y-79936718D01*
X148766093Y-79683410D01*
X149082385Y-79567376D01*
X149195084Y-79549315D01*
X149233459Y-79505821D01*
X149855703Y-79505821D01*
X150133077Y-79536526D01*
X150401853Y-79509291D01*
X150377308Y-79437977D01*
X150288866Y-79412171D01*
X149888846Y-79437977D01*
X149855703Y-79505821D01*
X149233459Y-79505821D01*
X149351539Y-79371992D01*
X149384604Y-79282109D01*
X149644615Y-79176607D01*
X149780992Y-79144316D01*
X149937692Y-78897289D01*
X149935847Y-78872884D01*
X149850795Y-78767584D01*
X149598439Y-78700423D01*
X149123042Y-78666903D01*
X148368867Y-78662524D01*
X147280179Y-78682787D01*
X144622666Y-78747604D01*
X143998185Y-79352875D01*
X143782270Y-79552305D01*
X143412730Y-79841432D01*
X143187439Y-79953460D01*
X143162072Y-79868679D01*
X143392308Y-79567376D01*
X143585581Y-79288731D01*
X143508751Y-79176607D01*
X143422356Y-79159413D01*
X143392308Y-78981223D01*
X143422478Y-78925577D01*
X143750594Y-78925577D01*
X143754229Y-79056151D01*
X144034014Y-78920324D01*
X144571128Y-78499274D01*
X144800750Y-78283420D01*
X145248462Y-78283420D01*
X145248584Y-78284565D01*
X145440187Y-78327517D01*
X145945141Y-78362649D01*
X146687939Y-78386364D01*
X147593077Y-78395069D01*
X148283333Y-78393680D01*
X149051586Y-78381297D01*
X149536392Y-78346960D01*
X149669697Y-78313356D01*
X150133077Y-78313356D01*
X150262190Y-78350523D01*
X150686988Y-78382692D01*
X151305385Y-78395069D01*
X151824621Y-78387885D01*
X152247016Y-78340484D01*
X152434918Y-78222552D01*
X152477692Y-78004299D01*
X152468041Y-77876167D01*
X152354525Y-77707184D01*
X152037613Y-77631175D01*
X151423981Y-77613530D01*
X151231698Y-77616062D01*
X150581254Y-77698013D01*
X150235097Y-77919575D01*
X150213147Y-78004299D01*
X150133077Y-78313356D01*
X149669697Y-78313356D01*
X149802507Y-78279877D01*
X149914689Y-78169254D01*
X149937692Y-78004299D01*
X149936492Y-77951628D01*
X149891928Y-77795171D01*
X149732078Y-77696162D01*
X149388081Y-77641570D01*
X148791075Y-77618369D01*
X147872198Y-77613530D01*
X147048219Y-77623055D01*
X146274280Y-77667712D01*
X146228265Y-77675977D01*
X146176827Y-77685216D01*
X145786846Y-77755262D01*
X145527583Y-77892651D01*
X145369707Y-78070234D01*
X145248462Y-78283420D01*
X144800750Y-78283420D01*
X144854455Y-78232935D01*
X145141020Y-77883924D01*
X145189891Y-77685216D01*
X145078746Y-77682372D01*
X144752025Y-77875479D01*
X144323641Y-78251787D01*
X144041931Y-78547423D01*
X143750594Y-78925577D01*
X143422478Y-78925577D01*
X143449912Y-78874979D01*
X143441032Y-78751300D01*
X143258119Y-78826768D01*
X142983737Y-79053408D01*
X142700451Y-79383241D01*
X142619472Y-79492394D01*
X142335365Y-79801808D01*
X142166046Y-79871627D01*
X142162927Y-79793603D01*
X142319750Y-79477243D01*
X142637036Y-79029993D01*
X142894553Y-78694912D01*
X143215330Y-78238761D01*
X143490000Y-78238761D01*
X143497446Y-78298005D01*
X143664869Y-78400573D01*
X143952400Y-78288463D01*
X144226195Y-78004299D01*
X144273577Y-77926498D01*
X144370298Y-77675977D01*
X144214579Y-77613530D01*
X143982561Y-77676630D01*
X143644876Y-77933430D01*
X143490000Y-78238761D01*
X143215330Y-78238761D01*
X143381758Y-78002098D01*
X143758956Y-77387480D01*
X143981683Y-76926896D01*
X144005470Y-76696180D01*
X143950153Y-76671032D01*
X143693566Y-76761061D01*
X143421253Y-76996198D01*
X143294615Y-77250567D01*
X143279370Y-77320395D01*
X143120315Y-77670837D01*
X143019133Y-77848111D01*
X142844131Y-78154721D01*
X142589438Y-78571885D01*
X142161973Y-79298615D01*
X141835019Y-79889176D01*
X141634103Y-80294074D01*
X141584750Y-80463817D01*
X141712484Y-80348915D01*
X141755538Y-80297573D01*
X142011222Y-80047391D01*
X142117963Y-80043546D01*
X142140920Y-80072047D01*
X142351031Y-79968629D01*
X142708462Y-79665069D01*
X142869417Y-79519365D01*
X143173809Y-79306021D01*
X143294615Y-79323906D01*
X143286917Y-79389337D01*
X143096044Y-79667038D01*
X143034036Y-79719175D01*
X142998571Y-79953343D01*
X142924657Y-80145018D01*
X142619970Y-80512471D01*
X142150671Y-80970154D01*
X141723788Y-81367780D01*
X141413382Y-81727654D01*
X141313099Y-82010058D01*
X141368975Y-82307304D01*
X141447567Y-82546107D01*
X141447072Y-82653937D01*
X141270444Y-82449299D01*
X141055337Y-82241413D01*
X140733964Y-82107201D01*
X140511086Y-82176496D01*
X140504253Y-82449299D01*
X140549763Y-82578967D01*
X140534190Y-82686332D01*
X140290390Y-82512822D01*
X140135343Y-82380647D01*
X140059056Y-82211705D01*
X140302654Y-82045856D01*
X140399258Y-81993086D01*
X140926936Y-81634878D01*
X141178964Y-81323838D01*
X141112145Y-81109910D01*
X141033482Y-80946381D01*
X141149282Y-80576406D01*
X141498297Y-79959081D01*
X141780464Y-79495955D01*
X142027296Y-79068181D01*
X142122308Y-78870548D01*
X142018819Y-78816894D01*
X141667685Y-78785838D01*
X141461942Y-78799952D01*
X141282512Y-78946458D01*
X141295696Y-79348854D01*
X141293007Y-79775230D01*
X141164165Y-80044231D01*
X141153849Y-80050163D01*
X140998617Y-79968538D01*
X140935136Y-79530061D01*
X140934606Y-79511365D01*
X140844643Y-78860036D01*
X140656923Y-78199684D01*
X140581681Y-78004299D01*
X140950000Y-78004299D01*
X140989204Y-78220928D01*
X141207715Y-78360345D01*
X141710635Y-78395069D01*
X142302421Y-78322314D01*
X142589865Y-78086012D01*
X142672262Y-77848111D01*
X142643862Y-77683461D01*
X142390483Y-77622431D01*
X141829231Y-77613530D01*
X141766068Y-77613679D01*
X141246404Y-77644625D01*
X141007528Y-77760100D01*
X140950000Y-78004299D01*
X140581681Y-78004299D01*
X140393575Y-77515838D01*
X140378711Y-78134858D01*
X140335536Y-78665016D01*
X140175076Y-79188315D01*
X139913096Y-79371992D01*
X139815091Y-79338228D01*
X139934000Y-79137530D01*
X140038890Y-79001013D01*
X140168462Y-78605594D01*
X140167853Y-78578900D01*
X140086560Y-78490225D01*
X139858427Y-78750757D01*
X139692620Y-79226504D01*
X139907421Y-79636952D01*
X140502355Y-79973664D01*
X140532893Y-79985843D01*
X140871082Y-80249429D01*
X140928783Y-80563552D01*
X140679038Y-80801854D01*
X140495101Y-80788857D01*
X140497096Y-80480835D01*
X140541031Y-80259560D01*
X140522962Y-80179177D01*
X140446369Y-80299281D01*
X140352417Y-80446607D01*
X140161296Y-80710136D01*
X139755457Y-81190900D01*
X139260373Y-81727365D01*
X138402029Y-82617354D01*
X139116688Y-82958151D01*
X139669210Y-83152819D01*
X140439520Y-83184086D01*
X141547289Y-82941661D01*
X142294330Y-82696124D01*
X142666437Y-82446261D01*
X142671572Y-82186680D01*
X142317692Y-81911992D01*
X142079570Y-81743816D01*
X141926923Y-81507474D01*
X141927326Y-81486886D01*
X142025681Y-81342072D01*
X142264931Y-81482999D01*
X142598326Y-81857710D01*
X142979112Y-82414251D01*
X143360537Y-83100665D01*
X143495091Y-83372199D01*
X143774814Y-83970731D01*
X143887237Y-84306965D01*
X143892692Y-84323281D01*
X143866124Y-84503158D01*
X143712508Y-84583671D01*
X143542445Y-84693789D01*
X143318908Y-85114517D01*
X143114704Y-85881533D01*
X143053113Y-86170966D01*
X142863968Y-87037814D01*
X142653569Y-87978342D01*
X142442842Y-88901460D01*
X142252715Y-89716078D01*
X142104114Y-90331106D01*
X142017966Y-90655453D01*
X141976137Y-90744877D01*
X141753195Y-90899684D01*
X141655356Y-90849945D01*
X141519843Y-90561197D01*
X141390016Y-89974441D01*
X141253451Y-89043530D01*
X141211117Y-88676289D01*
X141222373Y-88558293D01*
X141312956Y-88771333D01*
X141500754Y-89336607D01*
X141848738Y-90411223D01*
X142165819Y-89043530D01*
X142332838Y-88313099D01*
X142541326Y-87380030D01*
X142710433Y-86601223D01*
X142803267Y-86166282D01*
X142938767Y-85543386D01*
X143030664Y-85135838D01*
X143001890Y-85064223D01*
X142816428Y-85257543D01*
X142512429Y-85692996D01*
X142233347Y-86098310D01*
X141947475Y-86443452D01*
X141795202Y-86534630D01*
X141782947Y-86503723D01*
X141869740Y-86233945D01*
X142122308Y-85819684D01*
X142288491Y-85569726D01*
X142447168Y-85198926D01*
X142323406Y-85084395D01*
X141920879Y-85236765D01*
X141671006Y-85330852D01*
X141414638Y-85281712D01*
X141074324Y-85036650D01*
X140559564Y-84550012D01*
X140105091Y-84134651D01*
X139698987Y-83853605D01*
X139496196Y-83847100D01*
X139459529Y-83939136D01*
X139570777Y-84061223D01*
X139691100Y-84134577D01*
X139692775Y-84140718D01*
X139777692Y-84451992D01*
X139805281Y-84678728D01*
X139925381Y-84842761D01*
X139999334Y-84882666D01*
X140206561Y-85196858D01*
X140441959Y-85738710D01*
X140657570Y-86405838D01*
X140728788Y-86683364D01*
X140705570Y-86759206D01*
X140505947Y-86503530D01*
X140316923Y-86197014D01*
X140079248Y-85658421D01*
X140059263Y-85596668D01*
X139923174Y-85327398D01*
X139803085Y-85402363D01*
X139691169Y-85837051D01*
X139579597Y-86646948D01*
X139440390Y-87871223D01*
X139378234Y-84940453D01*
X138990395Y-85428915D01*
X138688975Y-85857026D01*
X138275904Y-86530207D01*
X137861594Y-87271334D01*
X137518825Y-87949456D01*
X137320380Y-88433620D01*
X137250727Y-88684989D01*
X137290448Y-88724349D01*
X137525063Y-88457376D01*
X137724802Y-88227977D01*
X137807828Y-88216326D01*
X137747548Y-88549813D01*
X137746297Y-88941027D01*
X138060182Y-89477890D01*
X138424615Y-89865811D01*
X138478117Y-89922761D01*
X137986959Y-89922761D01*
X137612508Y-90010934D01*
X137268224Y-90422240D01*
X137152546Y-90629507D01*
X136911686Y-90799752D01*
X136725945Y-90620652D01*
X136651539Y-90119781D01*
X136597255Y-89813538D01*
X136846923Y-89813538D01*
X136850745Y-89912185D01*
X136943040Y-90109510D01*
X137131656Y-89936262D01*
X137158207Y-89865811D01*
X137045495Y-89631654D01*
X136943053Y-89612301D01*
X136846923Y-89813538D01*
X136597255Y-89813538D01*
X136577239Y-89700614D01*
X136264630Y-89435525D01*
X136172502Y-89394006D01*
X135808723Y-89013410D01*
X135467601Y-88349209D01*
X135185787Y-87486208D01*
X134999933Y-86509214D01*
X134931718Y-86005330D01*
X134842599Y-85453361D01*
X134775117Y-85154053D01*
X134672087Y-85075189D01*
X134265340Y-84981443D01*
X133669542Y-84948460D01*
X132646154Y-84956467D01*
X132548462Y-86149387D01*
X132517048Y-86451989D01*
X132353549Y-87235234D01*
X132108846Y-87719842D01*
X131894967Y-88071465D01*
X131766923Y-88619300D01*
X131756990Y-88829663D01*
X131621544Y-89076102D01*
X131229615Y-89114615D01*
X130971363Y-89098422D01*
X130872890Y-89065079D01*
X131134821Y-89002953D01*
X131393906Y-88906825D01*
X131468848Y-88742366D01*
X131466147Y-88599218D01*
X131598760Y-88183732D01*
X131856720Y-87634428D01*
X131894011Y-87562695D01*
X132227928Y-86699609D01*
X132353077Y-85900367D01*
X132435469Y-85243321D01*
X132743846Y-84745069D01*
X132889868Y-84598712D01*
X133104523Y-84178078D01*
X133103442Y-84172926D01*
X134735537Y-84172926D01*
X134848971Y-84711276D01*
X134854215Y-84722649D01*
X134987066Y-85138069D01*
X135141082Y-85796606D01*
X135283989Y-86561025D01*
X135495745Y-87615492D01*
X135774522Y-88452894D01*
X136116492Y-88974138D01*
X136539974Y-89217974D01*
X136880812Y-89308174D01*
X137366079Y-89449820D01*
X137515304Y-89488730D01*
X137545293Y-89427349D01*
X137278524Y-89168614D01*
X136830894Y-88772528D01*
X137522755Y-87398676D01*
X137866059Y-86674905D01*
X138133680Y-85915365D01*
X138176328Y-85338265D01*
X137995862Y-84866097D01*
X137816806Y-84667863D01*
X138462517Y-84667863D01*
X138534317Y-85059807D01*
X138542463Y-85078058D01*
X138681381Y-85338265D01*
X138682247Y-85339887D01*
X138816385Y-85310995D01*
X139054478Y-84973116D01*
X139337007Y-84448889D01*
X139371369Y-84140718D01*
X139160293Y-84099769D01*
X138720224Y-84356386D01*
X138719571Y-84356880D01*
X138462517Y-84667863D01*
X137816806Y-84667863D01*
X137594142Y-84421351D01*
X137504248Y-84341732D01*
X137131053Y-84052966D01*
X136887222Y-84003571D01*
X136650680Y-84159692D01*
X136636363Y-84172540D01*
X136313885Y-84401178D01*
X136125969Y-84435194D01*
X136163077Y-84256607D01*
X136192623Y-84180099D01*
X136062960Y-84061223D01*
X135894065Y-84007699D01*
X135595719Y-83803801D01*
X135591924Y-83799954D01*
X137331357Y-83799954D01*
X137539255Y-84070599D01*
X137732085Y-84262872D01*
X138059815Y-84423090D01*
X138431537Y-84310914D01*
X138952978Y-83914684D01*
X139350823Y-83573156D01*
X139951781Y-83573156D01*
X140654511Y-84254269D01*
X140873104Y-84454886D01*
X141441475Y-84827018D01*
X142014139Y-84937918D01*
X142094708Y-84937090D01*
X142473550Y-84889754D01*
X142579107Y-84791620D01*
X142574540Y-84782121D01*
X142700857Y-84645765D01*
X143086282Y-84522966D01*
X143424710Y-84444809D01*
X143637268Y-84306965D01*
X143591494Y-84040615D01*
X143310239Y-83546085D01*
X143269961Y-83479798D01*
X143105603Y-83231795D01*
X142926736Y-83083748D01*
X142659921Y-83032410D01*
X142231723Y-83074536D01*
X141568704Y-83206882D01*
X140813655Y-83377376D01*
X140597429Y-83426201D01*
X139951781Y-83573156D01*
X139350823Y-83573156D01*
X139578886Y-83377376D01*
X138922062Y-83072614D01*
X138833084Y-83031630D01*
X138412801Y-82879069D01*
X138110922Y-82936082D01*
X137729669Y-83228530D01*
X137650432Y-83297001D01*
X137357799Y-83589041D01*
X137331357Y-83799954D01*
X135591924Y-83799954D01*
X135354790Y-83559597D01*
X135309432Y-83396888D01*
X135434624Y-83316712D01*
X135772308Y-83126254D01*
X135965542Y-83017224D01*
X136047895Y-82895661D01*
X135792900Y-82772616D01*
X135790811Y-82771817D01*
X135402882Y-82799267D01*
X135063614Y-83111929D01*
X134824125Y-83604813D01*
X134735537Y-84172926D01*
X133103442Y-84172926D01*
X133004520Y-83701421D01*
X132582348Y-83091858D01*
X132294137Y-82775570D01*
X131962159Y-82557667D01*
X131654271Y-82590470D01*
X131453278Y-82691875D01*
X131465478Y-82800982D01*
X131815769Y-82955172D01*
X131943716Y-83008106D01*
X132282718Y-83225142D01*
X132322486Y-83401990D01*
X132036076Y-83475069D01*
X132005582Y-83475342D01*
X131826084Y-83537031D01*
X131962308Y-83768146D01*
X132008144Y-83825179D01*
X132078170Y-84016319D01*
X131807129Y-84061223D01*
X131564285Y-84105449D01*
X131326517Y-84305453D01*
X131326327Y-84306019D01*
X131194008Y-84443568D01*
X130920444Y-84282341D01*
X130760932Y-84169682D01*
X130483172Y-84138427D01*
X130084040Y-84350822D01*
X130068242Y-84361216D01*
X129751346Y-84626794D01*
X129640794Y-84950540D01*
X129679688Y-85493195D01*
X129710670Y-85683227D01*
X129842663Y-86149308D01*
X129995858Y-86369072D01*
X130066583Y-86407425D01*
X130095536Y-86466011D01*
X130203846Y-86685178D01*
X130206510Y-86722023D01*
X130313986Y-87090472D01*
X130529955Y-87585655D01*
X130570104Y-87666534D01*
X130742074Y-88067130D01*
X130736227Y-88136214D01*
X130723947Y-88281301D01*
X130513030Y-88446058D01*
X130304182Y-88577297D01*
X129844999Y-88890778D01*
X129702362Y-89004420D01*
X129692612Y-89108450D01*
X130030656Y-89135009D01*
X130117341Y-89136267D01*
X130341874Y-89161825D01*
X130370152Y-89271922D01*
X130180502Y-89535238D01*
X129751251Y-90020453D01*
X128961192Y-90899684D01*
X126189294Y-90899684D01*
X124635385Y-89336607D01*
X124073682Y-88787617D01*
X123498593Y-88262047D01*
X123063115Y-87905112D01*
X122832661Y-87773530D01*
X122741077Y-87814021D01*
X122622156Y-88147447D01*
X122583846Y-88838822D01*
X122583846Y-89904114D01*
X122975300Y-89922761D01*
X123805000Y-89962284D01*
X123846162Y-89964259D01*
X124498148Y-90008267D01*
X124856483Y-90086899D01*
X125013675Y-90240374D01*
X125062231Y-90508915D01*
X125062312Y-90510012D01*
X125059911Y-90762138D01*
X124999058Y-90655453D01*
X124980042Y-90605932D01*
X124897730Y-90516249D01*
X124723646Y-90446927D01*
X124415077Y-90395376D01*
X123929310Y-90359005D01*
X123223632Y-90335225D01*
X122255329Y-90321446D01*
X120981690Y-90315077D01*
X119360000Y-90313530D01*
X118557572Y-90313817D01*
X117103538Y-90317290D01*
X115977631Y-90326793D01*
X115137139Y-90344915D01*
X114539348Y-90374245D01*
X114141546Y-90417374D01*
X113901019Y-90476892D01*
X113775056Y-90555389D01*
X113720942Y-90655453D01*
X113720719Y-90656221D01*
X113660002Y-90761935D01*
X113657770Y-90508915D01*
X113671090Y-90375678D01*
X113746411Y-90174929D01*
X113956009Y-90060487D01*
X114385344Y-90000435D01*
X115119874Y-89962856D01*
X116112558Y-89922761D01*
X116722308Y-89922761D01*
X122388462Y-89922761D01*
X122388404Y-88994684D01*
X122388347Y-88066607D01*
X119555327Y-88057542D01*
X116722308Y-88048476D01*
X116722308Y-89922761D01*
X116112558Y-89922761D01*
X116545902Y-89905258D01*
X116487566Y-88803792D01*
X116450184Y-88270081D01*
X116366402Y-87872581D01*
X116191315Y-87670062D01*
X115871395Y-87553950D01*
X115588117Y-87458668D01*
X114991841Y-87182187D01*
X114357365Y-86821112D01*
X113782753Y-86437930D01*
X113425353Y-86143898D01*
X113858099Y-86143898D01*
X114084615Y-86337971D01*
X114396921Y-86553241D01*
X115261911Y-86998941D01*
X116310925Y-87400614D01*
X117406154Y-87701680D01*
X117764407Y-87770743D01*
X119227950Y-87918440D01*
X120737687Y-87892095D01*
X122095385Y-87692113D01*
X122406562Y-87614725D01*
X122847605Y-87454471D01*
X122894321Y-87405554D01*
X123365385Y-87405554D01*
X123415944Y-87558571D01*
X123706898Y-87983348D01*
X124211854Y-88564674D01*
X124879615Y-89240513D01*
X126393846Y-90693344D01*
X127578445Y-90698822D01*
X128076399Y-90692685D01*
X128590891Y-90628788D01*
X128954681Y-90457598D01*
X129311109Y-90132244D01*
X129859173Y-89560188D01*
X129202048Y-89497244D01*
X128544924Y-89434299D01*
X129559912Y-88785257D01*
X130574901Y-88136214D01*
X130260240Y-87476363D01*
X130102117Y-87177637D01*
X129874448Y-86947738D01*
X129616105Y-86992841D01*
X129377758Y-87066008D01*
X128808344Y-87176053D01*
X128021606Y-87294242D01*
X127111969Y-87405032D01*
X126243381Y-87493264D01*
X125502189Y-87544106D01*
X124970362Y-87535775D01*
X124552036Y-87465914D01*
X124151345Y-87332161D01*
X123883288Y-87228520D01*
X123529125Y-87121414D01*
X123389710Y-87177324D01*
X123365385Y-87405554D01*
X122894321Y-87405554D01*
X123054195Y-87238147D01*
X123129904Y-86884939D01*
X123164675Y-86536722D01*
X123483914Y-86536722D01*
X123692697Y-86834437D01*
X123788000Y-86925489D01*
X124036482Y-87057504D01*
X124431161Y-87133945D01*
X125053387Y-87166629D01*
X125984513Y-87167376D01*
X127076980Y-87140320D01*
X128073795Y-87064717D01*
X128856696Y-86930510D01*
X129520114Y-86725907D01*
X129706269Y-86634789D01*
X129741577Y-86466011D01*
X129541167Y-86117645D01*
X129331392Y-85701848D01*
X129226923Y-85265969D01*
X129065966Y-84978486D01*
X128557300Y-84787026D01*
X127727355Y-84718954D01*
X126603263Y-84779305D01*
X126245628Y-84824334D01*
X125145796Y-85092376D01*
X124261147Y-85513129D01*
X123675326Y-86050283D01*
X123538383Y-86261632D01*
X123529173Y-86308146D01*
X123483914Y-86536722D01*
X123164675Y-86536722D01*
X123187500Y-86308146D01*
X121469135Y-86341474D01*
X121123216Y-86347342D01*
X120462069Y-86348968D01*
X120182865Y-86328334D01*
X120287490Y-86283097D01*
X120777829Y-86210910D01*
X121655769Y-86109429D01*
X122144189Y-86041431D01*
X122626593Y-85900523D01*
X122779231Y-85707933D01*
X122766665Y-85638934D01*
X122648880Y-85531629D01*
X122369560Y-85464064D01*
X121883107Y-85434548D01*
X121143927Y-85441385D01*
X120106424Y-85482883D01*
X118725000Y-85557348D01*
X117895363Y-85613987D01*
X117114154Y-85699779D01*
X116668490Y-85802574D01*
X116526923Y-85927672D01*
X116692801Y-86076059D01*
X117234680Y-86226975D01*
X118138846Y-86364464D01*
X118741808Y-86437654D01*
X119137188Y-86491334D01*
X119221037Y-86518077D01*
X118973631Y-86520543D01*
X118375245Y-86501394D01*
X117406154Y-86463288D01*
X116520012Y-86418186D01*
X115594928Y-86350931D01*
X114844889Y-86275027D01*
X114377692Y-86199850D01*
X114284415Y-86176894D01*
X113909282Y-86097471D01*
X113858099Y-86143898D01*
X113425353Y-86143898D01*
X113366071Y-86095127D01*
X113205385Y-85855190D01*
X113258618Y-85704405D01*
X113547308Y-85716645D01*
X113563250Y-85722598D01*
X113938943Y-85821775D01*
X114539031Y-85948065D01*
X115213449Y-86073440D01*
X115812127Y-86169869D01*
X116185000Y-86209322D01*
X116268381Y-86142131D01*
X116331539Y-85831215D01*
X116366961Y-85605627D01*
X116556364Y-85313027D01*
X116582575Y-85302081D01*
X116923020Y-85256312D01*
X117557650Y-85225098D01*
X118406458Y-85211148D01*
X119389441Y-85217168D01*
X120281419Y-85224572D01*
X121236796Y-85203975D01*
X121807941Y-85146347D01*
X121997692Y-85051510D01*
X121985777Y-85013682D01*
X121736262Y-84884443D01*
X121265000Y-84821623D01*
X121002041Y-84804723D01*
X120954260Y-84759161D01*
X121245681Y-84677064D01*
X121900000Y-84548230D01*
X122629064Y-84392350D01*
X123475567Y-84167851D01*
X124135184Y-83947152D01*
X125002675Y-83598329D01*
X123858780Y-83338537D01*
X123346344Y-83207107D01*
X122778468Y-83021172D01*
X122454655Y-82862773D01*
X122355761Y-82800150D01*
X121968209Y-82748219D01*
X121325692Y-82865550D01*
X120908193Y-82950862D01*
X120015013Y-83050672D01*
X119076104Y-83076492D01*
X118234338Y-83026962D01*
X117632590Y-82900721D01*
X117423196Y-82843808D01*
X116901279Y-82864235D01*
X116173657Y-83088024D01*
X116102542Y-83114052D01*
X115425038Y-83290734D01*
X114693811Y-83385749D01*
X114017255Y-83396582D01*
X113503762Y-83320714D01*
X113261726Y-83155630D01*
X113320911Y-83078199D01*
X113701416Y-83025885D01*
X114389125Y-83047296D01*
X115051486Y-83066003D01*
X115851202Y-82947956D01*
X116346850Y-82636584D01*
X116566775Y-82119816D01*
X116574733Y-82061926D01*
X116565103Y-81833583D01*
X116751901Y-81833583D01*
X116878996Y-81911992D01*
X116974076Y-81947594D01*
X116995122Y-82187417D01*
X116992426Y-82361053D01*
X117245485Y-82564054D01*
X117296644Y-82577766D01*
X117918394Y-82684996D01*
X118723583Y-82760729D01*
X119526526Y-82792022D01*
X120141539Y-82765931D01*
X120240964Y-82753120D01*
X120872625Y-82671395D01*
X121558077Y-82582345D01*
X121756370Y-82554654D01*
X122262523Y-82451192D01*
X122411888Y-82353926D01*
X122231296Y-82269899D01*
X121747575Y-82206150D01*
X120987555Y-82169723D01*
X119978067Y-82167659D01*
X119737843Y-82170958D01*
X118690317Y-82169448D01*
X117963256Y-82132604D01*
X117498518Y-82055446D01*
X117237961Y-81932995D01*
X117010489Y-81793219D01*
X116782714Y-81786457D01*
X116751901Y-81833583D01*
X116565103Y-81833583D01*
X116561013Y-81736597D01*
X116351459Y-81531752D01*
X115852890Y-81346448D01*
X115293449Y-81135122D01*
X114608489Y-80794142D01*
X114001346Y-80415798D01*
X113567171Y-80060540D01*
X113474146Y-79908318D01*
X113782272Y-79908318D01*
X114003753Y-80110683D01*
X114444975Y-80400911D01*
X115069873Y-80743914D01*
X116170022Y-81207975D01*
X117463335Y-81485668D01*
X117500150Y-81488772D01*
X118084587Y-81556924D01*
X118305191Y-81634939D01*
X118187692Y-81731550D01*
X118015793Y-81804545D01*
X117976616Y-81849589D01*
X118130380Y-81861146D01*
X118526075Y-81838064D01*
X119212695Y-81779195D01*
X120239231Y-81683387D01*
X120304177Y-81677097D01*
X121401273Y-81531848D01*
X122513330Y-81321798D01*
X123539268Y-81071429D01*
X124378006Y-80805222D01*
X124928462Y-80547660D01*
X124974099Y-80510559D01*
X124934515Y-80410005D01*
X124589335Y-80340204D01*
X123917460Y-80299626D01*
X122897792Y-80286744D01*
X121509231Y-80300031D01*
X121204739Y-80304251D01*
X120470183Y-80303052D01*
X120125446Y-80278509D01*
X120170296Y-80229927D01*
X120604499Y-80156612D01*
X121427821Y-80057871D01*
X122033733Y-79967139D01*
X122408596Y-79828986D01*
X122518718Y-79627749D01*
X122502256Y-79530116D01*
X122378605Y-79428411D01*
X122074383Y-79384325D01*
X121520103Y-79390942D01*
X120646282Y-79441344D01*
X120279553Y-79464546D01*
X119325338Y-79516308D01*
X118458217Y-79552486D01*
X117829487Y-79566366D01*
X117249992Y-79609639D01*
X116966945Y-79729529D01*
X117026299Y-79889111D01*
X117411305Y-80051192D01*
X118105211Y-80178580D01*
X118155974Y-80184675D01*
X118342964Y-80221869D01*
X118178948Y-80239397D01*
X117698805Y-80236274D01*
X116937416Y-80211518D01*
X116151097Y-80170428D01*
X115294079Y-80103045D01*
X114627263Y-80025305D01*
X114250878Y-79947073D01*
X114142781Y-79907526D01*
X113816593Y-79828903D01*
X113782272Y-79908318D01*
X113474146Y-79908318D01*
X113401119Y-79788819D01*
X113485950Y-79624802D01*
X113840385Y-79651413D01*
X114076333Y-79706577D01*
X114668698Y-79806243D01*
X115361470Y-79892914D01*
X115921050Y-79941579D01*
X116304045Y-79919516D01*
X116518120Y-79779032D01*
X116680316Y-79483820D01*
X116840119Y-79058667D01*
X116865919Y-78932376D01*
X117112998Y-78932376D01*
X117162209Y-79006849D01*
X117422424Y-79086655D01*
X117944606Y-79139089D01*
X118771576Y-79167843D01*
X119946154Y-79176607D01*
X120298175Y-79176749D01*
X121302216Y-79181739D01*
X121991343Y-79199920D01*
X122424582Y-79239432D01*
X122660960Y-79308418D01*
X122759501Y-79415019D01*
X122779231Y-79567376D01*
X122786355Y-79679442D01*
X122869596Y-79830034D01*
X123109778Y-79913945D01*
X123584808Y-79950280D01*
X124372590Y-79958146D01*
X125078717Y-79960849D01*
X125564914Y-79981610D01*
X125776078Y-80039326D01*
X125773703Y-80152894D01*
X125619283Y-80341208D01*
X125502552Y-80510559D01*
X125439945Y-80601389D01*
X125362227Y-80966282D01*
X125417893Y-81500297D01*
X125606286Y-82302761D01*
X125734490Y-82791223D01*
X125436092Y-82302761D01*
X125241495Y-81858668D01*
X125130770Y-81276992D01*
X125060407Y-80891140D01*
X124875402Y-80735558D01*
X124646474Y-80917126D01*
X124552214Y-80992151D01*
X124158402Y-81163799D01*
X123589855Y-81337265D01*
X123275978Y-81421701D01*
X122861123Y-81582922D01*
X122688434Y-81792589D01*
X122662220Y-82132763D01*
X122716594Y-82353926D01*
X122754642Y-82508682D01*
X123149689Y-82870644D01*
X123867299Y-83048207D01*
X124921340Y-83046984D01*
X124972768Y-83043332D01*
X125607387Y-83019104D01*
X125902638Y-83064591D01*
X125902086Y-83185967D01*
X125671288Y-83388312D01*
X125117716Y-83733186D01*
X124419331Y-84086330D01*
X123709392Y-84382143D01*
X123121154Y-84555022D01*
X123046910Y-84570578D01*
X122627743Y-84739134D01*
X122392142Y-84959805D01*
X122392582Y-85151601D01*
X122681539Y-85233530D01*
X122852447Y-85306059D01*
X122974615Y-85624299D01*
X122977081Y-85687802D01*
X123115194Y-85971662D01*
X123390708Y-85957166D01*
X123699875Y-85641810D01*
X123989302Y-85342858D01*
X124663527Y-84977931D01*
X125575165Y-84693440D01*
X126636136Y-84514868D01*
X127758361Y-84467695D01*
X128608513Y-84455832D01*
X129479344Y-84335474D01*
X130018854Y-84101549D01*
X130203846Y-83760763D01*
X130114433Y-83610865D01*
X129785734Y-83240268D01*
X129271960Y-82723975D01*
X128633070Y-82124448D01*
X128209217Y-81737344D01*
X127668941Y-81227413D01*
X127355123Y-80883151D01*
X127313587Y-80805620D01*
X127602639Y-80805620D01*
X127657808Y-80885296D01*
X127991107Y-81248023D01*
X128509973Y-81736443D01*
X129136033Y-82284990D01*
X129790918Y-82828096D01*
X130396256Y-83300194D01*
X130873676Y-83635716D01*
X131127870Y-83760763D01*
X131144807Y-83769095D01*
X131343627Y-83731356D01*
X131520492Y-83439550D01*
X131486934Y-83242789D01*
X131260187Y-83084299D01*
X131087278Y-83031410D01*
X130843735Y-82742376D01*
X130730058Y-82517081D01*
X130430884Y-82030926D01*
X130041486Y-81460526D01*
X129368624Y-80520598D01*
X130012579Y-79856205D01*
X130366281Y-79522172D01*
X130726401Y-79318743D01*
X130924682Y-79452226D01*
X130985385Y-79924321D01*
X131001884Y-80081711D01*
X131182203Y-80630359D01*
X131497257Y-81206876D01*
X131659724Y-81464801D01*
X131804397Y-81785344D01*
X131747349Y-81872903D01*
X131589771Y-81740553D01*
X131297246Y-81333545D01*
X130980828Y-80765201D01*
X130968859Y-80741011D01*
X130684471Y-80189213D01*
X130497503Y-79935652D01*
X130340143Y-79927285D01*
X130144582Y-80111068D01*
X129931488Y-80384418D01*
X129813077Y-80638256D01*
X129834740Y-80717978D01*
X130028614Y-81055876D01*
X130353227Y-81513871D01*
X130722193Y-81980329D01*
X131049127Y-82343618D01*
X131247644Y-82492104D01*
X131253759Y-82492075D01*
X131517552Y-82377053D01*
X131908993Y-82107376D01*
X132130371Y-81974666D01*
X132812882Y-81777392D01*
X133637668Y-81713299D01*
X134448328Y-81787429D01*
X135088462Y-82004828D01*
X135552125Y-82270682D01*
X136063889Y-82544541D01*
X136366647Y-82656750D01*
X136537839Y-82631428D01*
X136654907Y-82492695D01*
X136764312Y-82369756D01*
X136966556Y-82357266D01*
X136999208Y-82394471D01*
X137026026Y-82559482D01*
X137021566Y-82562842D01*
X136809829Y-82722560D01*
X136436342Y-83004379D01*
X136324513Y-83092367D01*
X136079024Y-83378991D01*
X136152054Y-83597173D01*
X136178897Y-83620783D01*
X136432538Y-83719067D01*
X136770530Y-83624112D01*
X137233833Y-83308771D01*
X137863408Y-82745896D01*
X138700216Y-81908340D01*
X140260432Y-80299281D01*
X139481755Y-79621877D01*
X138893836Y-79163539D01*
X137607157Y-78397785D01*
X136213431Y-77820933D01*
X136090398Y-77777983D01*
X135603500Y-77543798D01*
X135327329Y-77307399D01*
X135289140Y-77249039D01*
X135035694Y-77124680D01*
X134557823Y-77206839D01*
X134544550Y-77210565D01*
X133909661Y-77285244D01*
X133245848Y-77225815D01*
X133127453Y-77201288D01*
X132715072Y-77159021D01*
X132548462Y-77218365D01*
X132518288Y-77262991D01*
X132224146Y-77387097D01*
X131718077Y-77496589D01*
X131591749Y-77517209D01*
X130879599Y-77661990D01*
X130267557Y-77824884D01*
X129929536Y-78000637D01*
X129419625Y-78398453D01*
X128867638Y-78925830D01*
X128341760Y-79506501D01*
X127910178Y-80064201D01*
X127641075Y-80522662D01*
X127602639Y-80805620D01*
X127313587Y-80805620D01*
X127226828Y-80643676D01*
X127243122Y-80448104D01*
X127363070Y-80235552D01*
X127375331Y-80216804D01*
X127615682Y-79802685D01*
X127616174Y-79612872D01*
X127378676Y-79567376D01*
X127349528Y-79566000D01*
X126963215Y-79379242D01*
X126555198Y-78968954D01*
X126232156Y-78465907D01*
X126114308Y-78048793D01*
X126296154Y-78048793D01*
X126296891Y-78068363D01*
X126453148Y-78438114D01*
X126799397Y-78835976D01*
X126938362Y-78955105D01*
X127466238Y-79330686D01*
X127882554Y-79408510D01*
X128293686Y-79177468D01*
X128806013Y-78626454D01*
X129556111Y-77926950D01*
X130626698Y-77399870D01*
X131867420Y-77222761D01*
X131999549Y-77218939D01*
X132302385Y-77124047D01*
X132266724Y-76882436D01*
X131893456Y-76468317D01*
X131828147Y-76401696D01*
X131469195Y-75879829D01*
X131201767Y-75261951D01*
X131171059Y-75162645D01*
X131130230Y-75071015D01*
X131403013Y-75071015D01*
X131641553Y-75808865D01*
X132231338Y-76441223D01*
X132825752Y-76788470D01*
X133740444Y-77023147D01*
X134608575Y-76914427D01*
X135364162Y-76475170D01*
X135941222Y-75718233D01*
X136002745Y-75593250D01*
X136240235Y-74825331D01*
X136137634Y-74196807D01*
X135687779Y-73649204D01*
X135439514Y-73460522D01*
X135046870Y-73274265D01*
X134524425Y-73183162D01*
X133742234Y-73154149D01*
X133508503Y-73152492D01*
X132860773Y-73167908D01*
X132451766Y-73245007D01*
X132162230Y-73420626D01*
X132039506Y-73552540D01*
X131872917Y-73731604D01*
X131525446Y-74301194D01*
X131403013Y-75071015D01*
X131130230Y-75071015D01*
X130968254Y-74707506D01*
X130687198Y-74523836D01*
X130245574Y-74593368D01*
X129984321Y-74709571D01*
X129561063Y-74897832D01*
X129268273Y-75066893D01*
X128666091Y-75502505D01*
X128302054Y-75809665D01*
X128008732Y-76057158D01*
X127369627Y-76659982D01*
X126822208Y-77240109D01*
X126439906Y-77726669D01*
X126296154Y-78048793D01*
X126114308Y-78048793D01*
X126100769Y-78000872D01*
X126193142Y-77605404D01*
X126499852Y-77163285D01*
X126598677Y-77071852D01*
X126787027Y-76739951D01*
X126611968Y-76520517D01*
X126089238Y-76441223D01*
X125852903Y-76451597D01*
X125579444Y-76578127D01*
X125514615Y-76929684D01*
X125575149Y-77252760D01*
X125758846Y-77426442D01*
X125788962Y-77430776D01*
X125710026Y-77505919D01*
X125366497Y-77650980D01*
X124848322Y-77836388D01*
X124245445Y-78032569D01*
X123647815Y-78209951D01*
X123145377Y-78338960D01*
X122828077Y-78390024D01*
X122547582Y-78450732D01*
X122385470Y-78736992D01*
X122357828Y-78901221D01*
X122238931Y-78883530D01*
X122104198Y-78818317D01*
X121651716Y-78745683D01*
X120974577Y-78699550D01*
X120160621Y-78679079D01*
X119297689Y-78683435D01*
X118473621Y-78711779D01*
X117776256Y-78763276D01*
X117293435Y-78837087D01*
X117112998Y-78932376D01*
X116865919Y-78932376D01*
X116917692Y-78678952D01*
X116917991Y-78668771D01*
X116990643Y-78553790D01*
X117229798Y-78474891D01*
X117691481Y-78425881D01*
X118431720Y-78400565D01*
X119506539Y-78392750D01*
X120043894Y-78389055D01*
X121441888Y-78334939D01*
X122588922Y-78204677D01*
X123586892Y-77983350D01*
X124537692Y-77656036D01*
X125026154Y-77460240D01*
X124440000Y-77335937D01*
X123910557Y-77204448D01*
X123267692Y-77009552D01*
X123035934Y-76956514D01*
X122397493Y-76886159D01*
X121520070Y-76837789D01*
X120493542Y-76811407D01*
X119407784Y-76807015D01*
X118352673Y-76824614D01*
X117418083Y-76864208D01*
X116693891Y-76925797D01*
X116269973Y-77009385D01*
X116261428Y-77012668D01*
X115666491Y-77161162D01*
X115009742Y-77222761D01*
X114772119Y-77231549D01*
X114487514Y-77315973D01*
X114566985Y-77481323D01*
X115000262Y-77717028D01*
X115777072Y-78012515D01*
X116225723Y-78181844D01*
X116473325Y-78323730D01*
X116378255Y-78381367D01*
X116359722Y-78381647D01*
X115849672Y-78281061D01*
X115165995Y-78020131D01*
X114447827Y-77660075D01*
X113834304Y-77262107D01*
X113687967Y-77146003D01*
X113582294Y-77016729D01*
X113696822Y-76949058D01*
X114088407Y-76923066D01*
X114813902Y-76918829D01*
X115420122Y-76904098D01*
X116198556Y-76805306D01*
X116686800Y-76605315D01*
X116787694Y-76539579D01*
X117247817Y-76389008D01*
X117856433Y-76459543D01*
X118437040Y-76560420D01*
X119290511Y-76627170D01*
X120179272Y-76627798D01*
X121018386Y-76568991D01*
X121722914Y-76457434D01*
X122207918Y-76299814D01*
X122388462Y-76102814D01*
X122384177Y-76064543D01*
X122290598Y-75962026D01*
X122031866Y-75897289D01*
X121551699Y-75865745D01*
X120793812Y-75862807D01*
X119701923Y-75883888D01*
X119443493Y-75891129D01*
X118470444Y-75934840D01*
X117668722Y-75996570D01*
X117111472Y-76069520D01*
X116871838Y-76146893D01*
X116787211Y-76200491D01*
X116725300Y-76001607D01*
X116753475Y-75820785D01*
X116917692Y-75659684D01*
X116926258Y-75659649D01*
X117143202Y-75591457D01*
X117100366Y-75513146D01*
X117308407Y-75513146D01*
X117308530Y-75514652D01*
X117500173Y-75571025D01*
X118005147Y-75617134D01*
X118747950Y-75648260D01*
X119653077Y-75659684D01*
X119677214Y-75659676D01*
X120579162Y-75647699D01*
X121316866Y-75616139D01*
X121814831Y-75569715D01*
X121997559Y-75513146D01*
X121997435Y-75511644D01*
X121805791Y-75455269D01*
X121300812Y-75409159D01*
X120558009Y-75378032D01*
X119652889Y-75366607D01*
X119628832Y-75366615D01*
X118726879Y-75378590D01*
X117989158Y-75410150D01*
X117491167Y-75456575D01*
X117308407Y-75513146D01*
X117100366Y-75513146D01*
X117051904Y-75424550D01*
X116705167Y-75205872D01*
X116155794Y-74982361D01*
X115667405Y-74788830D01*
X115042558Y-74484288D01*
X114423672Y-74138617D01*
X113897592Y-73803821D01*
X113551164Y-73531902D01*
X113471232Y-73374862D01*
X113479036Y-73370294D01*
X113731437Y-73391468D01*
X114244352Y-73506042D01*
X114917349Y-73691990D01*
X115612080Y-73891280D01*
X116273196Y-74045197D01*
X116671210Y-74067708D01*
X116866062Y-73959714D01*
X116917692Y-73722120D01*
X116957423Y-73503449D01*
X117161923Y-73258081D01*
X117294016Y-73168175D01*
X117197194Y-72977167D01*
X116740943Y-72734760D01*
X115940769Y-72451201D01*
X115586495Y-72338620D01*
X114654390Y-72009622D01*
X114051781Y-71738809D01*
X114005517Y-71702579D01*
X114610622Y-71702579D01*
X114876617Y-71809848D01*
X114949979Y-71834218D01*
X115431139Y-72003837D01*
X116012351Y-72218235D01*
X116211382Y-72287169D01*
X116960231Y-72489754D01*
X117721967Y-72634349D01*
X118054702Y-72692618D01*
X118501185Y-72825686D01*
X118676154Y-72963815D01*
X118557376Y-73067072D01*
X118187692Y-73039451D01*
X117859855Y-73005265D01*
X117699231Y-73115962D01*
X117754383Y-73168502D01*
X118139344Y-73241102D01*
X118864379Y-73278618D01*
X119897308Y-73278668D01*
X122095385Y-73242267D01*
X120434615Y-73132129D01*
X118773846Y-73021992D01*
X120727692Y-72892985D01*
X121022887Y-72871134D01*
X122155623Y-72746540D01*
X123223113Y-72570895D01*
X124144099Y-72361891D01*
X124837327Y-72137221D01*
X125221539Y-71914574D01*
X125251342Y-71879363D01*
X125213191Y-71779997D01*
X124830769Y-71821571D01*
X123790117Y-72022330D01*
X122560368Y-72242280D01*
X121587473Y-72384712D01*
X120798136Y-72455368D01*
X120119060Y-72459990D01*
X119476949Y-72404319D01*
X118798506Y-72294096D01*
X118717199Y-72278689D01*
X117802808Y-72092500D01*
X116907377Y-71890758D01*
X116213956Y-71714513D01*
X115837430Y-71623219D01*
X115244396Y-71538529D01*
X114856727Y-71559914D01*
X114712188Y-71612695D01*
X114610622Y-71702579D01*
X114005517Y-71702579D01*
X113791213Y-71534755D01*
X113885227Y-71406035D01*
X114346367Y-71361222D01*
X114413626Y-71356221D01*
X114890422Y-71224633D01*
X115057750Y-71158472D01*
X115942971Y-71158472D01*
X115969057Y-71283861D01*
X116275939Y-71418893D01*
X116894421Y-71598972D01*
X117855302Y-71859498D01*
X118297788Y-71955853D01*
X119207167Y-72064156D01*
X120250518Y-72109328D01*
X121340686Y-72095638D01*
X122390515Y-72027356D01*
X123312848Y-71908749D01*
X124020530Y-71744087D01*
X124426403Y-71537640D01*
X124421716Y-71491537D01*
X124180833Y-71345660D01*
X123708568Y-71175374D01*
X123347087Y-71060013D01*
X121824913Y-70376373D01*
X120604741Y-69467732D01*
X119895636Y-68787981D01*
X118943972Y-69459852D01*
X118483530Y-69764405D01*
X117644581Y-70262211D01*
X116835908Y-70687823D01*
X116609988Y-70795014D01*
X116166882Y-71007324D01*
X115942971Y-71158472D01*
X115057750Y-71158472D01*
X115590093Y-70947985D01*
X116420742Y-70571427D01*
X117290472Y-70140110D01*
X118107386Y-69699184D01*
X118779588Y-69293798D01*
X119215180Y-68969104D01*
X119554917Y-68491251D01*
X119627359Y-67851120D01*
X119614787Y-67621493D01*
X119589422Y-66746718D01*
X119590076Y-65813667D01*
X119613230Y-64897178D01*
X119655365Y-64072085D01*
X119712963Y-63413224D01*
X119782504Y-62995430D01*
X119860470Y-62893539D01*
X119910016Y-62993700D01*
X119991188Y-63444872D01*
X120043945Y-64164989D01*
X120060872Y-65073416D01*
X120066268Y-65648178D01*
X120098958Y-66393155D01*
X120154873Y-66924168D01*
X120226957Y-67152868D01*
X120230981Y-67155539D01*
X120286252Y-67402009D01*
X120180880Y-67840441D01*
X120150749Y-67922347D01*
X120069660Y-68297016D01*
X120183476Y-68614535D01*
X120540093Y-69034052D01*
X121065689Y-69535166D01*
X121890269Y-70118572D01*
X122907917Y-70614041D01*
X124217187Y-71076309D01*
X124595029Y-71197301D01*
X125267283Y-71431094D01*
X125531088Y-71537640D01*
X125731929Y-71618756D01*
X125905385Y-71728020D01*
X125804080Y-71879363D01*
X125781298Y-71913397D01*
X125363276Y-72174831D01*
X124746584Y-72443979D01*
X124031721Y-72683288D01*
X123319187Y-72855208D01*
X122709481Y-72922185D01*
X122683062Y-72922407D01*
X122301903Y-72990349D01*
X122254996Y-73194608D01*
X122228463Y-73309710D01*
X122014084Y-73400467D01*
X121560962Y-73474493D01*
X120818450Y-73540049D01*
X119735900Y-73605393D01*
X119309496Y-73629458D01*
X118290523Y-73703221D01*
X117610591Y-73784951D01*
X117231007Y-73880398D01*
X117113077Y-73995316D01*
X117113115Y-73997722D01*
X117304225Y-74158325D01*
X117871694Y-74307608D01*
X118822692Y-74447465D01*
X120532308Y-74650168D01*
X118676154Y-74548725D01*
X117917225Y-74491848D01*
X116834594Y-74362304D01*
X115851237Y-74192389D01*
X115064250Y-73999761D01*
X114570731Y-73802080D01*
X114502790Y-73767277D01*
X114377692Y-73794528D01*
X114475137Y-73906749D01*
X114861210Y-74127887D01*
X115450672Y-74393614D01*
X116146045Y-74664001D01*
X116849853Y-74899117D01*
X117464617Y-75059034D01*
X117974691Y-75146260D01*
X119705559Y-75250340D01*
X121526009Y-75111006D01*
X123292692Y-74745470D01*
X124862256Y-74170939D01*
X125215099Y-73999083D01*
X125686109Y-73745239D01*
X125895329Y-73595816D01*
X125813933Y-73575080D01*
X125413090Y-73707295D01*
X125119149Y-73809886D01*
X124209229Y-74060840D01*
X123187241Y-74275446D01*
X122213485Y-74422788D01*
X121448261Y-74471951D01*
X121209893Y-74466259D01*
X120808945Y-74436628D01*
X120781892Y-74383773D01*
X121133884Y-74304310D01*
X121870069Y-74194859D01*
X122045546Y-74170058D01*
X122527228Y-74068570D01*
X122723656Y-73925499D01*
X122718746Y-73691030D01*
X122695016Y-73469941D01*
X122797523Y-73315069D01*
X122902559Y-73394317D01*
X122974615Y-73719004D01*
X123045154Y-74001860D01*
X123321915Y-74012712D01*
X123966642Y-73822727D01*
X124687222Y-73635592D01*
X125343964Y-73486250D01*
X125832995Y-73398215D01*
X126050447Y-73395003D01*
X126080070Y-73437190D01*
X125999245Y-73682329D01*
X125621940Y-73998403D01*
X125010501Y-74348497D01*
X124227276Y-74695694D01*
X123334613Y-75003077D01*
X122994858Y-75116566D01*
X122558973Y-75314003D01*
X122388462Y-75471869D01*
X122393656Y-75513146D01*
X122394083Y-75516541D01*
X122583846Y-75659684D01*
X122711391Y-75777025D01*
X122779231Y-76140576D01*
X122784639Y-76259064D01*
X122888283Y-76520815D01*
X123193686Y-76718475D01*
X123791617Y-76922115D01*
X124171644Y-77033844D01*
X124709107Y-77172830D01*
X124993240Y-77186582D01*
X125104625Y-77068418D01*
X125123846Y-76811658D01*
X125129255Y-76763691D01*
X125320474Y-76388925D01*
X125685797Y-75923550D01*
X125971481Y-75923550D01*
X126239318Y-76101101D01*
X126429972Y-76160063D01*
X126899851Y-76330255D01*
X127114673Y-76353651D01*
X127469220Y-76147231D01*
X127604712Y-75809665D01*
X127456102Y-75510121D01*
X127082914Y-75351343D01*
X126571786Y-75404986D01*
X126444067Y-75451524D01*
X126048970Y-75687679D01*
X125971481Y-75923550D01*
X125685797Y-75923550D01*
X125728289Y-75869420D01*
X126274707Y-75284339D01*
X126678408Y-74904268D01*
X127073601Y-74904268D01*
X127110399Y-75069698D01*
X127458400Y-75299329D01*
X127794149Y-75470587D01*
X128094243Y-75486546D01*
X128444184Y-75269821D01*
X128717511Y-74973007D01*
X128755031Y-74709571D01*
X128630046Y-74599749D01*
X128205846Y-74502561D01*
X127685814Y-74552442D01*
X127243470Y-74745292D01*
X127073601Y-74904268D01*
X126678408Y-74904268D01*
X126881733Y-74712845D01*
X127471373Y-74234102D01*
X127593522Y-74158274D01*
X128490532Y-74158274D01*
X128743592Y-74443076D01*
X129015414Y-74654775D01*
X129317785Y-74697248D01*
X129784267Y-74541802D01*
X130118084Y-74388181D01*
X130295438Y-74207358D01*
X130197447Y-73991204D01*
X130159485Y-73950859D01*
X129725777Y-73750834D01*
X129156226Y-73728417D01*
X128643387Y-73895470D01*
X128530153Y-73978916D01*
X128490532Y-74158274D01*
X127593522Y-74158274D01*
X127965633Y-73927273D01*
X128453216Y-73699727D01*
X128836154Y-73517483D01*
X129037406Y-73440268D01*
X129446757Y-73315069D01*
X129830839Y-73315069D01*
X130319301Y-73803530D01*
X130537290Y-74019229D01*
X130764046Y-74207358D01*
X130806424Y-74242517D01*
X130948917Y-74222578D01*
X131062173Y-73982935D01*
X131070846Y-73960138D01*
X131164516Y-73552540D01*
X130996673Y-73362130D01*
X130505804Y-73315069D01*
X129830839Y-73315069D01*
X129446757Y-73315069D01*
X129555877Y-73281695D01*
X130083361Y-73142028D01*
X136333926Y-73142028D01*
X136432943Y-73534051D01*
X136465077Y-73614260D01*
X136795135Y-74484472D01*
X136897605Y-74825331D01*
X136956175Y-75020162D01*
X137001372Y-75130355D01*
X137241647Y-75510348D01*
X137606881Y-75988355D01*
X138207359Y-76716838D01*
X137824806Y-77124047D01*
X137820218Y-77128931D01*
X137806387Y-77143694D01*
X137522622Y-77503700D01*
X137492268Y-77784270D01*
X137747444Y-78069963D01*
X138320271Y-78445338D01*
X138667163Y-78650907D01*
X139091645Y-78888624D01*
X139292690Y-78981223D01*
X139432272Y-78857157D01*
X139676618Y-78525344D01*
X139679663Y-78520683D01*
X139847370Y-78157782D01*
X139877138Y-77709895D01*
X139778814Y-77033292D01*
X139701466Y-76620725D01*
X139656319Y-76343530D01*
X139777692Y-76343530D01*
X139875385Y-76441223D01*
X139973077Y-76343530D01*
X139875385Y-76245838D01*
X139777692Y-76343530D01*
X139656319Y-76343530D01*
X139613083Y-76078063D01*
X139610100Y-75807343D01*
X139698800Y-75735204D01*
X139885468Y-75788282D01*
X140091415Y-76004093D01*
X140072822Y-76343530D01*
X140066375Y-76461229D01*
X140040138Y-76604149D01*
X140028802Y-77033242D01*
X140110468Y-77296061D01*
X140243153Y-77318239D01*
X140384873Y-77025407D01*
X140437540Y-76814634D01*
X140536437Y-75831845D01*
X140410151Y-74922001D01*
X140081878Y-74180271D01*
X140018847Y-74120798D01*
X140596931Y-74120798D01*
X140649313Y-74829299D01*
X140715631Y-75556626D01*
X140744032Y-75831845D01*
X140800628Y-76380291D01*
X140894773Y-76917034D01*
X141030030Y-77228023D01*
X141238362Y-77374425D01*
X141551734Y-77417410D01*
X142002107Y-77418146D01*
X142315005Y-77414733D01*
X142805593Y-77365072D01*
X143080020Y-77219034D01*
X143259065Y-76929684D01*
X143501590Y-76602892D01*
X143844016Y-76441223D01*
X144101029Y-76463789D01*
X144358330Y-76647082D01*
X144275672Y-77019653D01*
X144252535Y-77070041D01*
X144255253Y-77167735D01*
X144374301Y-77241167D01*
X144655420Y-77294553D01*
X145144348Y-77332109D01*
X145886825Y-77358049D01*
X146928591Y-77376589D01*
X148315385Y-77391944D01*
X152532601Y-77432568D01*
X152394593Y-75715741D01*
X152362876Y-75366885D01*
X152272014Y-74653282D01*
X152170194Y-74144737D01*
X152074062Y-73933787D01*
X151999982Y-73883344D01*
X151891539Y-73591336D01*
X151845972Y-73508772D01*
X151665961Y-73438638D01*
X151308510Y-73386970D01*
X150730961Y-73351218D01*
X149890657Y-73328833D01*
X148744940Y-73317264D01*
X147251154Y-73313962D01*
X146483254Y-73311613D01*
X145174116Y-73296736D01*
X143993461Y-73269978D01*
X143006858Y-73233465D01*
X142279874Y-73189324D01*
X141878077Y-73139681D01*
X141526571Y-73067683D01*
X141225864Y-73075039D01*
X141145385Y-73237952D01*
X141105875Y-73370940D01*
X140836756Y-73510453D01*
X140702062Y-73542679D01*
X140610702Y-73718748D01*
X140596931Y-74120798D01*
X140018847Y-74120798D01*
X139574813Y-73701827D01*
X139349369Y-73530888D01*
X139284028Y-73323487D01*
X139263474Y-73241938D01*
X138996424Y-73258386D01*
X138768148Y-73352945D01*
X138605385Y-73544772D01*
X138584398Y-73610698D01*
X138389140Y-73595254D01*
X138288927Y-73487011D01*
X138437986Y-73293637D01*
X138549082Y-73200534D01*
X138507692Y-73103200D01*
X138508930Y-73048922D01*
X138800769Y-72941859D01*
X138842356Y-72928848D01*
X138875505Y-72863317D01*
X138548964Y-72824084D01*
X137888898Y-72814797D01*
X137828643Y-72815415D01*
X137132961Y-72839333D01*
X136609432Y-72886680D01*
X136367352Y-72947897D01*
X136333926Y-73142028D01*
X130083361Y-73142028D01*
X130203846Y-73110126D01*
X130607015Y-72987651D01*
X131348382Y-72664787D01*
X131381705Y-72643459D01*
X139458611Y-72643459D01*
X139463712Y-72842587D01*
X139519673Y-73004189D01*
X139582308Y-73284050D01*
X139644351Y-73397136D01*
X139924231Y-73621790D01*
X140264289Y-73708634D01*
X140608077Y-73473405D01*
X140821643Y-73220611D01*
X140957214Y-72842339D01*
X140731676Y-72611592D01*
X140147558Y-72533530D01*
X139698487Y-72552340D01*
X139458611Y-72643459D01*
X131381705Y-72643459D01*
X131920260Y-72298761D01*
X132071320Y-72178386D01*
X132566746Y-71873943D01*
X132959196Y-71751992D01*
X133243731Y-71674322D01*
X133241204Y-71556607D01*
X133720769Y-71556607D01*
X133726447Y-71603309D01*
X133916154Y-71751992D01*
X133962856Y-71746314D01*
X134111539Y-71556607D01*
X134105861Y-71509905D01*
X133916154Y-71361223D01*
X133869452Y-71366900D01*
X133720769Y-71556607D01*
X133241204Y-71556607D01*
X133237351Y-71377113D01*
X133268632Y-71053729D01*
X133618839Y-70898420D01*
X134263675Y-70937908D01*
X134554259Y-71053485D01*
X134609955Y-71336224D01*
X134633225Y-71556607D01*
X134639251Y-71613672D01*
X134960098Y-71966514D01*
X135521279Y-72278228D01*
X136239487Y-72505204D01*
X137031416Y-72603834D01*
X137074915Y-72604910D01*
X137678411Y-72609726D01*
X137984415Y-72557666D01*
X138081161Y-72406628D01*
X138056884Y-72114507D01*
X138052282Y-72085071D01*
X137865706Y-71678473D01*
X137413923Y-71484392D01*
X136987836Y-71311927D01*
X136862774Y-71013200D01*
X137088415Y-71013200D01*
X137312115Y-71166667D01*
X137849498Y-71323299D01*
X138620961Y-71457484D01*
X139091908Y-71521241D01*
X139590865Y-71596881D01*
X139746948Y-71644820D01*
X139588206Y-71678764D01*
X139142692Y-71712420D01*
X139099936Y-71715300D01*
X138545335Y-71782769D01*
X138281606Y-71913913D01*
X138214615Y-72153466D01*
X138312305Y-72435194D01*
X138691546Y-72533530D01*
X139019945Y-72489299D01*
X139289492Y-72337722D01*
X139458183Y-72255656D01*
X139892291Y-72238853D01*
X140426541Y-72304969D01*
X140907046Y-72432618D01*
X141179922Y-72600417D01*
X141180369Y-72601093D01*
X141430861Y-72723461D01*
X141927808Y-72842339D01*
X141956936Y-72849307D01*
X142645306Y-72951490D01*
X143430850Y-73013333D01*
X144614369Y-73059087D01*
X145994229Y-73077866D01*
X147466731Y-73070326D01*
X148928173Y-73037118D01*
X150274855Y-72978897D01*
X151403077Y-72896316D01*
X151727933Y-72867482D01*
X152564343Y-72813912D01*
X153263062Y-72797042D01*
X153698846Y-72820982D01*
X154090600Y-72831805D01*
X154236154Y-72648047D01*
X154259847Y-72536517D01*
X154480385Y-72408701D01*
X154571460Y-72405285D01*
X154770113Y-72240453D01*
X154705270Y-72162818D01*
X154332505Y-72091234D01*
X153695498Y-72080727D01*
X152575385Y-72116386D01*
X153845385Y-71885343D01*
X154274748Y-71801575D01*
X154803629Y-71655717D01*
X155074956Y-71484358D01*
X155173628Y-71246676D01*
X155180583Y-71037570D01*
X155064049Y-70915390D01*
X154732526Y-70883896D01*
X154099012Y-70916342D01*
X153674567Y-70951981D01*
X152790791Y-71055439D01*
X152028460Y-71177427D01*
X151477152Y-71244958D01*
X150590914Y-71298622D01*
X149466197Y-71334639D01*
X148180787Y-71352995D01*
X146812466Y-71353674D01*
X145439019Y-71336662D01*
X144138230Y-71301944D01*
X142987882Y-71249504D01*
X142065761Y-71179330D01*
X141288697Y-71102010D01*
X139839810Y-70967668D01*
X138732534Y-70882546D01*
X137935313Y-70845592D01*
X137416590Y-70855751D01*
X137144810Y-70911972D01*
X137088415Y-71013200D01*
X136862774Y-71013200D01*
X136846923Y-70975338D01*
X136788455Y-70728505D01*
X136480078Y-70579684D01*
X136097645Y-70476899D01*
X135804281Y-70141843D01*
X135799725Y-69699461D01*
X135822310Y-69647805D01*
X135916843Y-69535445D01*
X136098869Y-69466256D01*
X136418370Y-69441595D01*
X136925328Y-69462817D01*
X137669726Y-69531278D01*
X138701546Y-69648336D01*
X140070769Y-69815346D01*
X140414483Y-69854979D01*
X141355278Y-69947831D01*
X142434295Y-70039226D01*
X143479771Y-70114110D01*
X145521081Y-70243572D01*
X144798617Y-69399536D01*
X144795857Y-69396309D01*
X144276251Y-68659347D01*
X144083935Y-68011560D01*
X144194750Y-67371818D01*
X144262418Y-67244988D01*
X144597594Y-67077427D01*
X145100292Y-67221423D01*
X145730125Y-67669155D01*
X146420769Y-68275549D01*
X146420769Y-67780152D01*
X146311990Y-67370176D01*
X145834616Y-66867376D01*
X145475033Y-66515807D01*
X145271884Y-66129144D01*
X145267427Y-65821381D01*
X145492692Y-65698591D01*
X145587158Y-65734192D01*
X145909785Y-65994187D01*
X146326536Y-66423665D01*
X146745401Y-66923880D01*
X147074369Y-67396084D01*
X147110363Y-67539870D01*
X147047367Y-67961038D01*
X146864125Y-68447508D01*
X146623943Y-68849343D01*
X146390131Y-69016607D01*
X146245665Y-68964666D01*
X145865815Y-68702392D01*
X145403238Y-68293108D01*
X145184805Y-68083139D01*
X144854008Y-67803326D01*
X144700103Y-67771910D01*
X144662308Y-67961703D01*
X144694602Y-68112202D01*
X144938005Y-68543758D01*
X145341784Y-69012371D01*
X145686360Y-69375351D01*
X145871586Y-69697025D01*
X145806321Y-69929930D01*
X145774889Y-69992634D01*
X145854447Y-70075481D01*
X146139755Y-70134271D01*
X146677057Y-70173512D01*
X147512596Y-70197713D01*
X148692615Y-70211384D01*
X149662968Y-70222632D01*
X150533005Y-70246588D01*
X151038316Y-70282624D01*
X151193289Y-70331884D01*
X151012308Y-70395509D01*
X150851779Y-70421086D01*
X150240481Y-70476141D01*
X149369578Y-70521832D01*
X148330716Y-70553984D01*
X147215540Y-70568424D01*
X146371339Y-70567291D01*
X145018563Y-70540765D01*
X143725401Y-70476015D01*
X142380877Y-70364874D01*
X140874017Y-70199177D01*
X139093846Y-69970756D01*
X139014294Y-69960301D01*
X138129540Y-69869684D01*
X137284272Y-69822317D01*
X136651539Y-69828294D01*
X136305072Y-69856885D01*
X135984583Y-69908753D01*
X135977511Y-69996733D01*
X136235303Y-70159456D01*
X136306465Y-70194314D01*
X136844262Y-70346715D01*
X137702971Y-70493565D01*
X138825605Y-70631786D01*
X140155177Y-70758297D01*
X141634700Y-70870017D01*
X143207188Y-70963868D01*
X144815652Y-71036769D01*
X146403106Y-71085640D01*
X147912562Y-71107402D01*
X149287034Y-71098973D01*
X150469535Y-71057275D01*
X151403077Y-70979227D01*
X151584802Y-70957069D01*
X152607366Y-70838233D01*
X153638593Y-70726290D01*
X154480385Y-70642893D01*
X155035829Y-70577723D01*
X155606433Y-70444628D01*
X155799231Y-70276710D01*
X155798864Y-70267678D01*
X155692284Y-70159537D01*
X155359012Y-70104044D01*
X154745086Y-70097403D01*
X153796539Y-70135816D01*
X153234012Y-70161208D01*
X152443335Y-70174428D01*
X152029721Y-70148511D01*
X151986535Y-70092617D01*
X152307141Y-70015908D01*
X152984905Y-69927544D01*
X154013190Y-69836689D01*
X155994615Y-69689816D01*
X155994615Y-70232442D01*
X155935509Y-70602446D01*
X155701539Y-70775069D01*
X155516449Y-70862611D01*
X155465158Y-71037570D01*
G37*
%LPC*%
D10*
X106679999Y-60070999D03*
D11*
X106679999Y-62610999D03*
X106679999Y-65150999D03*
X106679999Y-67690999D03*
X106679999Y-70230999D03*
X106679999Y-72770999D03*
X106679999Y-75310999D03*
X106679999Y-77850999D03*
X114299999Y-77850999D03*
X114299999Y-75310999D03*
X114299999Y-72770999D03*
X114299999Y-70230999D03*
X114299999Y-67690999D03*
X114299999Y-65150999D03*
X114299999Y-62610999D03*
X114299999Y-60070999D03*
D12*
X111119999Y-52704999D03*
D13*
X113659999Y-52704999D03*
D12*
X102999999Y-65459999D03*
D13*
X102999999Y-67999999D03*
D10*
X113899999Y-82494887D03*
D14*
X113900000Y-84994888D03*
D15*
X103000000Y-91000000D03*
X162000000Y-91000000D03*
D10*
X121284999Y-70093999D03*
D11*
X123824999Y-70093999D03*
X126364999Y-70093999D03*
X128904999Y-70093999D03*
X131444999Y-70093999D03*
X133984999Y-70093999D03*
X136524999Y-70093999D03*
X139064999Y-70093999D03*
X141604999Y-70093999D03*
X144144999Y-70093999D03*
X146684999Y-70093999D03*
X149224999Y-70093999D03*
X151764999Y-70093999D03*
X154304999Y-70093999D03*
X156844999Y-70093999D03*
X156844999Y-54853999D03*
X154304999Y-54853999D03*
X151764999Y-54853999D03*
X149224999Y-54853999D03*
X146684999Y-54853999D03*
X144144999Y-54853999D03*
X141604999Y-54853999D03*
X139064999Y-54853999D03*
X136524999Y-54853999D03*
X133984999Y-54853999D03*
X131444999Y-54853999D03*
X128904999Y-54853999D03*
X126364999Y-54853999D03*
X123824999Y-54853999D03*
X121284999Y-54853999D03*
D15*
X103000000Y-53000000D03*
X162000000Y-53000000D03*
D10*
X113873999Y-91245112D03*
D14*
X113874000Y-88745113D03*
D12*
X154999999Y-76879999D03*
D13*
X154999999Y-79419999D03*
X154999999Y-81959999D03*
X154999999Y-84499999D03*
X154999999Y-87039999D03*
X154999999Y-89579999D03*
D16*
X106844000Y-83000000D03*
D17*
X106843999Y-84999999D03*
M02*
