M48
; DRILL file {KiCad (7.0.0)} date Thu Feb 16 13:39:56 2023
; FORMAT={-:-/ absolute / metric / decimal}
; #@! TF.CreationDate,2023-02-16T13:39:56+01:00
; #@! TF.GenerationSoftware,Kicad,Pcbnew,(7.0.0)
; #@! TF.FileFunction,Plated,1,2,PTH
FMAT,2
METRIC
; #@! TA.AperFunction,Plated,PTH,ViaDrill
T1C0.400
; #@! TA.AperFunction,Plated,PTH,ComponentDrill
T2C0.750
; #@! TA.AperFunction,Plated,PTH,ComponentDrill
T3C0.800
; #@! TA.AperFunction,Plated,PTH,ComponentDrill
T4C1.000
; #@! TA.AperFunction,Plated,PTH,ComponentDrill
T5C3.200
%
G90
G05
T1
X103.836Y-57.85
X103.836Y-61.85
X103.836Y-73.85
X103.836Y-77.85
X103.836Y-81.85
X103.836Y-85.85
X107.836Y-53.85
X111.836Y-69.85
X111.836Y-77.85
X111.836Y-85.85
X115.836Y-53.85
X115.836Y-85.85
X126.111Y-79.883
X126.111Y-81.153
X128.651Y-63.881
X131.836Y-77.85
X133.985Y-58.928
X135.836Y-57.85
X136.525Y-66.548
X139.836Y-57.85
X139.836Y-81.85
X139.836Y-89.85
X142.418Y-62.636
X143.836Y-57.85
X143.836Y-81.85
X143.836Y-85.85
X143.836Y-89.85
X147.836Y-57.85
X147.836Y-61.85
X147.836Y-65.85
X147.836Y-77.85
X147.836Y-81.85
X147.836Y-85.85
X147.836Y-89.85
X151.836Y-57.85
X151.836Y-61.85
X151.836Y-65.85
X151.836Y-73.85
X151.836Y-77.85
X151.836Y-81.85
X151.836Y-85.85
X151.836Y-89.85
X155.836Y-57.85
X155.836Y-61.85
X155.836Y-65.85
X155.836Y-73.85
X159.836Y-57.85
X159.836Y-61.85
X159.836Y-65.85
X159.836Y-69.85
X163.836Y-57.85
X163.836Y-81.85
X163.836Y-85.85
T2
X106.844Y-83.0
X106.844Y-85.0
T3
X106.68Y-60.071
X106.68Y-62.611
X106.68Y-65.151
X106.68Y-67.691
X106.68Y-70.231
X106.68Y-72.771
X106.68Y-75.311
X106.68Y-77.851
X113.874Y-88.745
X113.874Y-91.245
X113.9Y-82.495
X113.9Y-84.995
X114.3Y-60.071
X114.3Y-62.611
X114.3Y-65.151
X114.3Y-67.691
X114.3Y-70.231
X114.3Y-72.771
X114.3Y-75.311
X114.3Y-77.851
T4
X103.0Y-65.46
X103.0Y-68.0
X111.12Y-52.705
X113.66Y-52.705
X121.285Y-54.854
X121.285Y-70.094
X123.825Y-54.854
X123.825Y-70.094
X126.365Y-54.854
X126.365Y-70.094
X128.905Y-54.854
X128.905Y-70.094
X131.445Y-54.854
X131.445Y-70.094
X133.985Y-54.854
X133.985Y-70.094
X136.525Y-54.854
X136.525Y-70.094
X139.065Y-54.854
X139.065Y-70.094
X141.605Y-54.854
X141.605Y-70.094
X144.145Y-54.854
X144.145Y-70.094
X146.685Y-54.854
X146.685Y-70.094
X149.225Y-54.854
X149.225Y-70.094
X151.765Y-54.854
X151.765Y-70.094
X154.305Y-54.854
X154.305Y-70.094
X155.0Y-76.88
X155.0Y-79.42
X155.0Y-81.96
X155.0Y-84.5
X155.0Y-87.04
X155.0Y-89.58
X156.845Y-54.854
X156.845Y-70.094
T5
X103.0Y-53.0
X103.0Y-91.0
X162.0Y-53.0
X162.0Y-91.0
T0
M30
