G04 #@! TF.GenerationSoftware,KiCad,Pcbnew,(7.0.0)*
G04 #@! TF.CreationDate,2023-02-16T13:39:53+01:00*
G04 #@! TF.ProjectId,Sumo,53756d6f-2e6b-4696-9361-645f70636258,rev?*
G04 #@! TF.SameCoordinates,Original*
G04 #@! TF.FileFunction,Soldermask,Bot*
G04 #@! TF.FilePolarity,Negative*
%FSLAX46Y46*%
G04 Gerber Fmt 4.6, Leading zero omitted, Abs format (unit mm)*
G04 Created by KiCad (PCBNEW (7.0.0)) date 2023-02-16 13:39:53*
%MOMM*%
%LPD*%
G01*
G04 APERTURE LIST*
G04 Aperture macros list*
%AMRoundRect*
0 Rectangle with rounded corners*
0 $1 Rounding radius*
0 $2 $3 $4 $5 $6 $7 $8 $9 X,Y pos of 4 corners*
0 Add a 4 corners polygon primitive as box body*
4,1,4,$2,$3,$4,$5,$6,$7,$8,$9,$2,$3,0*
0 Add four circle primitives for the rounded corners*
1,1,$1+$1,$2,$3*
1,1,$1+$1,$4,$5*
1,1,$1+$1,$6,$7*
1,1,$1+$1,$8,$9*
0 Add four rect primitives between the rounded corners*
20,1,$1+$1,$2,$3,$4,$5,0*
20,1,$1+$1,$4,$5,$6,$7,0*
20,1,$1+$1,$6,$7,$8,$9,0*
20,1,$1+$1,$8,$9,$2,$3,0*%
G04 Aperture macros list end*
%ADD10R,1.600000X1.600000*%
%ADD11O,1.600000X1.600000*%
%ADD12R,1.700000X1.700000*%
%ADD13O,1.700000X1.700000*%
%ADD14C,1.600000*%
%ADD15C,5.600000*%
%ADD16RoundRect,0.250000X-0.625000X0.350000X-0.625000X-0.350000X0.625000X-0.350000X0.625000X0.350000X0*%
%ADD17O,1.750000X1.200000*%
G04 APERTURE END LIST*
D10*
X106679999Y-60070999D03*
D11*
X106679999Y-62610999D03*
X106679999Y-65150999D03*
X106679999Y-67690999D03*
X106679999Y-70230999D03*
X106679999Y-72770999D03*
X106679999Y-75310999D03*
X106679999Y-77850999D03*
X114299999Y-77850999D03*
X114299999Y-75310999D03*
X114299999Y-72770999D03*
X114299999Y-70230999D03*
X114299999Y-67690999D03*
X114299999Y-65150999D03*
X114299999Y-62610999D03*
X114299999Y-60070999D03*
D12*
X111119999Y-52704999D03*
D13*
X113659999Y-52704999D03*
D12*
X102999999Y-65459999D03*
D13*
X102999999Y-67999999D03*
D10*
X113899999Y-82494887D03*
D14*
X113900000Y-84994888D03*
D15*
X103000000Y-91000000D03*
X162000000Y-91000000D03*
D10*
X121284999Y-70093999D03*
D11*
X123824999Y-70093999D03*
X126364999Y-70093999D03*
X128904999Y-70093999D03*
X131444999Y-70093999D03*
X133984999Y-70093999D03*
X136524999Y-70093999D03*
X139064999Y-70093999D03*
X141604999Y-70093999D03*
X144144999Y-70093999D03*
X146684999Y-70093999D03*
X149224999Y-70093999D03*
X151764999Y-70093999D03*
X154304999Y-70093999D03*
X156844999Y-70093999D03*
X156844999Y-54853999D03*
X154304999Y-54853999D03*
X151764999Y-54853999D03*
X149224999Y-54853999D03*
X146684999Y-54853999D03*
X144144999Y-54853999D03*
X141604999Y-54853999D03*
X139064999Y-54853999D03*
X136524999Y-54853999D03*
X133984999Y-54853999D03*
X131444999Y-54853999D03*
X128904999Y-54853999D03*
X126364999Y-54853999D03*
X123824999Y-54853999D03*
X121284999Y-54853999D03*
D15*
X103000000Y-53000000D03*
X162000000Y-53000000D03*
D10*
X113873999Y-91245112D03*
D14*
X113874000Y-88745113D03*
D12*
X154999999Y-76879999D03*
D13*
X154999999Y-79419999D03*
X154999999Y-81959999D03*
X154999999Y-84499999D03*
X154999999Y-87039999D03*
X154999999Y-89579999D03*
D16*
X106844000Y-83000000D03*
D17*
X106843999Y-84999999D03*
M02*
